<?xml version="1.0" encoding="utf-8" standalone="no"?>
<!DOCTYPE svg PUBLIC "-//W3C//DTD SVG 1.1//EN"
  "http://www.w3.org/Graphics/SVG/1.1/DTD/svg11.dtd">
<!-- Created with matplotlib (https://matplotlib.org/) -->
<svg height="288pt" version="1.1" viewBox="0 0 432 288" width="432pt" xmlns="http://www.w3.org/2000/svg" xmlns:xlink="http://www.w3.org/1999/xlink">
 <metadata>
  <rdf:RDF xmlns:cc="http://creativecommons.org/ns#" xmlns:dc="http://purl.org/dc/elements/1.1/" xmlns:rdf="http://www.w3.org/1999/02/22-rdf-syntax-ns#">
   <cc:Work>
    <dc:type rdf:resource="http://purl.org/dc/dcmitype/StillImage"/>
    <dc:date>2023-08-15T14:42:40.960018</dc:date>
    <dc:format>image/svg+xml</dc:format>
    <dc:creator>
     <cc:Agent>
      <dc:title>Matplotlib v3.3.3, https://matplotlib.org/</dc:title>
     </cc:Agent>
    </dc:creator>
   </cc:Work>
  </rdf:RDF>
 </metadata>
 <defs>
  <style type="text/css">*{stroke-linecap:butt;stroke-linejoin:round;}</style>
 </defs>
 <g id="figure_1">
  <g id="patch_1">
   <path d="M 0 288 
L 432 288 
L 432 0 
L 0 0 
z
" style="fill:none;"/>
  </g>
  <g id="axes_1">
   <g id="patch_2">
    <path d="M 54 252 
L 388.8 252 
L 388.8 34.56 
L 54 34.56 
z
" style="fill:#ffffff;"/>
   </g>
   <g id="PolyCollection_1">
    <defs>
     <path d="M 72.600746 -231.826468 
L 72.599254 -231.826468 
L 72.597991 -231.031804 
L 72.594988 -230.23714 
L 72.588232 -229.442476 
L 72.573689 -228.647812 
L 72.543574 -227.853148 
L 72.483713 -227.058483 
L 72.3703 -226.263819 
L 72.16719 -225.469155 
L 71.825608 -224.674491 
L 71.288555 -223.879827 
L 70.5023 -223.085163 
L 69.436371 -222.290499 
L 68.108811 -221.495835 
L 66.605041 -220.70117 
L 65.074006 -219.906506 
L 63.694165 -219.111842 
L 62.622367 -218.317178 
L 61.952639 -217.522514 
L 61.704334 -216.72785 
L 61.836956 -215.933186 
L 62.274167 -215.138522 
L 62.922561 -214.343857 
L 63.683323 -213.549193 
L 64.46294 -212.754529 
L 65.187396 -211.959865 
L 65.81613 -211.165201 
L 66.346558 -210.370537 
L 66.804052 -209.575873 
L 67.222317 -208.781209 
L 67.624937 -207.986544 
L 68.016561 -207.19188 
L 68.385991 -206.397216 
L 68.717473 -205.602552 
L 69.003106 -204.807888 
L 69.249898 -204.013224 
L 69.478474 -203.21856 
L 69.714152 -202.423896 
L 69.974346 -201.629231 
L 70.258805 -200.834567 
L 70.548513 -200.039903 
L 70.813964 -199.245239 
L 71.027886 -198.450575 
L 71.175744 -197.655911 
L 71.259546 -196.861247 
L 71.294376 -196.066583 
L 71.300813 -195.271918 
L 71.298438 -194.477254 
L 71.303783 -193.68259 
L 71.331147 -192.887926 
L 71.391557 -192.093262 
L 71.488022 -191.298598 
L 71.610982 -190.503934 
L 71.739477 -189.70927 
L 71.848816 -188.914605 
L 71.919765 -188.119941 
L 71.943563 -187.325277 
L 71.921417 -186.530613 
L 71.861639 -185.735949 
L 71.777904 -184.941285 
L 71.68897 -184.146621 
L 71.617225 -183.351957 
L 71.583833 -182.557292 
L 71.601683 -181.762628 
L 71.670544 -180.967964 
L 71.777998 -180.1733 
L 71.905363 -179.378636 
L 72.034212 -178.583972 
L 72.149975 -177.789308 
L 72.242602 -176.994644 
L 72.306412 -176.199979 
L 72.340335 -175.405315 
L 72.347773 -174.610651 
L 72.335023 -173.815987 
L 72.309098 -173.021323 
L 72.276785 -172.226659 
L 72.245124 -171.431995 
L 72.221267 -170.637331 
L 72.210248 -169.842666 
L 72.212095 -169.048002 
L 72.221228 -168.253338 
L 72.229513 -167.458674 
L 72.231237 -166.66401 
L 72.226392 -165.869346 
L 72.219761 -165.074682 
L 72.216663 -164.280018 
L 72.218937 -163.485353 
L 72.224214 -162.690689 
L 72.228762 -161.896025 
L 72.231692 -161.101361 
L 72.237512 -160.306697 
L 72.254764 -159.512033 
L 72.290835 -158.717369 
L 72.346199 -157.922705 
L 72.412658 -157.12804 
L 72.47735 -156.333376 
L 72.529451 -155.538712 
L 72.564578 -154.744048 
L 72.584547 -153.949384 
L 72.594161 -153.15472 
L 72.605839 -153.15472 
L 72.605839 -153.15472 
L 72.615453 -153.949384 
L 72.635422 -154.744048 
L 72.670549 -155.538712 
L 72.72265 -156.333376 
L 72.787342 -157.12804 
L 72.853801 -157.922705 
L 72.909165 -158.717369 
L 72.945236 -159.512033 
L 72.962488 -160.306697 
L 72.968308 -161.101361 
L 72.971238 -161.896025 
L 72.975786 -162.690689 
L 72.981063 -163.485353 
L 72.983337 -164.280018 
L 72.980239 -165.074682 
L 72.973608 -165.869346 
L 72.968763 -166.66401 
L 72.970487 -167.458674 
L 72.978772 -168.253338 
L 72.987905 -169.048002 
L 72.989752 -169.842666 
L 72.978733 -170.637331 
L 72.954876 -171.431995 
L 72.923215 -172.226659 
L 72.890902 -173.021323 
L 72.864977 -173.815987 
L 72.852227 -174.610651 
L 72.859665 -175.405315 
L 72.893588 -176.199979 
L 72.957398 -176.994644 
L 73.050025 -177.789308 
L 73.165788 -178.583972 
L 73.294637 -179.378636 
L 73.422002 -180.1733 
L 73.529456 -180.967964 
L 73.598317 -181.762628 
L 73.616167 -182.557292 
L 73.582775 -183.351957 
L 73.51103 -184.146621 
L 73.422096 -184.941285 
L 73.338361 -185.735949 
L 73.278583 -186.530613 
L 73.256437 -187.325277 
L 73.280235 -188.119941 
L 73.351184 -188.914605 
L 73.460523 -189.70927 
L 73.589018 -190.503934 
L 73.711978 -191.298598 
L 73.808443 -192.093262 
L 73.868853 -192.887926 
L 73.896217 -193.68259 
L 73.901562 -194.477254 
L 73.899187 -195.271918 
L 73.905624 -196.066583 
L 73.940454 -196.861247 
L 74.024256 -197.655911 
L 74.172114 -198.450575 
L 74.386036 -199.245239 
L 74.651487 -200.039903 
L 74.941195 -200.834567 
L 75.225654 -201.629231 
L 75.485848 -202.423896 
L 75.721526 -203.21856 
L 75.950102 -204.013224 
L 76.196894 -204.807888 
L 76.482527 -205.602552 
L 76.814009 -206.397216 
L 77.183439 -207.19188 
L 77.575063 -207.986544 
L 77.977683 -208.781209 
L 78.395948 -209.575873 
L 78.853442 -210.370537 
L 79.38387 -211.165201 
L 80.012604 -211.959865 
L 80.73706 -212.754529 
L 81.516677 -213.549193 
L 82.277439 -214.343857 
L 82.925833 -215.138522 
L 83.363044 -215.933186 
L 83.495666 -216.72785 
L 83.247361 -217.522514 
L 82.577633 -218.317178 
L 81.505835 -219.111842 
L 80.125994 -219.906506 
L 78.594959 -220.70117 
L 77.091189 -221.495835 
L 75.763629 -222.290499 
L 74.6977 -223.085163 
L 73.911445 -223.879827 
L 73.374392 -224.674491 
L 73.03281 -225.469155 
L 72.8297 -226.263819 
L 72.716287 -227.058483 
L 72.656426 -227.853148 
L 72.626311 -228.647812 
L 72.611768 -229.442476 
L 72.605012 -230.23714 
L 72.602009 -231.031804 
L 72.600746 -231.826468 
z
" id="m64b99868de" style="stroke:#3d3d3d;stroke-width:1.5;"/>
    </defs>
    <g clip-path="url(#p47b7e574ba)">
     <use style="fill:#3274a1;stroke:#3d3d3d;stroke-width:1.5;" x="0" xlink:href="#m64b99868de" y="288"/>
    </g>
   </g>
   <g id="PolyCollection_2">
    <defs>
     <path d="M 109.80097 -228.172651 
L 109.79903 -228.172651 
L 109.797509 -227.394084 
L 109.794 -226.615517 
L 109.786307 -225.83695 
L 109.770208 -225.058384 
L 109.738131 -224.279817 
L 109.677405 -223.50125 
L 109.568088 -222.722683 
L 109.380197 -221.944116 
L 109.070459 -221.16555 
L 108.579806 -220.386983 
L 107.834777 -219.608416 
L 106.757474 -218.829849 
L 105.288197 -218.051282 
L 103.421097 -217.272715 
L 101.245263 -216.494149 
L 98.972798 -215.715582 
L 96.927908 -214.937015 
L 95.478421 -214.158448 
L 94.92 -213.379881 
L 95.360868 -212.601315 
L 96.670229 -211.822748 
L 98.52491 -211.044181 
L 100.531168 -210.265614 
L 102.35604 -209.487047 
L 103.806937 -208.708481 
L 104.839436 -207.929914 
L 105.514428 -207.151347 
L 105.940436 -206.37278 
L 106.227052 -205.594213 
L 106.458527 -204.815646 
L 106.685289 -204.03708 
L 106.927115 -203.258513 
L 107.18198 -202.479946 
L 107.436372 -201.701379 
L 107.67439 -200.922812 
L 107.883725 -200.144246 
L 108.057649 -199.365679 
L 108.194199 -198.587112 
L 108.295321 -197.808545 
L 108.367491 -197.029978 
L 108.422345 -196.251411 
L 108.474651 -195.472845 
L 108.537239 -194.694278 
L 108.615778 -193.915711 
L 108.706914 -193.137144 
L 108.800659 -192.358577 
L 108.884837 -191.580011 
L 108.948764 -190.801444 
L 108.985059 -190.022877 
L 108.990347 -189.24431 
L 108.965928 -188.465743 
L 108.918503 -187.687176 
L 108.85986 -186.90861 
L 108.804083 -186.130043 
L 108.76202 -185.351476 
L 108.735386 -184.572909 
L 108.714891 -183.794342 
L 108.685451 -183.015776 
L 108.636537 -182.237209 
L 108.570822 -181.458642 
L 108.504323 -180.680075 
L 108.45717 -179.901508 
L 108.441614 -179.122942 
L 108.456392 -178.344375 
L 108.491408 -177.565808 
L 108.53801 -176.787241 
L 108.595859 -176.008674 
L 108.671101 -175.230107 
L 108.768277 -174.451541 
L 108.883131 -173.672974 
L 109.00194 -172.894407 
L 109.107486 -172.11584 
L 109.187198 -171.337273 
L 109.238257 -170.558707 
L 109.267197 -169.78014 
L 109.285177 -169.001573 
L 109.30229 -168.223006 
L 109.324017 -167.444439 
L 109.350967 -166.665872 
L 109.380842 -165.887306 
L 109.410678 -165.108739 
L 109.438138 -164.330172 
L 109.461765 -163.551605 
L 109.480664 -162.773038 
L 109.494059 -161.994472 
L 109.501291 -161.215905 
L 109.50282 -160.437338 
L 109.501834 -159.658771 
L 109.504807 -158.880204 
L 109.519445 -158.101637 
L 109.550515 -157.323071 
L 109.596473 -156.544504 
L 109.649701 -155.765937 
L 109.700351 -154.98737 
L 109.740958 -154.208803 
L 109.768806 -153.430237 
L 109.785313 -152.65167 
L 109.793836 -151.873103 
L 109.797693 -151.094536 
L 109.802307 -151.094536 
L 109.802307 -151.094536 
L 109.806164 -151.873103 
L 109.814687 -152.65167 
L 109.831194 -153.430237 
L 109.859042 -154.208803 
L 109.899649 -154.98737 
L 109.950299 -155.765937 
L 110.003527 -156.544504 
L 110.049485 -157.323071 
L 110.080555 -158.101637 
L 110.095193 -158.880204 
L 110.098166 -159.658771 
L 110.09718 -160.437338 
L 110.098709 -161.215905 
L 110.105941 -161.994472 
L 110.119336 -162.773038 
L 110.138235 -163.551605 
L 110.161862 -164.330172 
L 110.189322 -165.108739 
L 110.219158 -165.887306 
L 110.249033 -166.665872 
L 110.275983 -167.444439 
L 110.29771 -168.223006 
L 110.314823 -169.001573 
L 110.332803 -169.78014 
L 110.361743 -170.558707 
L 110.412802 -171.337273 
L 110.492514 -172.11584 
L 110.59806 -172.894407 
L 110.716869 -173.672974 
L 110.831723 -174.451541 
L 110.928899 -175.230107 
L 111.004141 -176.008674 
L 111.06199 -176.787241 
L 111.108592 -177.565808 
L 111.143608 -178.344375 
L 111.158386 -179.122942 
L 111.14283 -179.901508 
L 111.095677 -180.680075 
L 111.029178 -181.458642 
L 110.963463 -182.237209 
L 110.914549 -183.015776 
L 110.885109 -183.794342 
L 110.864614 -184.572909 
L 110.83798 -185.351476 
L 110.795917 -186.130043 
L 110.74014 -186.90861 
L 110.681497 -187.687176 
L 110.634072 -188.465743 
L 110.609653 -189.24431 
L 110.614941 -190.022877 
L 110.651236 -190.801444 
L 110.715163 -191.580011 
L 110.799341 -192.358577 
L 110.893086 -193.137144 
L 110.984222 -193.915711 
L 111.062761 -194.694278 
L 111.125349 -195.472845 
L 111.177655 -196.251411 
L 111.232509 -197.029978 
L 111.304679 -197.808545 
L 111.405801 -198.587112 
L 111.542351 -199.365679 
L 111.716275 -200.144246 
L 111.92561 -200.922812 
L 112.163628 -201.701379 
L 112.41802 -202.479946 
L 112.672885 -203.258513 
L 112.914711 -204.03708 
L 113.141473 -204.815646 
L 113.372948 -205.594213 
L 113.659564 -206.37278 
L 114.085572 -207.151347 
L 114.760564 -207.929914 
L 115.793063 -208.708481 
L 117.24396 -209.487047 
L 119.068832 -210.265614 
L 121.07509 -211.044181 
L 122.929771 -211.822748 
L 124.239132 -212.601315 
L 124.68 -213.379881 
L 124.121579 -214.158448 
L 122.672092 -214.937015 
L 120.627202 -215.715582 
L 118.354737 -216.494149 
L 116.178903 -217.272715 
L 114.311803 -218.051282 
L 112.842526 -218.829849 
L 111.765223 -219.608416 
L 111.020194 -220.386983 
L 110.529541 -221.16555 
L 110.219803 -221.944116 
L 110.031912 -222.722683 
L 109.922595 -223.50125 
L 109.861869 -224.279817 
L 109.829792 -225.058384 
L 109.813693 -225.83695 
L 109.806 -226.615517 
L 109.802491 -227.394084 
L 109.80097 -228.172651 
z
" id="mfbbeb5fdcf" style="stroke:#3d3d3d;stroke-width:1.5;"/>
    </defs>
    <g clip-path="url(#p47b7e574ba)">
     <use style="fill:#e1812c;stroke:#3d3d3d;stroke-width:1.5;" x="0" xlink:href="#mfbbeb5fdcf" y="288"/>
    </g>
   </g>
   <g id="PolyCollection_3">
    <defs>
     <path d="M 147.000619 -243.556364 
L 146.999381 -243.556364 
L 146.99826 -242.703864 
L 146.995524 -241.851365 
L 146.989119 -240.998865 
L 146.974575 -240.146366 
L 146.942919 -239.293866 
L 146.878057 -238.441367 
L 146.754183 -237.588867 
L 146.534018 -236.736368 
L 146.169126 -235.883868 
L 145.604153 -235.031369 
L 144.786629 -234.17887 
L 143.682771 -233.32637 
L 142.298422 -232.473871 
L 140.701385 -231.621371 
L 139.034457 -230.768872 
L 137.501886 -229.916372 
L 136.318647 -229.063873 
L 135.638235 -228.211373 
L 135.501038 -227.358874 
L 135.837815 -226.506374 
L 136.517735 -225.653875 
L 137.39607 -224.801376 
L 138.335486 -223.948876 
L 139.217395 -223.096377 
L 139.963933 -222.243877 
L 140.558171 -221.391378 
L 141.037394 -220.538878 
L 141.460718 -219.686379 
L 141.8774 -218.833879 
L 142.3143 -217.98138 
L 142.776122 -217.12888 
L 143.244886 -216.276381 
L 143.681379 -215.423881 
L 144.041639 -214.571382 
L 144.305331 -213.718883 
L 144.491836 -212.866383 
L 144.646029 -212.013884 
L 144.806147 -211.161384 
L 144.984588 -210.308885 
L 145.175323 -209.456385 
L 145.370864 -208.603886 
L 145.567334 -207.751386 
L 145.758686 -206.898887 
L 145.933993 -206.046387 
L 146.081406 -205.193888 
L 146.192315 -204.341388 
L 146.262968 -203.488889 
L 146.295585 -202.63639 
L 146.298526 -201.78389 
L 146.28326 -200.931391 
L 146.259703 -200.078891 
L 146.234539 -199.226392 
L 146.213842 -198.373892 
L 146.205918 -197.521393 
L 146.220266 -196.668893 
L 146.263044 -195.816394 
L 146.332638 -194.963894 
L 146.418834 -194.111395 
L 146.507118 -193.258896 
L 146.585935 -192.406396 
L 146.651204 -191.553897 
L 146.704327 -190.701397 
L 146.746649 -189.848898 
L 146.776735 -188.996398 
L 146.792386 -188.143899 
L 146.793537 -187.291399 
L 146.78255 -186.4389 
L 146.763057 -185.5864 
L 146.740073 -184.733901 
L 146.720821 -183.881401 
L 146.713158 -183.028902 
L 146.72101 -182.176403 
L 146.741146 -181.323903 
L 146.765349 -180.471404 
L 146.785923 -179.618904 
L 146.798889 -178.766405 
L 146.803156 -177.913905 
L 146.79912 -177.061406 
L 146.789008 -176.208906 
L 146.777149 -175.356407 
L 146.76802 -174.503907 
L 146.763396 -173.651408 
L 146.761663 -172.798908 
L 146.759974 -171.946409 
L 146.756837 -171.09391 
L 146.752694 -170.24141 
L 146.748646 -169.388911 
L 146.744928 -168.536411 
L 146.740632 -167.683912 
L 146.735712 -166.831412 
L 146.734318 -165.978913 
L 146.745142 -165.126413 
L 146.775678 -164.273914 
L 146.82464 -163.421414 
L 146.880904 -162.568915 
L 146.93067 -161.716415 
L 146.965684 -160.863916 
L 146.985635 -160.011417 
L 146.994935 -159.158917 
L 147.005065 -159.158917 
L 147.005065 -159.158917 
L 147.014365 -160.011417 
L 147.034316 -160.863916 
L 147.06933 -161.716415 
L 147.119096 -162.568915 
L 147.17536 -163.421414 
L 147.224322 -164.273914 
L 147.254858 -165.126413 
L 147.265682 -165.978913 
L 147.264288 -166.831412 
L 147.259368 -167.683912 
L 147.255072 -168.536411 
L 147.251354 -169.388911 
L 147.247306 -170.24141 
L 147.243163 -171.09391 
L 147.240026 -171.946409 
L 147.238337 -172.798908 
L 147.236604 -173.651408 
L 147.23198 -174.503907 
L 147.222851 -175.356407 
L 147.210992 -176.208906 
L 147.20088 -177.061406 
L 147.196844 -177.913905 
L 147.201111 -178.766405 
L 147.214077 -179.618904 
L 147.234651 -180.471404 
L 147.258854 -181.323903 
L 147.27899 -182.176403 
L 147.286842 -183.028902 
L 147.279179 -183.881401 
L 147.259927 -184.733901 
L 147.236943 -185.5864 
L 147.21745 -186.4389 
L 147.206463 -187.291399 
L 147.207614 -188.143899 
L 147.223265 -188.996398 
L 147.253351 -189.848898 
L 147.295673 -190.701397 
L 147.348796 -191.553897 
L 147.414065 -192.406396 
L 147.492882 -193.258896 
L 147.581166 -194.111395 
L 147.667362 -194.963894 
L 147.736956 -195.816394 
L 147.779734 -196.668893 
L 147.794082 -197.521393 
L 147.786158 -198.373892 
L 147.765461 -199.226392 
L 147.740297 -200.078891 
L 147.71674 -200.931391 
L 147.701474 -201.78389 
L 147.704415 -202.63639 
L 147.737032 -203.488889 
L 147.807685 -204.341388 
L 147.918594 -205.193888 
L 148.066007 -206.046387 
L 148.241314 -206.898887 
L 148.432666 -207.751386 
L 148.629136 -208.603886 
L 148.824677 -209.456385 
L 149.015412 -210.308885 
L 149.193853 -211.161384 
L 149.353971 -212.013884 
L 149.508164 -212.866383 
L 149.694669 -213.718883 
L 149.958361 -214.571382 
L 150.318621 -215.423881 
L 150.755114 -216.276381 
L 151.223878 -217.12888 
L 151.6857 -217.98138 
L 152.1226 -218.833879 
L 152.539282 -219.686379 
L 152.962606 -220.538878 
L 153.441829 -221.391378 
L 154.036067 -222.243877 
L 154.782605 -223.096377 
L 155.664514 -223.948876 
L 156.60393 -224.801376 
L 157.482265 -225.653875 
L 158.162185 -226.506374 
L 158.498962 -227.358874 
L 158.361765 -228.211373 
L 157.681353 -229.063873 
L 156.498114 -229.916372 
L 154.965543 -230.768872 
L 153.298615 -231.621371 
L 151.701578 -232.473871 
L 150.317229 -233.32637 
L 149.213371 -234.17887 
L 148.395847 -235.031369 
L 147.830874 -235.883868 
L 147.465982 -236.736368 
L 147.245817 -237.588867 
L 147.121943 -238.441367 
L 147.057081 -239.293866 
L 147.025425 -240.146366 
L 147.010881 -240.998865 
L 147.004476 -241.851365 
L 147.00174 -242.703864 
L 147.000619 -243.556364 
z
" id="md3408cbe74" style="stroke:#3d3d3d;stroke-width:1.5;"/>
    </defs>
    <g clip-path="url(#p47b7e574ba)">
     <use style="fill:#3a923a;stroke:#3d3d3d;stroke-width:1.5;" x="0" xlink:href="#md3408cbe74" y="288"/>
    </g>
   </g>
   <g id="PolyCollection_4">
    <defs>
     <path d="M 184.214908 -227.179575 
L 184.185092 -227.179575 
L 184.165215 -226.261491 
L 184.12458 -225.343406 
L 184.047773 -224.425322 
L 183.913397 -223.507238 
L 183.695573 -222.589153 
L 183.367963 -221.671069 
L 182.909913 -220.752985 
L 182.312749 -219.834901 
L 181.583299 -218.916816 
L 180.742316 -217.998732 
L 179.818175 -217.080648 
L 178.839907 -216.162563 
L 177.835649 -215.244479 
L 176.840256 -214.326395 
L 175.909044 -213.40831 
L 175.127287 -212.490226 
L 174.603481 -211.572142 
L 174.441903 -210.654057 
L 174.703525 -209.735973 
L 175.374546 -208.817889 
L 176.360615 -207.899805 
L 177.51175 -206.98172 
L 178.666671 -206.063636 
L 179.696154 -205.145552 
L 180.528059 -204.227467 
L 181.148311 -203.309383 
L 181.584023 -202.391299 
L 181.880732 -201.473214 
L 182.083989 -200.55513 
L 182.229657 -199.637046 
L 182.341771 -198.718962 
L 182.434478 -197.800877 
L 182.515121 -196.882793 
L 182.587161 -195.964709 
L 182.652586 -195.046624 
L 182.713601 -194.12854 
L 182.773222 -193.210456 
L 182.834707 -192.292371 
L 182.900324 -191.374287 
L 182.97036 -190.456203 
L 183.043017 -189.538119 
L 183.115204 -188.620034 
L 183.183659 -187.70195 
L 183.245686 -186.783866 
L 183.299219 -185.865781 
L 183.342386 -184.947697 
L 183.373041 -184.029613 
L 183.38868 -183.111528 
L 183.386833 -182.193444 
L 183.365811 -181.27536 
L 183.325571 -180.357275 
L 183.268521 -179.439191 
L 183.200095 -178.521107 
L 183.128759 -177.603023 
L 183.065045 -176.684938 
L 183.019396 -175.766854 
L 182.99926 -174.84877 
L 183.006571 -173.930685 
L 183.036975 -173.012601 
L 183.081465 -172.094517 
L 183.12982 -171.176432 
L 183.174135 -170.258348 
L 183.210619 -169.340264 
L 183.238947 -168.42218 
L 183.260085 -167.504095 
L 183.274486 -166.586011 
L 183.282083 -165.667927 
L 183.283888 -164.749842 
L 183.283508 -163.831758 
L 183.286775 -162.913674 
L 183.299059 -161.995589 
L 183.321658 -161.077505 
L 183.349583 -160.159421 
L 183.37248 -159.241337 
L 183.378637 -158.323252 
L 183.360403 -157.405168 
L 183.318466 -156.487084 
L 183.26298 -155.568999 
L 183.210822 -154.650915 
L 183.180025 -153.732831 
L 183.183655 -152.814746 
L 183.225682 -151.896662 
L 183.300443 -150.978578 
L 183.39559 -150.060494 
L 183.496936 -149.142409 
L 183.593038 -148.224325 
L 183.67786 -147.306241 
L 183.750944 -146.388156 
L 183.815546 -145.470072 
L 183.875867 -144.551988 
L 183.93463 -143.633903 
L 183.991928 -142.715819 
L 184.045577 -141.797735 
L 184.092501 -140.87965 
L 184.130276 -139.961566 
L 184.158066 -139.043482 
L 184.176696 -138.125398 
L 184.188062 -137.207313 
L 184.194374 -136.289229 
L 184.205626 -136.289229 
L 184.205626 -136.289229 
L 184.211938 -137.207313 
L 184.223304 -138.125398 
L 184.241934 -139.043482 
L 184.269724 -139.961566 
L 184.307499 -140.87965 
L 184.354423 -141.797735 
L 184.408072 -142.715819 
L 184.46537 -143.633903 
L 184.524133 -144.551988 
L 184.584454 -145.470072 
L 184.649056 -146.388156 
L 184.72214 -147.306241 
L 184.806962 -148.224325 
L 184.903064 -149.142409 
L 185.00441 -150.060494 
L 185.099557 -150.978578 
L 185.174318 -151.896662 
L 185.216345 -152.814746 
L 185.219975 -153.732831 
L 185.189178 -154.650915 
L 185.13702 -155.568999 
L 185.081534 -156.487084 
L 185.039597 -157.405168 
L 185.021363 -158.323252 
L 185.02752 -159.241337 
L 185.050417 -160.159421 
L 185.078342 -161.077505 
L 185.100941 -161.995589 
L 185.113225 -162.913674 
L 185.116492 -163.831758 
L 185.116112 -164.749842 
L 185.117917 -165.667927 
L 185.125514 -166.586011 
L 185.139915 -167.504095 
L 185.161053 -168.42218 
L 185.189381 -169.340264 
L 185.225865 -170.258348 
L 185.27018 -171.176432 
L 185.318535 -172.094517 
L 185.363025 -173.012601 
L 185.393429 -173.930685 
L 185.40074 -174.84877 
L 185.380604 -175.766854 
L 185.334955 -176.684938 
L 185.271241 -177.603023 
L 185.199905 -178.521107 
L 185.131479 -179.439191 
L 185.074429 -180.357275 
L 185.034189 -181.27536 
L 185.013167 -182.193444 
L 185.01132 -183.111528 
L 185.026959 -184.029613 
L 185.057614 -184.947697 
L 185.100781 -185.865781 
L 185.154314 -186.783866 
L 185.216341 -187.70195 
L 185.284796 -188.620034 
L 185.356983 -189.538119 
L 185.42964 -190.456203 
L 185.499676 -191.374287 
L 185.565293 -192.292371 
L 185.626778 -193.210456 
L 185.686399 -194.12854 
L 185.747414 -195.046624 
L 185.812839 -195.964709 
L 185.884879 -196.882793 
L 185.965522 -197.800877 
L 186.058229 -198.718962 
L 186.170343 -199.637046 
L 186.316011 -200.55513 
L 186.519268 -201.473214 
L 186.815977 -202.391299 
L 187.251689 -203.309383 
L 187.871941 -204.227467 
L 188.703846 -205.145552 
L 189.733329 -206.063636 
L 190.88825 -206.98172 
L 192.039385 -207.899805 
L 193.025454 -208.817889 
L 193.696475 -209.735973 
L 193.958097 -210.654057 
L 193.796519 -211.572142 
L 193.272713 -212.490226 
L 192.490956 -213.40831 
L 191.559744 -214.326395 
L 190.564351 -215.244479 
L 189.560093 -216.162563 
L 188.581825 -217.080648 
L 187.657684 -217.998732 
L 186.816701 -218.916816 
L 186.087251 -219.834901 
L 185.490087 -220.752985 
L 185.032037 -221.671069 
L 184.704427 -222.589153 
L 184.486603 -223.507238 
L 184.352227 -224.425322 
L 184.27542 -225.343406 
L 184.234785 -226.261491 
L 184.214908 -227.179575 
z
" id="mb3bc57a00e" style="stroke:#3d3d3d;stroke-width:1.5;"/>
    </defs>
    <g clip-path="url(#p47b7e574ba)">
     <use style="fill:#c03d3e;stroke:#3d3d3d;stroke-width:1.5;" x="0" xlink:href="#mb3bc57a00e" y="288"/>
    </g>
   </g>
   <g id="PolyCollection_5">
    <defs>
     <path d="M 221.400858 -236.158442 
L 221.399142 -236.158442 
L 221.397762 -235.286282 
L 221.394347 -234.414122 
L 221.386277 -233.541961 
L 221.368199 -232.669801 
L 221.330031 -231.79764 
L 221.254256 -230.92548 
L 221.112824 -230.053319 
L 220.864404 -229.181159 
L 220.453437 -228.308998 
L 219.813376 -227.436838 
L 218.877269 -226.564677 
L 217.598346 -225.692517 
L 215.979651 -224.820356 
L 214.10467 -223.948196 
L 212.153221 -223.076035 
L 210.385202 -222.203875 
L 209.085066 -221.331714 
L 208.480354 -220.459554 
L 208.666718 -219.587394 
L 209.574776 -218.715233 
L 210.995667 -217.843073 
L 212.652694 -216.970912 
L 214.285024 -216.098752 
L 215.70885 -215.226591 
L 216.838729 -214.354431 
L 217.673393 -213.48227 
L 218.263127 -212.61011 
L 218.676411 -211.737949 
L 218.976419 -210.865789 
L 219.209901 -209.993628 
L 219.405821 -209.121468 
L 219.579351 -208.249307 
L 219.737313 -207.377147 
L 219.882569 -206.504987 
L 220.016428 -205.632826 
L 220.13935 -204.760666 
L 220.250837 -203.888505 
L 220.349345 -203.016345 
L 220.432668 -202.144184 
L 220.4988 -201.272024 
L 220.546989 -200.399863 
L 220.578621 -199.527703 
L 220.597531 -198.655542 
L 220.609477 -197.783382 
L 220.620753 -196.911221 
L 220.636401 -196.039061 
L 220.658719 -195.1669 
L 220.686769 -194.29474 
L 220.71709 -193.42258 
L 220.74521 -192.550419 
L 220.767172 -191.678259 
L 220.780348 -190.806098 
L 220.783318 -189.933938 
L 220.775207 -189.061777 
L 220.755197 -188.189617 
L 220.722736 -187.317456 
L 220.678421 -186.445296 
L 220.624993 -185.573135 
L 220.567714 -184.700975 
L 220.513654 -183.828814 
L 220.469954 -182.956654 
L 220.441566 -182.084493 
L 220.429286 -181.212333 
L 220.428926 -180.340173 
L 220.432182 -179.468012 
L 220.429192 -178.595852 
L 220.412012 -177.723691 
L 220.377611 -176.851531 
L 220.328946 -175.97937 
L 220.273336 -175.10721 
L 220.218728 -174.235049 
L 220.169806 -173.362889 
L 220.126351 -172.490728 
L 220.085168 -171.618568 
L 220.044633 -170.746407 
L 220.008993 -169.874247 
L 219.98936 -169.002086 
L 220.000292 -168.129926 
L 220.053563 -167.257765 
L 220.152455 -166.385605 
L 220.289463 -165.513445 
L 220.448323 -164.641284 
L 220.609094 -163.769124 
L 220.753908 -162.896963 
L 220.871238 -162.024803 
L 220.957613 -161.152642 
L 221.016849 -160.280482 
L 221.057539 -159.408321 
L 221.089801 -158.536161 
L 221.122191 -157.664 
L 221.159552 -156.79184 
L 221.202353 -155.919679 
L 221.247569 -155.047519 
L 221.290603 -154.175358 
L 221.327346 -153.303198 
L 221.355522 -152.431038 
L 221.374971 -151.558877 
L 221.387082 -150.686717 
L 221.393894 -149.814556 
L 221.406106 -149.814556 
L 221.406106 -149.814556 
L 221.412918 -150.686717 
L 221.425029 -151.558877 
L 221.444478 -152.431038 
L 221.472654 -153.303198 
L 221.509397 -154.175358 
L 221.552431 -155.047519 
L 221.597647 -155.919679 
L 221.640448 -156.79184 
L 221.677809 -157.664 
L 221.710199 -158.536161 
L 221.742461 -159.408321 
L 221.783151 -160.280482 
L 221.842387 -161.152642 
L 221.928762 -162.024803 
L 222.046092 -162.896963 
L 222.190906 -163.769124 
L 222.351677 -164.641284 
L 222.510537 -165.513445 
L 222.647545 -166.385605 
L 222.746437 -167.257765 
L 222.799708 -168.129926 
L 222.81064 -169.002086 
L 222.791007 -169.874247 
L 222.755367 -170.746407 
L 222.714832 -171.618568 
L 222.673649 -172.490728 
L 222.630194 -173.362889 
L 222.581272 -174.235049 
L 222.526664 -175.10721 
L 222.471054 -175.97937 
L 222.422389 -176.851531 
L 222.387988 -177.723691 
L 222.370808 -178.595852 
L 222.367818 -179.468012 
L 222.371074 -180.340173 
L 222.370714 -181.212333 
L 222.358434 -182.084493 
L 222.330046 -182.956654 
L 222.286346 -183.828814 
L 222.232286 -184.700975 
L 222.175007 -185.573135 
L 222.121579 -186.445296 
L 222.077264 -187.317456 
L 222.044803 -188.189617 
L 222.024793 -189.061777 
L 222.016682 -189.933938 
L 222.019652 -190.806098 
L 222.032828 -191.678259 
L 222.05479 -192.550419 
L 222.08291 -193.42258 
L 222.113231 -194.29474 
L 222.141281 -195.1669 
L 222.163599 -196.039061 
L 222.179247 -196.911221 
L 222.190523 -197.783382 
L 222.202469 -198.655542 
L 222.221379 -199.527703 
L 222.253011 -200.399863 
L 222.3012 -201.272024 
L 222.367332 -202.144184 
L 222.450655 -203.016345 
L 222.549163 -203.888505 
L 222.66065 -204.760666 
L 222.783572 -205.632826 
L 222.917431 -206.504987 
L 223.062687 -207.377147 
L 223.220649 -208.249307 
L 223.394179 -209.121468 
L 223.590099 -209.993628 
L 223.823581 -210.865789 
L 224.123589 -211.737949 
L 224.536873 -212.61011 
L 225.126607 -213.48227 
L 225.961271 -214.354431 
L 227.09115 -215.226591 
L 228.514976 -216.098752 
L 230.147306 -216.970912 
L 231.804333 -217.843073 
L 233.225224 -218.715233 
L 234.133282 -219.587394 
L 234.319646 -220.459554 
L 233.714934 -221.331714 
L 232.414798 -222.203875 
L 230.646779 -223.076035 
L 228.69533 -223.948196 
L 226.820349 -224.820356 
L 225.201654 -225.692517 
L 223.922731 -226.564677 
L 222.986624 -227.436838 
L 222.346563 -228.308998 
L 221.935596 -229.181159 
L 221.687176 -230.053319 
L 221.545744 -230.92548 
L 221.469969 -231.79764 
L 221.431801 -232.669801 
L 221.413723 -233.541961 
L 221.405653 -234.414122 
L 221.402238 -235.286282 
L 221.400858 -236.158442 
z
" id="m4be5cabe13" style="stroke:#3d3d3d;stroke-width:1.5;"/>
    </defs>
    <g clip-path="url(#p47b7e574ba)">
     <use style="fill:#9372b2;stroke:#3d3d3d;stroke-width:1.5;" x="0" xlink:href="#m4be5cabe13" y="288"/>
    </g>
   </g>
   <g id="PolyCollection_6">
    <defs>
     <path d="M 258.60141 -239.803907 
L 258.59859 -239.803907 
L 258.596151 -238.880664 
L 258.589997 -237.957422 
L 258.575406 -237.03418 
L 258.543083 -236.110937 
L 258.476382 -235.187695 
L 258.348344 -234.264453 
L 258.119802 -233.34121 
L 257.740431 -232.417968 
L 257.1548 -231.494725 
L 256.3147 -230.571483 
L 255.197172 -229.648241 
L 253.824726 -228.724998 
L 252.280999 -227.801756 
L 250.713101 -226.878514 
L 249.31343 -225.955271 
L 248.280402 -225.032029 
L 247.767819 -224.108786 
L 247.841099 -223.185544 
L 248.458939 -222.262302 
L 249.488762 -221.339059 
L 250.748777 -220.415817 
L 252.058043 -219.492575 
L 253.275176 -218.569332 
L 254.315404 -217.64609 
L 255.147241 -216.722847 
L 255.77738 -215.799605 
L 256.233166 -214.876363 
L 256.548629 -213.95312 
L 256.756055 -213.029878 
L 256.882563 -212.106636 
L 256.950059 -211.183393 
L 256.976778 -210.260151 
L 256.978871 -209.336908 
L 256.971057 -208.413666 
L 256.966109 -207.490424 
L 256.973661 -206.567181 
L 256.999083 -205.643939 
L 257.043151 -204.720697 
L 257.102762 -203.797454 
L 257.172533 -202.874212 
L 257.246753 -201.950969 
L 257.321033 -201.027727 
L 257.393157 -200.104485 
L 257.462991 -199.181242 
L 257.53166 -198.258 
L 257.600458 -197.334758 
L 257.669923 -196.411515 
L 257.739337 -195.488273 
L 257.806711 -194.56503 
L 257.869174 -193.641788 
L 257.923603 -192.718546 
L 257.967317 -191.795303 
L 257.998628 -190.872061 
L 258.017076 -189.948818 
L 258.023326 -189.025576 
L 258.01883 -188.102334 
L 258.005464 -187.179091 
L 257.985248 -186.255849 
L 257.960168 -185.332607 
L 257.931941 -184.409364 
L 257.901602 -183.486122 
L 257.868926 -182.562879 
L 257.831893 -181.639637 
L 257.786539 -180.716395 
L 257.727524 -179.793152 
L 257.649554 -178.86991 
L 257.549421 -177.946668 
L 257.427988 -177.023425 
L 257.291237 -176.100183 
L 257.149715 -175.17694 
L 257.016459 -174.253698 
L 256.904358 -173.330456 
L 256.824185 -172.407213 
L 256.783992 -171.483971 
L 256.789403 -170.560729 
L 256.84363 -169.637486 
L 256.946405 -168.714244 
L 257.092223 -167.791001 
L 257.269351 -166.867759 
L 257.460924 -165.944517 
L 257.648326 -165.021274 
L 257.815573 -164.098032 
L 257.952888 -163.17479 
L 258.058085 -162.251547 
L 258.135548 -161.328305 
L 258.193568 -160.405062 
L 258.241212 -159.48182 
L 258.285763 -158.558578 
L 258.331316 -157.635335 
L 258.378625 -156.712093 
L 258.425926 -155.788851 
L 258.470266 -154.865608 
L 258.508818 -153.942366 
L 258.539792 -153.019123 
L 258.562761 -152.095881 
L 258.578478 -151.172639 
L 258.588401 -150.249396 
L 258.594181 -149.326154 
L 258.597288 -148.402912 
L 258.602712 -148.402912 
L 258.602712 -148.402912 
L 258.605819 -149.326154 
L 258.611599 -150.249396 
L 258.621522 -151.172639 
L 258.637239 -152.095881 
L 258.660208 -153.019123 
L 258.691182 -153.942366 
L 258.729734 -154.865608 
L 258.774074 -155.788851 
L 258.821375 -156.712093 
L 258.868684 -157.635335 
L 258.914237 -158.558578 
L 258.958788 -159.48182 
L 259.006432 -160.405062 
L 259.064452 -161.328305 
L 259.141915 -162.251547 
L 259.247112 -163.17479 
L 259.384427 -164.098032 
L 259.551674 -165.021274 
L 259.739076 -165.944517 
L 259.930649 -166.867759 
L 260.107777 -167.791001 
L 260.253595 -168.714244 
L 260.35637 -169.637486 
L 260.410597 -170.560729 
L 260.416008 -171.483971 
L 260.375815 -172.407213 
L 260.295642 -173.330456 
L 260.183541 -174.253698 
L 260.050285 -175.17694 
L 259.908763 -176.100183 
L 259.772012 -177.023425 
L 259.650579 -177.946668 
L 259.550446 -178.86991 
L 259.472476 -179.793152 
L 259.413461 -180.716395 
L 259.368107 -181.639637 
L 259.331074 -182.562879 
L 259.298398 -183.486122 
L 259.268059 -184.409364 
L 259.239832 -185.332607 
L 259.214752 -186.255849 
L 259.194536 -187.179091 
L 259.18117 -188.102334 
L 259.176674 -189.025576 
L 259.182924 -189.948818 
L 259.201372 -190.872061 
L 259.232683 -191.795303 
L 259.276397 -192.718546 
L 259.330826 -193.641788 
L 259.393289 -194.56503 
L 259.460663 -195.488273 
L 259.530077 -196.411515 
L 259.599542 -197.334758 
L 259.66834 -198.258 
L 259.737009 -199.181242 
L 259.806843 -200.104485 
L 259.878967 -201.027727 
L 259.953247 -201.950969 
L 260.027467 -202.874212 
L 260.097238 -203.797454 
L 260.156849 -204.720697 
L 260.200917 -205.643939 
L 260.226339 -206.567181 
L 260.233891 -207.490424 
L 260.228943 -208.413666 
L 260.221129 -209.336908 
L 260.223222 -210.260151 
L 260.249941 -211.183393 
L 260.317437 -212.106636 
L 260.443945 -213.029878 
L 260.651371 -213.95312 
L 260.966834 -214.876363 
L 261.42262 -215.799605 
L 262.052759 -216.722847 
L 262.884596 -217.64609 
L 263.924824 -218.569332 
L 265.141957 -219.492575 
L 266.451223 -220.415817 
L 267.711238 -221.339059 
L 268.741061 -222.262302 
L 269.358901 -223.185544 
L 269.432181 -224.108786 
L 268.919598 -225.032029 
L 267.88657 -225.955271 
L 266.486899 -226.878514 
L 264.919001 -227.801756 
L 263.375274 -228.724998 
L 262.002828 -229.648241 
L 260.8853 -230.571483 
L 260.0452 -231.494725 
L 259.459569 -232.417968 
L 259.080198 -233.34121 
L 258.851656 -234.264453 
L 258.723618 -235.187695 
L 258.656917 -236.110937 
L 258.624594 -237.03418 
L 258.610003 -237.957422 
L 258.603849 -238.880664 
L 258.60141 -239.803907 
z
" id="m78d76ecb29" style="stroke:#3d3d3d;stroke-width:1.5;"/>
    </defs>
    <g clip-path="url(#p47b7e574ba)">
     <use style="fill:#845b53;stroke:#3d3d3d;stroke-width:1.5;" x="0" xlink:href="#m78d76ecb29" y="288"/>
    </g>
   </g>
   <g id="PolyCollection_7">
    <defs>
     <path d="M 295.80034 -235.89255 
L 295.79966 -235.89255 
L 295.799187 -234.826568 
L 295.798304 -233.760586 
L 295.796659 -232.694604 
L 295.793224 -231.628623 
L 295.785516 -230.562641 
L 295.769116 -229.496659 
L 295.738195 -228.430677 
L 295.687123 -227.364696 
L 295.61245 -226.298714 
L 295.514119 -225.232732 
L 295.394682 -224.16675 
L 295.255768 -223.100768 
L 295.093785 -222.034787 
L 294.899778 -220.968805 
L 294.665922 -219.902823 
L 294.393296 -218.836841 
L 294.091871 -217.77086 
L 293.770863 -216.704878 
L 293.428641 -215.638896 
L 293.053057 -214.572914 
L 292.632027 -213.506932 
L 292.162083 -212.440951 
L 291.644938 -211.374969 
L 291.077414 -210.308987 
L 290.449485 -209.243005 
L 289.756742 -208.177024 
L 289.019008 -207.111042 
L 288.292631 -206.04506 
L 287.668425 -204.979078 
L 287.252296 -203.913096 
L 287.13411 -202.847115 
L 287.360072 -201.781133 
L 287.92025 -200.715151 
L 288.749477 -199.649169 
L 289.737673 -198.583188 
L 290.753139 -197.517206 
L 291.677457 -196.451224 
L 292.435584 -195.385242 
L 293.005532 -194.319261 
L 293.409737 -193.253279 
L 293.698034 -192.187297 
L 293.92522 -191.121315 
L 294.126971 -190.055333 
L 294.307508 -188.989352 
L 294.449281 -187.92337 
L 294.537232 -186.857388 
L 294.578026 -185.791406 
L 294.599287 -184.725425 
L 294.631255 -183.659443 
L 294.688351 -182.593461 
L 294.764895 -181.527479 
L 294.842772 -180.461497 
L 294.901635 -179.395516 
L 294.92785 -178.329534 
L 294.921054 -177.263552 
L 294.894084 -176.19757 
L 294.864737 -175.131589 
L 294.84582 -174.065607 
L 294.841178 -172.999625 
L 294.848456 -171.933643 
L 294.863991 -170.867661 
L 294.885847 -169.80168 
L 294.914407 -168.735698 
L 294.952174 -167.669716 
L 295.003475 -166.603734 
L 295.072715 -165.537753 
L 295.160771 -164.471771 
L 295.261962 -163.405789 
L 295.364387 -162.339807 
L 295.453664 -161.273826 
L 295.517847 -160.207844 
L 295.551515 -159.141862 
L 295.55803 -158.07588 
L 295.54885 -157.009898 
L 295.538906 -155.943917 
L 295.539686 -154.877935 
L 295.554032 -153.811953 
L 295.575592 -152.745971 
L 295.593091 -151.67999 
L 295.597597 -150.614008 
L 295.588685 -149.548026 
L 295.574414 -148.482044 
L 295.564573 -147.416062 
L 295.563655 -146.350081 
L 295.569938 -145.284099 
L 295.579306 -144.218117 
L 295.588159 -143.152135 
L 295.593738 -142.086154 
L 295.59448 -141.020172 
L 295.591667 -139.95419 
L 295.590753 -138.888208 
L 295.599909 -137.822226 
L 295.625084 -136.756245 
L 295.664726 -135.690263 
L 295.709562 -134.624281 
L 295.74851 -133.558299 
L 295.775269 -132.492318 
L 295.790038 -131.426336 
L 295.796648 -130.360354 
L 295.803352 -130.360354 
L 295.803352 -130.360354 
L 295.809962 -131.426336 
L 295.824731 -132.492318 
L 295.85149 -133.558299 
L 295.890438 -134.624281 
L 295.935274 -135.690263 
L 295.974916 -136.756245 
L 296.000091 -137.822226 
L 296.009247 -138.888208 
L 296.008333 -139.95419 
L 296.00552 -141.020172 
L 296.006262 -142.086154 
L 296.011841 -143.152135 
L 296.020694 -144.218117 
L 296.030062 -145.284099 
L 296.036345 -146.350081 
L 296.035427 -147.416062 
L 296.025586 -148.482044 
L 296.011315 -149.548026 
L 296.002403 -150.614008 
L 296.006909 -151.67999 
L 296.024408 -152.745971 
L 296.045968 -153.811953 
L 296.060314 -154.877935 
L 296.061094 -155.943917 
L 296.05115 -157.009898 
L 296.04197 -158.07588 
L 296.048485 -159.141862 
L 296.082153 -160.207844 
L 296.146336 -161.273826 
L 296.235613 -162.339807 
L 296.338038 -163.405789 
L 296.439229 -164.471771 
L 296.527285 -165.537753 
L 296.596525 -166.603734 
L 296.647826 -167.669716 
L 296.685593 -168.735698 
L 296.714153 -169.80168 
L 296.736009 -170.867661 
L 296.751544 -171.933643 
L 296.758822 -172.999625 
L 296.75418 -174.065607 
L 296.735263 -175.131589 
L 296.705916 -176.19757 
L 296.678946 -177.263552 
L 296.67215 -178.329534 
L 296.698365 -179.395516 
L 296.757228 -180.461497 
L 296.835105 -181.527479 
L 296.911649 -182.593461 
L 296.968745 -183.659443 
L 297.000713 -184.725425 
L 297.021974 -185.791406 
L 297.062768 -186.857388 
L 297.150719 -187.92337 
L 297.292492 -188.989352 
L 297.473029 -190.055333 
L 297.67478 -191.121315 
L 297.901966 -192.187297 
L 298.190263 -193.253279 
L 298.594468 -194.319261 
L 299.164416 -195.385242 
L 299.922543 -196.451224 
L 300.846861 -197.517206 
L 301.862327 -198.583188 
L 302.850523 -199.649169 
L 303.67975 -200.715151 
L 304.239928 -201.781133 
L 304.46589 -202.847115 
L 304.347704 -203.913096 
L 303.931575 -204.979078 
L 303.307369 -206.04506 
L 302.580992 -207.111042 
L 301.843258 -208.177024 
L 301.150515 -209.243005 
L 300.522586 -210.308987 
L 299.955062 -211.374969 
L 299.437917 -212.440951 
L 298.967973 -213.506932 
L 298.546943 -214.572914 
L 298.171359 -215.638896 
L 297.829137 -216.704878 
L 297.508129 -217.77086 
L 297.206704 -218.836841 
L 296.934078 -219.902823 
L 296.700222 -220.968805 
L 296.506215 -222.034787 
L 296.344232 -223.100768 
L 296.205318 -224.16675 
L 296.085881 -225.232732 
L 295.98755 -226.298714 
L 295.912877 -227.364696 
L 295.861805 -228.430677 
L 295.830884 -229.496659 
L 295.814484 -230.562641 
L 295.806776 -231.628623 
L 295.803341 -232.694604 
L 295.801696 -233.760586 
L 295.800813 -234.826568 
L 295.80034 -235.89255 
z
" id="m05aa21ea0f" style="stroke:#3d3d3d;stroke-width:1.5;"/>
    </defs>
    <g clip-path="url(#p47b7e574ba)">
     <use style="fill:#d684bd;stroke:#3d3d3d;stroke-width:1.5;" x="0" xlink:href="#m05aa21ea0f" y="288"/>
    </g>
   </g>
   <g id="PolyCollection_8">
    <defs>
     <path d="M 333.000642 -225.880301 
L 332.999358 -225.880301 
L 332.998136 -224.966622 
L 332.995214 -224.052943 
L 332.988784 -223.139264 
L 332.975431 -222.225585 
L 332.949303 -221.311906 
L 332.902252 -220.398227 
L 332.826494 -219.484548 
L 332.719761 -218.570869 
L 332.589231 -217.65719 
L 332.449233 -216.743511 
L 332.312704 -215.829832 
L 332.183536 -214.916153 
L 332.057006 -214.002475 
L 331.926898 -213.088796 
L 331.789798 -212.175117 
L 331.639634 -211.261438 
L 331.457438 -210.347759 
L 331.207 -209.43408 
L 330.837085 -208.520401 
L 330.279349 -207.606722 
L 329.439482 -206.693043 
L 328.204921 -205.779364 
L 326.505566 -204.865685 
L 324.429187 -203.952006 
L 322.31426 -203.038327 
L 320.69794 -202.124648 
L 320.078806 -201.210969 
L 320.628581 -200.29729 
L 322.077333 -199.383611 
L 323.876651 -198.469932 
L 325.512744 -197.556253 
L 326.731269 -196.642574 
L 327.548999 -195.728895 
L 328.118455 -194.815216 
L 328.586578 -193.901537 
L 329.028155 -192.987858 
L 329.451598 -192.074179 
L 329.838147 -191.1605 
L 330.175654 -190.246821 
L 330.466667 -189.333142 
L 330.717586 -188.419463 
L 330.928452 -187.505785 
L 331.092941 -186.592106 
L 331.206713 -185.678427 
L 331.279264 -184.764748 
L 331.33936 -183.851069 
L 331.422899 -182.93739 
L 331.54831 -182.023711 
L 331.70127 -181.110032 
L 331.843108 -180.196353 
L 331.93516 -179.282674 
L 331.960169 -178.368995 
L 331.927997 -177.455316 
L 331.865905 -176.541637 
L 331.803669 -175.627958 
L 331.764377 -174.714279 
L 331.762552 -173.8006 
L 331.803778 -172.886921 
L 331.883174 -171.973242 
L 331.986031 -171.059563 
L 332.092585 -170.145884 
L 332.184989 -169.232205 
L 332.253809 -168.318526 
L 332.300953 -167.404847 
L 332.33612 -166.491168 
L 332.369153 -165.577489 
L 332.405674 -164.66381 
L 332.448744 -163.750131 
L 332.500769 -162.836452 
L 332.561482 -161.922773 
L 332.625922 -161.009094 
L 332.686412 -160.095416 
L 332.736218 -159.181737 
L 332.771295 -158.268058 
L 332.790115 -157.354379 
L 332.7934 -156.4407 
L 332.784686 -155.527021 
L 332.770813 -154.613342 
L 332.76007 -153.699663 
L 332.757784 -152.785984 
L 332.763348 -151.872305 
L 332.772317 -150.958626 
L 332.781257 -150.044947 
L 332.789521 -149.131268 
L 332.796357 -148.217589 
L 332.798215 -147.30391 
L 332.790842 -146.390231 
L 332.774686 -145.476552 
L 332.75809 -144.562873 
L 332.754554 -143.649194 
L 332.774694 -142.735515 
L 332.818228 -141.821836 
L 332.873205 -140.908157 
L 332.923998 -139.994478 
L 332.960744 -139.080799 
L 332.982348 -138.16712 
L 332.992993 -137.253441 
L 332.997518 -136.339762 
L 332.999217 -135.426083 
L 333.000783 -135.426083 
L 333.000783 -135.426083 
L 333.002482 -136.339762 
L 333.007007 -137.253441 
L 333.017652 -138.16712 
L 333.039256 -139.080799 
L 333.076002 -139.994478 
L 333.126795 -140.908157 
L 333.181772 -141.821836 
L 333.225306 -142.735515 
L 333.245446 -143.649194 
L 333.24191 -144.562873 
L 333.225314 -145.476552 
L 333.209158 -146.390231 
L 333.201785 -147.30391 
L 333.203643 -148.217589 
L 333.210479 -149.131268 
L 333.218743 -150.044947 
L 333.227683 -150.958626 
L 333.236652 -151.872305 
L 333.242216 -152.785984 
L 333.23993 -153.699663 
L 333.229187 -154.613342 
L 333.215314 -155.527021 
L 333.2066 -156.4407 
L 333.209885 -157.354379 
L 333.228705 -158.268058 
L 333.263782 -159.181737 
L 333.313588 -160.095416 
L 333.374078 -161.009094 
L 333.438518 -161.922773 
L 333.499231 -162.836452 
L 333.551256 -163.750131 
L 333.594326 -164.66381 
L 333.630847 -165.577489 
L 333.66388 -166.491168 
L 333.699047 -167.404847 
L 333.746191 -168.318526 
L 333.815011 -169.232205 
L 333.907415 -170.145884 
L 334.013969 -171.059563 
L 334.116826 -171.973242 
L 334.196222 -172.886921 
L 334.237448 -173.8006 
L 334.235623 -174.714279 
L 334.196331 -175.627958 
L 334.134095 -176.541637 
L 334.072003 -177.455316 
L 334.039831 -178.368995 
L 334.06484 -179.282674 
L 334.156892 -180.196353 
L 334.29873 -181.110032 
L 334.45169 -182.023711 
L 334.577101 -182.93739 
L 334.66064 -183.851069 
L 334.720736 -184.764748 
L 334.793287 -185.678427 
L 334.907059 -186.592106 
L 335.071548 -187.505785 
L 335.282414 -188.419463 
L 335.533333 -189.333142 
L 335.824346 -190.246821 
L 336.161853 -191.1605 
L 336.548402 -192.074179 
L 336.971845 -192.987858 
L 337.413422 -193.901537 
L 337.881545 -194.815216 
L 338.451001 -195.728895 
L 339.268731 -196.642574 
L 340.487256 -197.556253 
L 342.123349 -198.469932 
L 343.922667 -199.383611 
L 345.371419 -200.29729 
L 345.921194 -201.210969 
L 345.30206 -202.124648 
L 343.68574 -203.038327 
L 341.570813 -203.952006 
L 339.494434 -204.865685 
L 337.795079 -205.779364 
L 336.560518 -206.693043 
L 335.720651 -207.606722 
L 335.162915 -208.520401 
L 334.793 -209.43408 
L 334.542562 -210.347759 
L 334.360366 -211.261438 
L 334.210202 -212.175117 
L 334.073102 -213.088796 
L 333.942994 -214.002475 
L 333.816464 -214.916153 
L 333.687296 -215.829832 
L 333.550767 -216.743511 
L 333.410769 -217.65719 
L 333.280239 -218.570869 
L 333.173506 -219.484548 
L 333.097748 -220.398227 
L 333.050697 -221.311906 
L 333.024569 -222.225585 
L 333.011216 -223.139264 
L 333.004786 -224.052943 
L 333.001864 -224.966622 
L 333.000642 -225.880301 
z
" id="ma82dc0999b" style="stroke:#3d3d3d;stroke-width:1.5;"/>
    </defs>
    <g clip-path="url(#p47b7e574ba)">
     <use style="fill:#7f7f7f;stroke:#3d3d3d;stroke-width:1.5;" x="0" xlink:href="#ma82dc0999b" y="288"/>
    </g>
   </g>
   <g id="PolyCollection_9">
    <defs>
     <path d="M 370.200329 -238.695651 
L 370.199671 -238.695651 
L 370.198583 -236.748055 
L 370.195028 -234.800459 
L 370.181074 -232.852863 
L 370.132041 -230.905266 
L 370.004805 -228.95767 
L 369.757137 -227.010074 
L 369.367478 -225.062478 
L 368.810395 -223.114882 
L 368.031368 -221.167286 
L 366.980406 -219.21969 
L 365.64358 -217.272094 
L 364.102407 -215.324498 
L 362.803611 -213.376902 
L 362.399729 -211.429305 
L 362.859877 -209.481709 
L 363.617801 -207.534113 
L 364.520536 -205.586517 
L 365.588326 -203.638921 
L 366.550203 -201.691325 
L 367.235 -199.743729 
L 367.726735 -197.796133 
L 368.083713 -195.848537 
L 368.320076 -193.90094 
L 368.508115 -191.953344 
L 368.684635 -190.005748 
L 368.811468 -188.058152 
L 368.905389 -186.110556 
L 369.022789 -184.16296 
L 369.131561 -182.215364 
L 369.147169 -180.267768 
L 369.084128 -178.320172 
L 369.059177 -176.372575 
L 369.141325 -174.424979 
L 369.285747 -172.477383 
L 369.42071 -170.529787 
L 369.528328 -168.582191 
L 369.627219 -166.634595 
L 369.726875 -164.686999 
L 369.829891 -162.739403 
L 369.933766 -160.791807 
L 370.015194 -158.844211 
L 370.046253 -156.896614 
L 370.025425 -154.949018 
L 369.990373 -153.001422 
L 369.984921 -151.053826 
L 370.004317 -149.10623 
L 370.021917 -147.158634 
L 370.027218 -145.211038 
L 370.011523 -143.263442 
L 369.992844 -141.315846 
L 370.019929 -139.368249 
L 370.095241 -137.420653 
L 370.162358 -135.473057 
L 370.191959 -133.525461 
L 370.199001 -131.577865 
L 370.199929 -129.630269 
L 370.199997 -127.682673 
L 370.2 -125.735077 
L 370.2 -123.787481 
L 370.2 -121.839885 
L 370.2 -119.892288 
L 370.2 -117.944692 
L 370.2 -115.997096 
L 370.2 -114.0495 
L 370.2 -112.101904 
L 370.2 -110.154308 
L 370.2 -108.206712 
L 370.2 -106.259116 
L 370.2 -104.31152 
L 370.2 -102.363923 
L 370.2 -100.416327 
L 370.2 -98.468731 
L 370.2 -96.521135 
L 370.2 -94.573539 
L 370.2 -92.625943 
L 370.2 -90.678347 
L 370.2 -88.730751 
L 370.2 -86.783155 
L 370.2 -84.835558 
L 370.2 -82.887962 
L 370.2 -80.940366 
L 370.2 -78.99277 
L 370.2 -77.045174 
L 370.2 -75.097578 
L 370.2 -73.149982 
L 370.2 -71.202386 
L 370.2 -69.25479 
L 370.2 -67.307194 
L 370.2 -65.359597 
L 370.2 -63.412001 
L 370.2 -61.464405 
L 370.199996 -59.516809 
L 370.199955 -57.569213 
L 370.19969 -55.621617 
L 370.198886 -53.674021 
L 370.197886 -51.726425 
L 370.197886 -49.778829 
L 370.198885 -47.831232 
L 370.19969 -45.883636 
L 370.20031 -45.883636 
L 370.20031 -45.883636 
L 370.201115 -47.831232 
L 370.202114 -49.778829 
L 370.202114 -51.726425 
L 370.201114 -53.674021 
L 370.20031 -55.621617 
L 370.200045 -57.569213 
L 370.200004 -59.516809 
L 370.2 -61.464405 
L 370.2 -63.412001 
L 370.2 -65.359597 
L 370.2 -67.307194 
L 370.2 -69.25479 
L 370.2 -71.202386 
L 370.2 -73.149982 
L 370.2 -75.097578 
L 370.2 -77.045174 
L 370.2 -78.99277 
L 370.2 -80.940366 
L 370.2 -82.887962 
L 370.2 -84.835558 
L 370.2 -86.783155 
L 370.2 -88.730751 
L 370.2 -90.678347 
L 370.2 -92.625943 
L 370.2 -94.573539 
L 370.2 -96.521135 
L 370.2 -98.468731 
L 370.2 -100.416327 
L 370.2 -102.363923 
L 370.2 -104.31152 
L 370.2 -106.259116 
L 370.2 -108.206712 
L 370.2 -110.154308 
L 370.2 -112.101904 
L 370.2 -114.0495 
L 370.2 -115.997096 
L 370.2 -117.944692 
L 370.2 -119.892288 
L 370.2 -121.839885 
L 370.2 -123.787481 
L 370.2 -125.735077 
L 370.200003 -127.682673 
L 370.200071 -129.630269 
L 370.200999 -131.577865 
L 370.208041 -133.525461 
L 370.237642 -135.473057 
L 370.304759 -137.420653 
L 370.380071 -139.368249 
L 370.407156 -141.315846 
L 370.388477 -143.263442 
L 370.372782 -145.211038 
L 370.378083 -147.158634 
L 370.395683 -149.10623 
L 370.415079 -151.053826 
L 370.409627 -153.001422 
L 370.374575 -154.949018 
L 370.353747 -156.896614 
L 370.384806 -158.844211 
L 370.466234 -160.791807 
L 370.570109 -162.739403 
L 370.673125 -164.686999 
L 370.772781 -166.634595 
L 370.871672 -168.582191 
L 370.97929 -170.529787 
L 371.114253 -172.477383 
L 371.258675 -174.424979 
L 371.340823 -176.372575 
L 371.315872 -178.320172 
L 371.252831 -180.267768 
L 371.268439 -182.215364 
L 371.377211 -184.16296 
L 371.494611 -186.110556 
L 371.588532 -188.058152 
L 371.715365 -190.005748 
L 371.891885 -191.953344 
L 372.079924 -193.90094 
L 372.316287 -195.848537 
L 372.673265 -197.796133 
L 373.165 -199.743729 
L 373.849797 -201.691325 
L 374.811674 -203.638921 
L 375.879464 -205.586517 
L 376.782199 -207.534113 
L 377.540123 -209.481709 
L 378.000271 -211.429305 
L 377.596389 -213.376902 
L 376.297593 -215.324498 
L 374.75642 -217.272094 
L 373.419594 -219.21969 
L 372.368632 -221.167286 
L 371.589605 -223.114882 
L 371.032522 -225.062478 
L 370.642863 -227.010074 
L 370.395195 -228.95767 
L 370.267959 -230.905266 
L 370.218926 -232.852863 
L 370.204972 -234.800459 
L 370.201417 -236.748055 
L 370.200329 -238.695651 
z
" id="m0b26f11e78" style="stroke:#3d3d3d;stroke-width:1.5;"/>
    </defs>
    <g clip-path="url(#p47b7e574ba)">
     <use style="fill:#a9aa35;stroke:#3d3d3d;stroke-width:1.5;" x="0" xlink:href="#m0b26f11e78" y="288"/>
    </g>
   </g>
   <g id="matplotlib.axis_1">
    <g id="xtick_1">
     <g id="line2d_1">
      <defs>
       <path d="M 0 0 
L 0 3.5 
" id="mf6767ee8ed" style="stroke:#000000;stroke-width:0.8;"/>
      </defs>
      <g>
       <use style="stroke:#000000;stroke-width:0.8;" x="72.6" xlink:href="#mf6767ee8ed" y="252"/>
      </g>
     </g>
     <g id="text_1">
      <!-- FFNND -->
      <g transform="translate(62.4718 288.531652)rotate(-45)scale(0.1 -0.1)">
       <defs>
        <path d="M 9.8125 72.90625 
L 51.703125 72.90625 
L 51.703125 64.59375 
L 19.671875 64.59375 
L 19.671875 43.109375 
L 48.578125 43.109375 
L 48.578125 34.8125 
L 19.671875 34.8125 
L 19.671875 0 
L 9.8125 0 
z
" id="DejaVuSans-70"/>
        <path d="M 9.8125 72.90625 
L 23.09375 72.90625 
L 55.421875 11.921875 
L 55.421875 72.90625 
L 64.984375 72.90625 
L 64.984375 0 
L 51.703125 0 
L 19.390625 60.984375 
L 19.390625 0 
L 9.8125 0 
z
" id="DejaVuSans-78"/>
        <path d="M 19.671875 64.796875 
L 19.671875 8.109375 
L 31.59375 8.109375 
Q 46.6875 8.109375 53.6875 14.9375 
Q 60.6875 21.78125 60.6875 36.53125 
Q 60.6875 51.171875 53.6875 57.984375 
Q 46.6875 64.796875 31.59375 64.796875 
z
M 9.8125 72.90625 
L 30.078125 72.90625 
Q 51.265625 72.90625 61.171875 64.09375 
Q 71.09375 55.28125 71.09375 36.53125 
Q 71.09375 17.671875 61.125 8.828125 
Q 51.171875 0 30.078125 0 
L 9.8125 0 
z
" id="DejaVuSans-68"/>
       </defs>
       <use xlink:href="#DejaVuSans-70"/>
       <use x="57.519531" xlink:href="#DejaVuSans-70"/>
       <use x="115.039062" xlink:href="#DejaVuSans-78"/>
       <use x="189.84375" xlink:href="#DejaVuSans-78"/>
       <use x="264.648438" xlink:href="#DejaVuSans-68"/>
      </g>
     </g>
    </g>
    <g id="xtick_2">
     <g id="line2d_2">
      <g>
       <use style="stroke:#000000;stroke-width:0.8;" x="109.8" xlink:href="#mf6767ee8ed" y="252"/>
      </g>
     </g>
     <g id="text_2">
      <!-- FFNNE -->
      <g transform="translate(100.160146 287.554961)rotate(-45)scale(0.1 -0.1)">
       <defs>
        <path d="M 9.8125 72.90625 
L 55.90625 72.90625 
L 55.90625 64.59375 
L 19.671875 64.59375 
L 19.671875 43.015625 
L 54.390625 43.015625 
L 54.390625 34.71875 
L 19.671875 34.71875 
L 19.671875 8.296875 
L 56.78125 8.296875 
L 56.78125 0 
L 9.8125 0 
z
" id="DejaVuSans-69"/>
       </defs>
       <use xlink:href="#DejaVuSans-70"/>
       <use x="57.519531" xlink:href="#DejaVuSans-70"/>
       <use x="115.039062" xlink:href="#DejaVuSans-78"/>
       <use x="189.84375" xlink:href="#DejaVuSans-78"/>
       <use x="264.648438" xlink:href="#DejaVuSans-69"/>
      </g>
     </g>
    </g>
    <g id="xtick_3">
     <g id="line2d_3">
      <g>
       <use style="stroke:#000000;stroke-width:0.8;" x="147" xlink:href="#mf6767ee8ed" y="252"/>
      </g>
     </g>
     <g id="text_3">
      <!-- FFNNF -->
      <g transform="translate(137.560677 287.153898)rotate(-45)scale(0.1 -0.1)">
       <use xlink:href="#DejaVuSans-70"/>
       <use x="57.519531" xlink:href="#DejaVuSans-70"/>
       <use x="115.039062" xlink:href="#DejaVuSans-78"/>
       <use x="189.84375" xlink:href="#DejaVuSans-78"/>
       <use x="264.648438" xlink:href="#DejaVuSans-70"/>
      </g>
     </g>
    </g>
    <g id="xtick_4">
     <g id="line2d_4">
      <g>
       <use style="stroke:#000000;stroke-width:0.8;" x="184.2" xlink:href="#mf6767ee8ed" y="252"/>
      </g>
     </g>
     <g id="text_4">
      <!-- FFRESG -->
      <g transform="translate(172.409547 291.856159)rotate(-45)scale(0.1 -0.1)">
       <defs>
        <path d="M 44.390625 34.1875 
Q 47.5625 33.109375 50.5625 29.59375 
Q 53.5625 26.078125 56.59375 19.921875 
L 66.609375 0 
L 56 0 
L 46.6875 18.703125 
Q 43.0625 26.03125 39.671875 28.421875 
Q 36.28125 30.8125 30.421875 30.8125 
L 19.671875 30.8125 
L 19.671875 0 
L 9.8125 0 
L 9.8125 72.90625 
L 32.078125 72.90625 
Q 44.578125 72.90625 50.734375 67.671875 
Q 56.890625 62.453125 56.890625 51.90625 
Q 56.890625 45.015625 53.6875 40.46875 
Q 50.484375 35.9375 44.390625 34.1875 
z
M 19.671875 64.796875 
L 19.671875 38.921875 
L 32.078125 38.921875 
Q 39.203125 38.921875 42.84375 42.21875 
Q 46.484375 45.515625 46.484375 51.90625 
Q 46.484375 58.296875 42.84375 61.546875 
Q 39.203125 64.796875 32.078125 64.796875 
z
" id="DejaVuSans-82"/>
        <path d="M 53.515625 70.515625 
L 53.515625 60.890625 
Q 47.90625 63.578125 42.921875 64.890625 
Q 37.9375 66.21875 33.296875 66.21875 
Q 25.25 66.21875 20.875 63.09375 
Q 16.5 59.96875 16.5 54.203125 
Q 16.5 49.359375 19.40625 46.890625 
Q 22.3125 44.4375 30.421875 42.921875 
L 36.375 41.703125 
Q 47.40625 39.59375 52.65625 34.296875 
Q 57.90625 29 57.90625 20.125 
Q 57.90625 9.515625 50.796875 4.046875 
Q 43.703125 -1.421875 29.984375 -1.421875 
Q 24.8125 -1.421875 18.96875 -0.25 
Q 13.140625 0.921875 6.890625 3.21875 
L 6.890625 13.375 
Q 12.890625 10.015625 18.65625 8.296875 
Q 24.421875 6.59375 29.984375 6.59375 
Q 38.421875 6.59375 43.015625 9.90625 
Q 47.609375 13.234375 47.609375 19.390625 
Q 47.609375 24.75 44.3125 27.78125 
Q 41.015625 30.8125 33.5 32.328125 
L 27.484375 33.5 
Q 16.453125 35.6875 11.515625 40.375 
Q 6.59375 45.0625 6.59375 53.421875 
Q 6.59375 63.09375 13.40625 68.65625 
Q 20.21875 74.21875 32.171875 74.21875 
Q 37.3125 74.21875 42.625 73.28125 
Q 47.953125 72.359375 53.515625 70.515625 
z
" id="DejaVuSans-83"/>
        <path d="M 59.515625 10.40625 
L 59.515625 29.984375 
L 43.40625 29.984375 
L 43.40625 38.09375 
L 69.28125 38.09375 
L 69.28125 6.78125 
Q 63.578125 2.734375 56.6875 0.65625 
Q 49.8125 -1.421875 42 -1.421875 
Q 24.90625 -1.421875 15.25 8.5625 
Q 5.609375 18.5625 5.609375 36.375 
Q 5.609375 54.25 15.25 64.234375 
Q 24.90625 74.21875 42 74.21875 
Q 49.125 74.21875 55.546875 72.453125 
Q 61.96875 70.703125 67.390625 67.28125 
L 67.390625 56.78125 
Q 61.921875 61.421875 55.765625 63.765625 
Q 49.609375 66.109375 42.828125 66.109375 
Q 29.4375 66.109375 22.71875 58.640625 
Q 16.015625 51.171875 16.015625 36.375 
Q 16.015625 21.625 22.71875 14.15625 
Q 29.4375 6.6875 42.828125 6.6875 
Q 48.046875 6.6875 52.140625 7.59375 
Q 56.25 8.5 59.515625 10.40625 
z
" id="DejaVuSans-71"/>
       </defs>
       <use xlink:href="#DejaVuSans-70"/>
       <use x="57.519531" xlink:href="#DejaVuSans-70"/>
       <use x="115.039062" xlink:href="#DejaVuSans-82"/>
       <use x="184.521484" xlink:href="#DejaVuSans-69"/>
       <use x="247.705078" xlink:href="#DejaVuSans-83"/>
       <use x="311.181641" xlink:href="#DejaVuSans-71"/>
      </g>
     </g>
    </g>
    <g id="xtick_5">
     <g id="line2d_5">
      <g>
       <use style="stroke:#000000;stroke-width:0.8;" x="221.4" xlink:href="#mf6767ee8ed" y="252"/>
      </g>
     </g>
     <g id="text_5">
      <!-- FFRESH -->
      <g transform="translate(209.690201 291.69485)rotate(-45)scale(0.1 -0.1)">
       <defs>
        <path d="M 9.8125 72.90625 
L 19.671875 72.90625 
L 19.671875 43.015625 
L 55.515625 43.015625 
L 55.515625 72.90625 
L 65.375 72.90625 
L 65.375 0 
L 55.515625 0 
L 55.515625 34.71875 
L 19.671875 34.71875 
L 19.671875 0 
L 9.8125 0 
z
" id="DejaVuSans-72"/>
       </defs>
       <use xlink:href="#DejaVuSans-70"/>
       <use x="57.519531" xlink:href="#DejaVuSans-70"/>
       <use x="115.039062" xlink:href="#DejaVuSans-82"/>
       <use x="184.521484" xlink:href="#DejaVuSans-69"/>
       <use x="247.705078" xlink:href="#DejaVuSans-83"/>
       <use x="311.181641" xlink:href="#DejaVuSans-72"/>
      </g>
     </g>
    </g>
    <g id="xtick_6">
     <g id="line2d_6">
      <g>
       <use style="stroke:#000000;stroke-width:0.8;" x="258.6" xlink:href="#mf6767ee8ed" y="252"/>
      </g>
     </g>
     <g id="text_6">
      <!-- FFRESI -->
      <g transform="translate(248.506051 288.463151)rotate(-45)scale(0.1 -0.1)">
       <defs>
        <path d="M 9.8125 72.90625 
L 19.671875 72.90625 
L 19.671875 0 
L 9.8125 0 
z
" id="DejaVuSans-73"/>
       </defs>
       <use xlink:href="#DejaVuSans-70"/>
       <use x="57.519531" xlink:href="#DejaVuSans-70"/>
       <use x="115.039062" xlink:href="#DejaVuSans-82"/>
       <use x="184.521484" xlink:href="#DejaVuSans-69"/>
       <use x="247.705078" xlink:href="#DejaVuSans-83"/>
       <use x="311.181641" xlink:href="#DejaVuSans-73"/>
      </g>
     </g>
    </g>
    <g id="xtick_7">
     <g id="line2d_7">
      <g>
       <use style="stroke:#000000;stroke-width:0.8;" x="295.8" xlink:href="#mf6767ee8ed" y="252"/>
      </g>
     </g>
     <g id="text_7">
      <!-- FFDAMA -->
      <g transform="translate(283.136159 293.602933)rotate(-45)scale(0.1 -0.1)">
       <defs>
        <path d="M 34.1875 63.1875 
L 20.796875 26.90625 
L 47.609375 26.90625 
z
M 28.609375 72.90625 
L 39.796875 72.90625 
L 67.578125 0 
L 57.328125 0 
L 50.6875 18.703125 
L 17.828125 18.703125 
L 11.1875 0 
L 0.78125 0 
z
" id="DejaVuSans-65"/>
        <path d="M 9.8125 72.90625 
L 24.515625 72.90625 
L 43.109375 23.296875 
L 61.8125 72.90625 
L 76.515625 72.90625 
L 76.515625 0 
L 66.890625 0 
L 66.890625 64.015625 
L 48.09375 14.015625 
L 38.1875 14.015625 
L 19.390625 64.015625 
L 19.390625 0 
L 9.8125 0 
z
" id="DejaVuSans-77"/>
       </defs>
       <use xlink:href="#DejaVuSans-70"/>
       <use x="57.519531" xlink:href="#DejaVuSans-70"/>
       <use x="115.039062" xlink:href="#DejaVuSans-68"/>
       <use x="190.291016" xlink:href="#DejaVuSans-65"/>
       <use x="258.699219" xlink:href="#DejaVuSans-77"/>
       <use x="344.978516" xlink:href="#DejaVuSans-65"/>
      </g>
     </g>
    </g>
    <g id="xtick_8">
     <g id="line2d_8">
      <g>
       <use style="stroke:#000000;stroke-width:0.8;" x="333" xlink:href="#mf6767ee8ed" y="252"/>
      </g>
     </g>
     <g id="text_8">
      <!-- FFDAMB -->
      <g transform="translate(320.328978 293.617296)rotate(-45)scale(0.1 -0.1)">
       <defs>
        <path d="M 19.671875 34.8125 
L 19.671875 8.109375 
L 35.5 8.109375 
Q 43.453125 8.109375 47.28125 11.40625 
Q 51.125 14.703125 51.125 21.484375 
Q 51.125 28.328125 47.28125 31.5625 
Q 43.453125 34.8125 35.5 34.8125 
z
M 19.671875 64.796875 
L 19.671875 42.828125 
L 34.28125 42.828125 
Q 41.5 42.828125 45.03125 45.53125 
Q 48.578125 48.25 48.578125 53.8125 
Q 48.578125 59.328125 45.03125 62.0625 
Q 41.5 64.796875 34.28125 64.796875 
z
M 9.8125 72.90625 
L 35.015625 72.90625 
Q 46.296875 72.90625 52.390625 68.21875 
Q 58.5 63.53125 58.5 54.890625 
Q 58.5 48.1875 55.375 44.234375 
Q 52.25 40.28125 46.1875 39.3125 
Q 53.46875 37.75 57.5 32.78125 
Q 61.53125 27.828125 61.53125 20.40625 
Q 61.53125 10.640625 54.890625 5.3125 
Q 48.25 0 35.984375 0 
L 9.8125 0 
z
" id="DejaVuSans-66"/>
       </defs>
       <use xlink:href="#DejaVuSans-70"/>
       <use x="57.519531" xlink:href="#DejaVuSans-70"/>
       <use x="115.039062" xlink:href="#DejaVuSans-68"/>
       <use x="190.291016" xlink:href="#DejaVuSans-65"/>
       <use x="258.699219" xlink:href="#DejaVuSans-77"/>
       <use x="344.978516" xlink:href="#DejaVuSans-66"/>
      </g>
     </g>
    </g>
    <g id="xtick_9">
     <g id="line2d_9">
      <g>
       <use style="stroke:#000000;stroke-width:0.8;" x="370.2" xlink:href="#mf6767ee8ed" y="252"/>
      </g>
     </g>
     <g id="text_9">
      <!-- FFDAMC -->
      <g transform="translate(357.485889 293.703475)rotate(-45)scale(0.1 -0.1)">
       <defs>
        <path d="M 64.40625 67.28125 
L 64.40625 56.890625 
Q 59.421875 61.53125 53.78125 63.8125 
Q 48.140625 66.109375 41.796875 66.109375 
Q 29.296875 66.109375 22.65625 58.46875 
Q 16.015625 50.828125 16.015625 36.375 
Q 16.015625 21.96875 22.65625 14.328125 
Q 29.296875 6.6875 41.796875 6.6875 
Q 48.140625 6.6875 53.78125 8.984375 
Q 59.421875 11.28125 64.40625 15.921875 
L 64.40625 5.609375 
Q 59.234375 2.09375 53.4375 0.328125 
Q 47.65625 -1.421875 41.21875 -1.421875 
Q 24.65625 -1.421875 15.125 8.703125 
Q 5.609375 18.84375 5.609375 36.375 
Q 5.609375 53.953125 15.125 64.078125 
Q 24.65625 74.21875 41.21875 74.21875 
Q 47.75 74.21875 53.53125 72.484375 
Q 59.328125 70.75 64.40625 67.28125 
z
" id="DejaVuSans-67"/>
       </defs>
       <use xlink:href="#DejaVuSans-70"/>
       <use x="57.519531" xlink:href="#DejaVuSans-70"/>
       <use x="115.039062" xlink:href="#DejaVuSans-68"/>
       <use x="190.291016" xlink:href="#DejaVuSans-65"/>
       <use x="258.699219" xlink:href="#DejaVuSans-77"/>
       <use x="344.978516" xlink:href="#DejaVuSans-67"/>
      </g>
     </g>
    </g>
    <g id="text_10">
     <!-- Water logger ID -->
     <g transform="translate(182.186719 306.772474)scale(0.1 -0.1)">
      <defs>
       <path d="M 3.328125 72.90625 
L 13.28125 72.90625 
L 28.609375 11.28125 
L 43.890625 72.90625 
L 54.984375 72.90625 
L 70.3125 11.28125 
L 85.59375 72.90625 
L 95.609375 72.90625 
L 77.296875 0 
L 64.890625 0 
L 49.515625 63.28125 
L 33.984375 0 
L 21.578125 0 
z
" id="DejaVuSans-87"/>
       <path d="M 34.28125 27.484375 
Q 23.390625 27.484375 19.1875 25 
Q 14.984375 22.515625 14.984375 16.5 
Q 14.984375 11.71875 18.140625 8.90625 
Q 21.296875 6.109375 26.703125 6.109375 
Q 34.1875 6.109375 38.703125 11.40625 
Q 43.21875 16.703125 43.21875 25.484375 
L 43.21875 27.484375 
z
M 52.203125 31.203125 
L 52.203125 0 
L 43.21875 0 
L 43.21875 8.296875 
Q 40.140625 3.328125 35.546875 0.953125 
Q 30.953125 -1.421875 24.3125 -1.421875 
Q 15.921875 -1.421875 10.953125 3.296875 
Q 6 8.015625 6 15.921875 
Q 6 25.140625 12.171875 29.828125 
Q 18.359375 34.515625 30.609375 34.515625 
L 43.21875 34.515625 
L 43.21875 35.40625 
Q 43.21875 41.609375 39.140625 45 
Q 35.0625 48.390625 27.6875 48.390625 
Q 23 48.390625 18.546875 47.265625 
Q 14.109375 46.140625 10.015625 43.890625 
L 10.015625 52.203125 
Q 14.9375 54.109375 19.578125 55.046875 
Q 24.21875 56 28.609375 56 
Q 40.484375 56 46.34375 49.84375 
Q 52.203125 43.703125 52.203125 31.203125 
z
" id="DejaVuSans-97"/>
       <path d="M 18.3125 70.21875 
L 18.3125 54.6875 
L 36.8125 54.6875 
L 36.8125 47.703125 
L 18.3125 47.703125 
L 18.3125 18.015625 
Q 18.3125 11.328125 20.140625 9.421875 
Q 21.96875 7.515625 27.59375 7.515625 
L 36.8125 7.515625 
L 36.8125 0 
L 27.59375 0 
Q 17.1875 0 13.234375 3.875 
Q 9.28125 7.765625 9.28125 18.015625 
L 9.28125 47.703125 
L 2.6875 47.703125 
L 2.6875 54.6875 
L 9.28125 54.6875 
L 9.28125 70.21875 
z
" id="DejaVuSans-116"/>
       <path d="M 56.203125 29.59375 
L 56.203125 25.203125 
L 14.890625 25.203125 
Q 15.484375 15.921875 20.484375 11.0625 
Q 25.484375 6.203125 34.421875 6.203125 
Q 39.59375 6.203125 44.453125 7.46875 
Q 49.3125 8.734375 54.109375 11.28125 
L 54.109375 2.78125 
Q 49.265625 0.734375 44.1875 -0.34375 
Q 39.109375 -1.421875 33.890625 -1.421875 
Q 20.796875 -1.421875 13.15625 6.1875 
Q 5.515625 13.8125 5.515625 26.8125 
Q 5.515625 40.234375 12.765625 48.109375 
Q 20.015625 56 32.328125 56 
Q 43.359375 56 49.78125 48.890625 
Q 56.203125 41.796875 56.203125 29.59375 
z
M 47.21875 32.234375 
Q 47.125 39.59375 43.09375 43.984375 
Q 39.0625 48.390625 32.421875 48.390625 
Q 24.90625 48.390625 20.390625 44.140625 
Q 15.875 39.890625 15.1875 32.171875 
z
" id="DejaVuSans-101"/>
       <path d="M 41.109375 46.296875 
Q 39.59375 47.171875 37.8125 47.578125 
Q 36.03125 48 33.890625 48 
Q 26.265625 48 22.1875 43.046875 
Q 18.109375 38.09375 18.109375 28.8125 
L 18.109375 0 
L 9.078125 0 
L 9.078125 54.6875 
L 18.109375 54.6875 
L 18.109375 46.1875 
Q 20.953125 51.171875 25.484375 53.578125 
Q 30.03125 56 36.53125 56 
Q 37.453125 56 38.578125 55.875 
Q 39.703125 55.765625 41.0625 55.515625 
z
" id="DejaVuSans-114"/>
       <path id="DejaVuSans-32"/>
       <path d="M 9.421875 75.984375 
L 18.40625 75.984375 
L 18.40625 0 
L 9.421875 0 
z
" id="DejaVuSans-108"/>
       <path d="M 30.609375 48.390625 
Q 23.390625 48.390625 19.1875 42.75 
Q 14.984375 37.109375 14.984375 27.296875 
Q 14.984375 17.484375 19.15625 11.84375 
Q 23.34375 6.203125 30.609375 6.203125 
Q 37.796875 6.203125 41.984375 11.859375 
Q 46.1875 17.53125 46.1875 27.296875 
Q 46.1875 37.015625 41.984375 42.703125 
Q 37.796875 48.390625 30.609375 48.390625 
z
M 30.609375 56 
Q 42.328125 56 49.015625 48.375 
Q 55.71875 40.765625 55.71875 27.296875 
Q 55.71875 13.875 49.015625 6.21875 
Q 42.328125 -1.421875 30.609375 -1.421875 
Q 18.84375 -1.421875 12.171875 6.21875 
Q 5.515625 13.875 5.515625 27.296875 
Q 5.515625 40.765625 12.171875 48.375 
Q 18.84375 56 30.609375 56 
z
" id="DejaVuSans-111"/>
       <path d="M 45.40625 27.984375 
Q 45.40625 37.75 41.375 43.109375 
Q 37.359375 48.484375 30.078125 48.484375 
Q 22.859375 48.484375 18.828125 43.109375 
Q 14.796875 37.75 14.796875 27.984375 
Q 14.796875 18.265625 18.828125 12.890625 
Q 22.859375 7.515625 30.078125 7.515625 
Q 37.359375 7.515625 41.375 12.890625 
Q 45.40625 18.265625 45.40625 27.984375 
z
M 54.390625 6.78125 
Q 54.390625 -7.171875 48.1875 -13.984375 
Q 42 -20.796875 29.203125 -20.796875 
Q 24.46875 -20.796875 20.265625 -20.09375 
Q 16.0625 -19.390625 12.109375 -17.921875 
L 12.109375 -9.1875 
Q 16.0625 -11.328125 19.921875 -12.34375 
Q 23.78125 -13.375 27.78125 -13.375 
Q 36.625 -13.375 41.015625 -8.765625 
Q 45.40625 -4.15625 45.40625 5.171875 
L 45.40625 9.625 
Q 42.625 4.78125 38.28125 2.390625 
Q 33.9375 0 27.875 0 
Q 17.828125 0 11.671875 7.65625 
Q 5.515625 15.328125 5.515625 27.984375 
Q 5.515625 40.671875 11.671875 48.328125 
Q 17.828125 56 27.875 56 
Q 33.9375 56 38.28125 53.609375 
Q 42.625 51.21875 45.40625 46.390625 
L 45.40625 54.6875 
L 54.390625 54.6875 
z
" id="DejaVuSans-103"/>
      </defs>
      <use xlink:href="#DejaVuSans-87"/>
      <use x="92.501953" xlink:href="#DejaVuSans-97"/>
      <use x="153.78125" xlink:href="#DejaVuSans-116"/>
      <use x="192.990234" xlink:href="#DejaVuSans-101"/>
      <use x="254.513672" xlink:href="#DejaVuSans-114"/>
      <use x="295.626953" xlink:href="#DejaVuSans-32"/>
      <use x="327.414062" xlink:href="#DejaVuSans-108"/>
      <use x="355.197266" xlink:href="#DejaVuSans-111"/>
      <use x="416.378906" xlink:href="#DejaVuSans-103"/>
      <use x="479.855469" xlink:href="#DejaVuSans-103"/>
      <use x="543.332031" xlink:href="#DejaVuSans-101"/>
      <use x="604.855469" xlink:href="#DejaVuSans-114"/>
      <use x="645.96875" xlink:href="#DejaVuSans-32"/>
      <use x="677.755859" xlink:href="#DejaVuSans-73"/>
      <use x="707.248047" xlink:href="#DejaVuSans-68"/>
     </g>
    </g>
   </g>
   <g id="matplotlib.axis_2">
    <g id="ytick_1">
     <g id="line2d_10">
      <defs>
       <path d="M 0 0 
L -3.5 0 
" id="m6c6952770d" style="stroke:#000000;stroke-width:0.8;"/>
      </defs>
      <g>
       <use style="stroke:#000000;stroke-width:0.8;" x="54" xlink:href="#m6c6952770d" y="57.244079"/>
      </g>
     </g>
     <g id="text_11">
      <!-- 0 -->
      <g transform="translate(40.6375 61.043298)scale(0.1 -0.1)">
       <defs>
        <path d="M 31.78125 66.40625 
Q 24.171875 66.40625 20.328125 58.90625 
Q 16.5 51.421875 16.5 36.375 
Q 16.5 21.390625 20.328125 13.890625 
Q 24.171875 6.390625 31.78125 6.390625 
Q 39.453125 6.390625 43.28125 13.890625 
Q 47.125 21.390625 47.125 36.375 
Q 47.125 51.421875 43.28125 58.90625 
Q 39.453125 66.40625 31.78125 66.40625 
z
M 31.78125 74.21875 
Q 44.046875 74.21875 50.515625 64.515625 
Q 56.984375 54.828125 56.984375 36.375 
Q 56.984375 17.96875 50.515625 8.265625 
Q 44.046875 -1.421875 31.78125 -1.421875 
Q 19.53125 -1.421875 13.0625 8.265625 
Q 6.59375 17.96875 6.59375 36.375 
Q 6.59375 54.828125 13.0625 64.515625 
Q 19.53125 74.21875 31.78125 74.21875 
z
" id="DejaVuSans-48"/>
       </defs>
       <use xlink:href="#DejaVuSans-48"/>
      </g>
     </g>
    </g>
    <g id="ytick_2">
     <g id="line2d_11">
      <g>
       <use style="stroke:#000000;stroke-width:0.8;" x="54" xlink:href="#m6c6952770d" y="96.117961"/>
      </g>
     </g>
     <g id="text_12">
      <!-- 200 -->
      <g transform="translate(27.9125 99.91718)scale(0.1 -0.1)">
       <defs>
        <path d="M 19.1875 8.296875 
L 53.609375 8.296875 
L 53.609375 0 
L 7.328125 0 
L 7.328125 8.296875 
Q 12.9375 14.109375 22.625 23.890625 
Q 32.328125 33.6875 34.8125 36.53125 
Q 39.546875 41.84375 41.421875 45.53125 
Q 43.3125 49.21875 43.3125 52.78125 
Q 43.3125 58.59375 39.234375 62.25 
Q 35.15625 65.921875 28.609375 65.921875 
Q 23.96875 65.921875 18.8125 64.3125 
Q 13.671875 62.703125 7.8125 59.421875 
L 7.8125 69.390625 
Q 13.765625 71.78125 18.9375 73 
Q 24.125 74.21875 28.421875 74.21875 
Q 39.75 74.21875 46.484375 68.546875 
Q 53.21875 62.890625 53.21875 53.421875 
Q 53.21875 48.921875 51.53125 44.890625 
Q 49.859375 40.875 45.40625 35.40625 
Q 44.1875 33.984375 37.640625 27.21875 
Q 31.109375 20.453125 19.1875 8.296875 
z
" id="DejaVuSans-50"/>
       </defs>
       <use xlink:href="#DejaVuSans-50"/>
       <use x="63.623047" xlink:href="#DejaVuSans-48"/>
       <use x="127.246094" xlink:href="#DejaVuSans-48"/>
      </g>
     </g>
    </g>
    <g id="ytick_3">
     <g id="line2d_12">
      <g>
       <use style="stroke:#000000;stroke-width:0.8;" x="54" xlink:href="#m6c6952770d" y="134.991843"/>
      </g>
     </g>
     <g id="text_13">
      <!-- 400 -->
      <g transform="translate(27.9125 138.791062)scale(0.1 -0.1)">
       <defs>
        <path d="M 37.796875 64.3125 
L 12.890625 25.390625 
L 37.796875 25.390625 
z
M 35.203125 72.90625 
L 47.609375 72.90625 
L 47.609375 25.390625 
L 58.015625 25.390625 
L 58.015625 17.1875 
L 47.609375 17.1875 
L 47.609375 0 
L 37.796875 0 
L 37.796875 17.1875 
L 4.890625 17.1875 
L 4.890625 26.703125 
z
" id="DejaVuSans-52"/>
       </defs>
       <use xlink:href="#DejaVuSans-52"/>
       <use x="63.623047" xlink:href="#DejaVuSans-48"/>
       <use x="127.246094" xlink:href="#DejaVuSans-48"/>
      </g>
     </g>
    </g>
    <g id="ytick_4">
     <g id="line2d_13">
      <g>
       <use style="stroke:#000000;stroke-width:0.8;" x="54" xlink:href="#m6c6952770d" y="173.865725"/>
      </g>
     </g>
     <g id="text_14">
      <!-- 600 -->
      <g transform="translate(27.9125 177.664944)scale(0.1 -0.1)">
       <defs>
        <path d="M 33.015625 40.375 
Q 26.375 40.375 22.484375 35.828125 
Q 18.609375 31.296875 18.609375 23.390625 
Q 18.609375 15.53125 22.484375 10.953125 
Q 26.375 6.390625 33.015625 6.390625 
Q 39.65625 6.390625 43.53125 10.953125 
Q 47.40625 15.53125 47.40625 23.390625 
Q 47.40625 31.296875 43.53125 35.828125 
Q 39.65625 40.375 33.015625 40.375 
z
M 52.59375 71.296875 
L 52.59375 62.3125 
Q 48.875 64.0625 45.09375 64.984375 
Q 41.3125 65.921875 37.59375 65.921875 
Q 27.828125 65.921875 22.671875 59.328125 
Q 17.53125 52.734375 16.796875 39.40625 
Q 19.671875 43.65625 24.015625 45.921875 
Q 28.375 48.1875 33.59375 48.1875 
Q 44.578125 48.1875 50.953125 41.515625 
Q 57.328125 34.859375 57.328125 23.390625 
Q 57.328125 12.15625 50.6875 5.359375 
Q 44.046875 -1.421875 33.015625 -1.421875 
Q 20.359375 -1.421875 13.671875 8.265625 
Q 6.984375 17.96875 6.984375 36.375 
Q 6.984375 53.65625 15.1875 63.9375 
Q 23.390625 74.21875 37.203125 74.21875 
Q 40.921875 74.21875 44.703125 73.484375 
Q 48.484375 72.75 52.59375 71.296875 
z
" id="DejaVuSans-54"/>
       </defs>
       <use xlink:href="#DejaVuSans-54"/>
       <use x="63.623047" xlink:href="#DejaVuSans-48"/>
       <use x="127.246094" xlink:href="#DejaVuSans-48"/>
      </g>
     </g>
    </g>
    <g id="ytick_5">
     <g id="line2d_14">
      <g>
       <use style="stroke:#000000;stroke-width:0.8;" x="54" xlink:href="#m6c6952770d" y="212.739607"/>
      </g>
     </g>
     <g id="text_15">
      <!-- 800 -->
      <g transform="translate(27.9125 216.538826)scale(0.1 -0.1)">
       <defs>
        <path d="M 31.78125 34.625 
Q 24.75 34.625 20.71875 30.859375 
Q 16.703125 27.09375 16.703125 20.515625 
Q 16.703125 13.921875 20.71875 10.15625 
Q 24.75 6.390625 31.78125 6.390625 
Q 38.8125 6.390625 42.859375 10.171875 
Q 46.921875 13.96875 46.921875 20.515625 
Q 46.921875 27.09375 42.890625 30.859375 
Q 38.875 34.625 31.78125 34.625 
z
M 21.921875 38.8125 
Q 15.578125 40.375 12.03125 44.71875 
Q 8.5 49.078125 8.5 55.328125 
Q 8.5 64.0625 14.71875 69.140625 
Q 20.953125 74.21875 31.78125 74.21875 
Q 42.671875 74.21875 48.875 69.140625 
Q 55.078125 64.0625 55.078125 55.328125 
Q 55.078125 49.078125 51.53125 44.71875 
Q 48 40.375 41.703125 38.8125 
Q 48.828125 37.15625 52.796875 32.3125 
Q 56.78125 27.484375 56.78125 20.515625 
Q 56.78125 9.90625 50.3125 4.234375 
Q 43.84375 -1.421875 31.78125 -1.421875 
Q 19.734375 -1.421875 13.25 4.234375 
Q 6.78125 9.90625 6.78125 20.515625 
Q 6.78125 27.484375 10.78125 32.3125 
Q 14.796875 37.15625 21.921875 38.8125 
z
M 18.3125 54.390625 
Q 18.3125 48.734375 21.84375 45.5625 
Q 25.390625 42.390625 31.78125 42.390625 
Q 38.140625 42.390625 41.71875 45.5625 
Q 45.3125 48.734375 45.3125 54.390625 
Q 45.3125 60.0625 41.71875 63.234375 
Q 38.140625 66.40625 31.78125 66.40625 
Q 25.390625 66.40625 21.84375 63.234375 
Q 18.3125 60.0625 18.3125 54.390625 
z
" id="DejaVuSans-56"/>
       </defs>
       <use xlink:href="#DejaVuSans-56"/>
       <use x="63.623047" xlink:href="#DejaVuSans-48"/>
       <use x="127.246094" xlink:href="#DejaVuSans-48"/>
      </g>
     </g>
    </g>
    <g id="ytick_6">
     <g id="line2d_15">
      <g>
       <use style="stroke:#000000;stroke-width:0.8;" x="54" xlink:href="#m6c6952770d" y="251.613489"/>
      </g>
     </g>
     <g id="text_16">
      <!-- 1000 -->
      <g transform="translate(21.55 255.412708)scale(0.1 -0.1)">
       <defs>
        <path d="M 12.40625 8.296875 
L 28.515625 8.296875 
L 28.515625 63.921875 
L 10.984375 60.40625 
L 10.984375 69.390625 
L 28.421875 72.90625 
L 38.28125 72.90625 
L 38.28125 8.296875 
L 54.390625 8.296875 
L 54.390625 0 
L 12.40625 0 
z
" id="DejaVuSans-49"/>
       </defs>
       <use xlink:href="#DejaVuSans-49"/>
       <use x="63.623047" xlink:href="#DejaVuSans-48"/>
       <use x="127.246094" xlink:href="#DejaVuSans-48"/>
       <use x="190.869141" xlink:href="#DejaVuSans-48"/>
      </g>
     </g>
    </g>
    <g id="text_17">
     <!-- WTD(mm) -->
     <g transform="translate(15.470312 168.769844)rotate(-90)scale(0.1 -0.1)">
      <defs>
       <path d="M -0.296875 72.90625 
L 61.375 72.90625 
L 61.375 64.59375 
L 35.5 64.59375 
L 35.5 0 
L 25.59375 0 
L 25.59375 64.59375 
L -0.296875 64.59375 
z
" id="DejaVuSans-84"/>
       <path d="M 31 75.875 
Q 24.46875 64.65625 21.28125 53.65625 
Q 18.109375 42.671875 18.109375 31.390625 
Q 18.109375 20.125 21.3125 9.0625 
Q 24.515625 -2 31 -13.1875 
L 23.1875 -13.1875 
Q 15.875 -1.703125 12.234375 9.375 
Q 8.59375 20.453125 8.59375 31.390625 
Q 8.59375 42.28125 12.203125 53.3125 
Q 15.828125 64.359375 23.1875 75.875 
z
" id="DejaVuSans-40"/>
       <path d="M 52 44.1875 
Q 55.375 50.25 60.0625 53.125 
Q 64.75 56 71.09375 56 
Q 79.640625 56 84.28125 50.015625 
Q 88.921875 44.046875 88.921875 33.015625 
L 88.921875 0 
L 79.890625 0 
L 79.890625 32.71875 
Q 79.890625 40.578125 77.09375 44.375 
Q 74.3125 48.1875 68.609375 48.1875 
Q 61.625 48.1875 57.5625 43.546875 
Q 53.515625 38.921875 53.515625 30.90625 
L 53.515625 0 
L 44.484375 0 
L 44.484375 32.71875 
Q 44.484375 40.625 41.703125 44.40625 
Q 38.921875 48.1875 33.109375 48.1875 
Q 26.21875 48.1875 22.15625 43.53125 
Q 18.109375 38.875 18.109375 30.90625 
L 18.109375 0 
L 9.078125 0 
L 9.078125 54.6875 
L 18.109375 54.6875 
L 18.109375 46.1875 
Q 21.1875 51.21875 25.484375 53.609375 
Q 29.78125 56 35.6875 56 
Q 41.65625 56 45.828125 52.96875 
Q 50 49.953125 52 44.1875 
z
" id="DejaVuSans-109"/>
       <path d="M 8.015625 75.875 
L 15.828125 75.875 
Q 23.140625 64.359375 26.78125 53.3125 
Q 30.421875 42.28125 30.421875 31.390625 
Q 30.421875 20.453125 26.78125 9.375 
Q 23.140625 -1.703125 15.828125 -13.1875 
L 8.015625 -13.1875 
Q 14.5 -2 17.703125 9.0625 
Q 20.90625 20.125 20.90625 31.390625 
Q 20.90625 42.671875 17.703125 53.65625 
Q 14.5 64.65625 8.015625 75.875 
z
" id="DejaVuSans-41"/>
      </defs>
      <use xlink:href="#DejaVuSans-87"/>
      <use x="98.876953" xlink:href="#DejaVuSans-84"/>
      <use x="159.960938" xlink:href="#DejaVuSans-68"/>
      <use x="236.962891" xlink:href="#DejaVuSans-40"/>
      <use x="275.976562" xlink:href="#DejaVuSans-109"/>
      <use x="373.388672" xlink:href="#DejaVuSans-109"/>
      <use x="470.800781" xlink:href="#DejaVuSans-41"/>
     </g>
    </g>
   </g>
   <g id="line2d_16">
    <path clip-path="url(#p47b7e574ba)" d="M 72.6 60.099362 
L 72.6 101.367105 
" style="fill:none;stroke:#3d3d3d;stroke-linecap:square;stroke-width:1.5;"/>
   </g>
   <g id="line2d_17">
    <path clip-path="url(#p47b7e574ba)" d="M 72.6 70.872983 
L 72.6 83.074926 
" style="fill:none;stroke:#3d3d3d;stroke-linecap:square;stroke-width:4.5;"/>
   </g>
   <g id="line2d_18">
    <path clip-path="url(#p47b7e574ba)" d="M 109.8 63.947818 
L 109.8 102.169848 
" style="fill:none;stroke:#3d3d3d;stroke-linecap:square;stroke-width:1.5;"/>
   </g>
   <g id="line2d_19">
    <path clip-path="url(#p47b7e574ba)" d="M 109.8 74.037831 
L 109.8 85.296346 
" style="fill:none;stroke:#3d3d3d;stroke-linecap:square;stroke-width:4.5;"/>
   </g>
   <g id="line2d_20">
    <path clip-path="url(#p47b7e574ba)" d="M 147 48.197437 
L 147 86.834864 
" style="fill:none;stroke:#3d3d3d;stroke-linecap:square;stroke-width:1.5;"/>
   </g>
   <g id="line2d_21">
    <path clip-path="url(#p47b7e574ba)" d="M 147 59.704278 
L 147 70.558296 
" style="fill:none;stroke:#3d3d3d;stroke-linecap:square;stroke-width:4.5;"/>
   </g>
   <g id="line2d_22">
    <path clip-path="url(#p47b7e574ba)" d="M 184.2 66.717972 
L 184.2 126.866703 
" style="fill:none;stroke:#3d3d3d;stroke-linecap:square;stroke-width:1.5;"/>
   </g>
   <g id="line2d_23">
    <path clip-path="url(#p47b7e574ba)" d="M 184.2 76.255511 
L 184.2 96.514151 
" style="fill:none;stroke:#3d3d3d;stroke-linecap:square;stroke-width:4.5;"/>
   </g>
   <g id="line2d_24">
    <path clip-path="url(#p47b7e574ba)" d="M 221.4 57.332913 
L 221.4 104.336933 
" style="fill:none;stroke:#3d3d3d;stroke-linecap:square;stroke-width:1.5;"/>
   </g>
   <g id="line2d_25">
    <path clip-path="url(#p47b7e574ba)" d="M 221.4 67.18484 
L 221.4 82.051121 
" style="fill:none;stroke:#3d3d3d;stroke-linecap:square;stroke-width:4.5;"/>
   </g>
   <g id="line2d_26">
    <path clip-path="url(#p47b7e574ba)" d="M 258.6 54.237056 
L 258.6 117.972678 
" style="fill:none;stroke:#3d3d3d;stroke-linecap:square;stroke-width:1.5;"/>
   </g>
   <g id="line2d_27">
    <path clip-path="url(#p47b7e574ba)" d="M 258.6 63.74414 
L 258.6 85.437709 
" style="fill:none;stroke:#3d3d3d;stroke-linecap:square;stroke-width:4.5;"/>
   </g>
   <g id="line2d_28">
    <path clip-path="url(#p47b7e574ba)" d="M 295.8 62.302538 
L 295.8 111.010953 
" style="fill:none;stroke:#3d3d3d;stroke-linecap:square;stroke-width:1.5;"/>
   </g>
   <g id="line2d_29">
    <path clip-path="url(#p47b7e574ba)" d="M 295.8 80.568623 
L 295.8 92.746585 
" style="fill:none;stroke:#3d3d3d;stroke-linecap:square;stroke-width:4.5;"/>
   </g>
   <g id="line2d_30">
    <path clip-path="url(#p47b7e574ba)" d="M 333 69.9997 
L 333 112.071811 
" style="fill:none;stroke:#3d3d3d;stroke-linecap:square;stroke-width:1.5;"/>
   </g>
   <g id="line2d_31">
    <path clip-path="url(#p47b7e574ba)" d="M 333 85.66665 
L 333 96.235281 
" style="fill:none;stroke:#3d3d3d;stroke-linecap:square;stroke-width:4.5;"/>
   </g>
   <g id="line2d_32">
    <path clip-path="url(#p47b7e574ba)" d="M 370.2 54.172895 
L 370.2 115.34664 
" style="fill:none;stroke:#3d3d3d;stroke-linecap:square;stroke-width:1.5;"/>
   </g>
   <g id="line2d_33">
    <path clip-path="url(#p47b7e574ba)" d="M 370.2 74.884323 
L 370.2 91.072632 
" style="fill:none;stroke:#3d3d3d;stroke-linecap:square;stroke-width:4.5;"/>
   </g>
   <g id="line2d_34">
    <path clip-path="url(#p47b7e574ba)" d="M 54 57.244079 
L 388.8 57.244079 
" style="fill:none;stroke:#000000;stroke-dasharray:1.85,0.8;stroke-dashoffset:0;stroke-width:0.5;"/>
   </g>
   <g id="patch_3">
    <path d="M 54 252 
L 54 34.56 
" style="fill:none;stroke:#000000;stroke-linecap:square;stroke-linejoin:miter;stroke-width:0.8;"/>
   </g>
   <g id="patch_4">
    <path d="M 388.8 252 
L 388.8 34.56 
" style="fill:none;stroke:#000000;stroke-linecap:square;stroke-linejoin:miter;stroke-width:0.8;"/>
   </g>
   <g id="patch_5">
    <path d="M 54 252 
L 388.8 252 
" style="fill:none;stroke:#000000;stroke-linecap:square;stroke-linejoin:miter;stroke-width:0.8;"/>
   </g>
   <g id="patch_6">
    <path d="M 54 34.56 
L 388.8 34.56 
" style="fill:none;stroke:#000000;stroke-linecap:square;stroke-linejoin:miter;stroke-width:0.8;"/>
   </g>
   <g id="PathCollection_1">
    <defs>
     <path d="M 0 1.5 
C 0.397805 1.5 0.77937 1.341951 1.06066 1.06066 
C 1.341951 0.77937 1.5 0.397805 1.5 0 
C 1.5 -0.397805 1.341951 -0.77937 1.06066 -1.06066 
C 0.77937 -1.341951 0.397805 -1.5 0 -1.5 
C -0.397805 -1.5 -0.77937 -1.341951 -1.06066 -1.06066 
C -1.341951 -0.77937 -1.5 -0.397805 -1.5 0 
C -1.5 0.397805 -1.341951 0.77937 -1.06066 1.06066 
C -0.77937 1.341951 -0.397805 1.5 0 1.5 
z
" id="m25d4a43eba" style="stroke:#3d3d3d;"/>
    </defs>
    <g clip-path="url(#p47b7e574ba)">
     <use style="fill:#ffffff;stroke:#3d3d3d;" x="72.6" xlink:href="#m25d4a43eba" y="74.943975"/>
    </g>
   </g>
   <g id="PathCollection_2">
    <g clip-path="url(#p47b7e574ba)">
     <use style="fill:#ffffff;stroke:#3d3d3d;" x="109.8" xlink:href="#m25d4a43eba" y="76.234782"/>
    </g>
   </g>
   <g id="PathCollection_3">
    <g clip-path="url(#p47b7e574ba)">
     <use style="fill:#ffffff;stroke:#3d3d3d;" x="147" xlink:href="#m25d4a43eba" y="63.478718"/>
    </g>
   </g>
   <g id="PathCollection_4">
    <g clip-path="url(#p47b7e574ba)">
     <use style="fill:#ffffff;stroke:#3d3d3d;" x="184.2" xlink:href="#m25d4a43eba" y="79.278564"/>
    </g>
   </g>
   <g id="PathCollection_5">
    <g clip-path="url(#p47b7e574ba)">
     <use style="fill:#ffffff;stroke:#3d3d3d;" x="221.4" xlink:href="#m25d4a43eba" y="69.272392"/>
    </g>
   </g>
   <g id="PathCollection_6">
    <g clip-path="url(#p47b7e574ba)">
     <use style="fill:#ffffff;stroke:#3d3d3d;" x="258.6" xlink:href="#m25d4a43eba" y="66.709258"/>
    </g>
   </g>
   <g id="PathCollection_7">
    <g clip-path="url(#p47b7e574ba)">
     <use style="fill:#ffffff;stroke:#3d3d3d;" x="295.8" xlink:href="#m25d4a43eba" y="85.770064"/>
    </g>
   </g>
   <g id="PathCollection_8">
    <g clip-path="url(#p47b7e574ba)">
     <use style="fill:#ffffff;stroke:#3d3d3d;" x="333" xlink:href="#m25d4a43eba" y="88.326562"/>
    </g>
   </g>
   <g id="PathCollection_9">
    <g clip-path="url(#p47b7e574ba)">
     <use style="fill:#ffffff;stroke:#3d3d3d;" x="370.2" xlink:href="#m25d4a43eba" y="80.431399"/>
    </g>
   </g>
  </g>
 </g>
 <defs>
  <clipPath id="p47b7e574ba">
   <rect height="217.44" width="334.8" x="54" y="34.56"/>
  </clipPath>
 </defs>
</svg>
