<?xml version="1.0" encoding="utf-8" standalone="no"?>
<!DOCTYPE svg PUBLIC "-//W3C//DTD SVG 1.1//EN"
  "http://www.w3.org/Graphics/SVG/1.1/DTD/svg11.dtd">
<!-- Created with matplotlib (https://matplotlib.org/) -->
<svg height="288pt" version="1.1" viewBox="0 0 432 288" width="432pt" xmlns="http://www.w3.org/2000/svg" xmlns:xlink="http://www.w3.org/1999/xlink">
 <metadata>
  <rdf:RDF xmlns:cc="http://creativecommons.org/ns#" xmlns:dc="http://purl.org/dc/elements/1.1/" xmlns:rdf="http://www.w3.org/1999/02/22-rdf-syntax-ns#">
   <cc:Work>
    <dc:type rdf:resource="http://purl.org/dc/dcmitype/StillImage"/>
    <dc:date>2023-08-15T14:41:50.221215</dc:date>
    <dc:format>image/svg+xml</dc:format>
    <dc:creator>
     <cc:Agent>
      <dc:title>Matplotlib v3.3.3, https://matplotlib.org/</dc:title>
     </cc:Agent>
    </dc:creator>
   </cc:Work>
  </rdf:RDF>
 </metadata>
 <defs>
  <style type="text/css">*{stroke-linecap:butt;stroke-linejoin:round;}</style>
 </defs>
 <g id="figure_1">
  <g id="patch_1">
   <path d="M 0 288 
L 432 288 
L 432 0 
L 0 0 
z
" style="fill:none;"/>
  </g>
  <g id="axes_1">
   <g id="patch_2">
    <path d="M 54 252 
L 388.8 252 
L 388.8 34.56 
L 54 34.56 
z
" style="fill:#ffffff;"/>
   </g>
   <g id="PolyCollection_1">
    <defs>
     <path d="M 81.90301 -235.239831 
L 81.89699 -235.239831 
L 81.888149 -233.629947 
L 81.862554 -232.020064 
L 81.801203 -230.41018 
L 81.672428 -228.800296 
L 81.422313 -227.190413 
L 80.955513 -225.580529 
L 80.112972 -223.970645 
L 78.686826 -222.360762 
L 76.524758 -220.750878 
L 73.671951 -219.140994 
L 70.423346 -217.531111 
L 67.289883 -215.921227 
L 64.920058 -214.311344 
L 63.881272 -212.70146 
L 64.332495 -211.091576 
L 65.909507 -209.481693 
L 68.024025 -207.871809 
L 70.269751 -206.261925 
L 72.491806 -204.652042 
L 74.569713 -203.042158 
L 76.327688 -201.432274 
L 77.679865 -199.822391 
L 78.694833 -198.212507 
L 79.468792 -196.602624 
L 80.051067 -194.99274 
L 80.486368 -193.382856 
L 80.834063 -191.772973 
L 81.138808 -190.163089 
L 81.406055 -188.553205 
L 81.614185 -186.943322 
L 81.74825 -185.333438 
L 81.814281 -183.723554 
L 81.833499 -182.113671 
L 81.83372 -180.503787 
L 81.836524 -178.893904 
L 81.845145 -177.28402 
L 81.848953 -175.674136 
L 81.841259 -174.064253 
L 81.82845 -172.454369 
L 81.820286 -170.844485 
L 81.816474 -169.234602 
L 81.810394 -167.624718 
L 81.803924 -166.014834 
L 81.808141 -164.404951 
L 81.827382 -162.795067 
L 81.851885 -161.185183 
L 81.869496 -159.5753 
L 81.876592 -157.965416 
L 81.876506 -156.355533 
L 81.875041 -154.745649 
L 81.876473 -153.135765 
L 81.879316 -151.525882 
L 81.878604 -149.915998 
L 81.872324 -148.306114 
L 81.861949 -146.696231 
L 81.848467 -145.086347 
L 81.832232 -143.476463 
L 81.817268 -141.86658 
L 81.810433 -140.256696 
L 81.812639 -138.646813 
L 81.8171 -137.036929 
L 81.819167 -135.427045 
L 81.820059 -133.817162 
L 81.819638 -132.207278 
L 81.812904 -130.597394 
L 81.797878 -128.987511 
L 81.784529 -127.377627 
L 81.785245 -125.767743 
L 81.795479 -124.15786 
L 81.79947 -122.547976 
L 81.794485 -120.938092 
L 81.79402 -119.328209 
L 81.808484 -117.718325 
L 81.832913 -116.108442 
L 81.853977 -114.498558 
L 81.863966 -112.888674 
L 81.86595 -111.278791 
L 81.867135 -109.668907 
L 81.869784 -108.059023 
L 81.870589 -106.44914 
L 81.86787 -104.839256 
L 81.864373 -103.229372 
L 81.861098 -101.619489 
L 81.853748 -100.009605 
L 81.838712 -98.399722 
L 81.818788 -96.789838 
L 81.800659 -95.179954 
L 81.790464 -93.570071 
L 81.791832 -91.960187 
L 81.803467 -90.350303 
L 81.820102 -88.74042 
L 81.837049 -87.130536 
L 81.851158 -85.520652 
L 81.860924 -83.910769 
L 81.868384 -82.300885 
L 81.876884 -80.691002 
L 81.886365 -79.081118 
L 81.893929 -77.471234 
L 81.898026 -75.861351 
L 81.901974 -75.861351 
L 81.901974 -75.861351 
L 81.906071 -77.471234 
L 81.913635 -79.081118 
L 81.923116 -80.691002 
L 81.931616 -82.300885 
L 81.939076 -83.910769 
L 81.948842 -85.520652 
L 81.962951 -87.130536 
L 81.979898 -88.74042 
L 81.996533 -90.350303 
L 82.008168 -91.960187 
L 82.009536 -93.570071 
L 81.999341 -95.179954 
L 81.981212 -96.789838 
L 81.961288 -98.399722 
L 81.946252 -100.009605 
L 81.938902 -101.619489 
L 81.935627 -103.229372 
L 81.93213 -104.839256 
L 81.929411 -106.44914 
L 81.930216 -108.059023 
L 81.932865 -109.668907 
L 81.93405 -111.278791 
L 81.936034 -112.888674 
L 81.946023 -114.498558 
L 81.967087 -116.108442 
L 81.991516 -117.718325 
L 82.00598 -119.328209 
L 82.005515 -120.938092 
L 82.00053 -122.547976 
L 82.004521 -124.15786 
L 82.014755 -125.767743 
L 82.015471 -127.377627 
L 82.002122 -128.987511 
L 81.987096 -130.597394 
L 81.980362 -132.207278 
L 81.979941 -133.817162 
L 81.980833 -135.427045 
L 81.9829 -137.036929 
L 81.987361 -138.646813 
L 81.989567 -140.256696 
L 81.982732 -141.86658 
L 81.967768 -143.476463 
L 81.951533 -145.086347 
L 81.938051 -146.696231 
L 81.927676 -148.306114 
L 81.921396 -149.915998 
L 81.920684 -151.525882 
L 81.923527 -153.135765 
L 81.924959 -154.745649 
L 81.923494 -156.355533 
L 81.923408 -157.965416 
L 81.930504 -159.5753 
L 81.948115 -161.185183 
L 81.972618 -162.795067 
L 81.991859 -164.404951 
L 81.996076 -166.014834 
L 81.989606 -167.624718 
L 81.983526 -169.234602 
L 81.979714 -170.844485 
L 81.97155 -172.454369 
L 81.958741 -174.064253 
L 81.951047 -175.674136 
L 81.954855 -177.28402 
L 81.963476 -178.893904 
L 81.96628 -180.503787 
L 81.966501 -182.113671 
L 81.985719 -183.723554 
L 82.05175 -185.333438 
L 82.185815 -186.943322 
L 82.393945 -188.553205 
L 82.661192 -190.163089 
L 82.965937 -191.772973 
L 83.313632 -193.382856 
L 83.748933 -194.99274 
L 84.331208 -196.602624 
L 85.105167 -198.212507 
L 86.120135 -199.822391 
L 87.472312 -201.432274 
L 89.230287 -203.042158 
L 91.308194 -204.652042 
L 93.530249 -206.261925 
L 95.775975 -207.871809 
L 97.890493 -209.481693 
L 99.467505 -211.091576 
L 99.918728 -212.70146 
L 98.879942 -214.311344 
L 96.510117 -215.921227 
L 93.376654 -217.531111 
L 90.128049 -219.140994 
L 87.275242 -220.750878 
L 85.113174 -222.360762 
L 83.687028 -223.970645 
L 82.844487 -225.580529 
L 82.377687 -227.190413 
L 82.127572 -228.800296 
L 81.998797 -230.41018 
L 81.937446 -232.020064 
L 81.911851 -233.629947 
L 81.90301 -235.239831 
z
" id="mc8acd73096" style="stroke:#3d3d3d;stroke-width:1.5;"/>
    </defs>
    <g clip-path="url(#pa5fe5b8092)">
     <use style="fill:#3274a1;stroke:#3d3d3d;stroke-width:1.5;" x="0" xlink:href="#mc8acd73096" y="288"/>
    </g>
   </g>
   <g id="PolyCollection_2">
    <defs>
     <path d="M 137.705678 -217.082604 
L 137.694322 -217.082604 
L 137.680213 -215.448168 
L 137.643093 -213.813732 
L 137.555561 -212.179296 
L 137.361167 -210.544861 
L 136.957989 -208.910425 
L 136.193555 -207.275989 
L 134.881797 -205.641553 
L 132.866519 -204.007117 
L 130.137703 -202.372681 
L 126.941888 -200.738246 
L 123.815516 -199.10381 
L 121.466971 -197.469374 
L 120.466573 -195.834938 
L 120.932777 -194.200502 
L 122.50368 -192.566066 
L 124.593557 -190.93163 
L 126.706638 -189.297195 
L 128.633765 -187.662759 
L 130.422753 -186.028323 
L 132.130733 -184.393887 
L 133.620076 -182.759451 
L 134.656088 -181.125015 
L 135.167723 -179.490579 
L 135.330909 -177.856144 
L 135.412197 -176.221708 
L 135.587205 -174.587272 
L 135.89147 -172.952836 
L 136.278565 -171.3184 
L 136.686493 -169.683964 
L 137.056547 -168.049529 
L 137.337372 -166.415093 
L 137.50974 -164.780657 
L 137.594326 -163.146221 
L 137.625202 -161.511785 
L 137.628806 -159.877349 
L 137.623374 -158.242913 
L 137.620541 -156.608478 
L 137.622282 -154.974042 
L 137.623669 -153.339606 
L 137.622165 -151.70517 
L 137.618968 -150.070734 
L 137.614181 -148.436298 
L 137.609573 -146.801862 
L 137.61156 -145.167427 
L 137.623949 -143.532991 
L 137.641777 -141.898555 
L 137.656559 -140.264119 
L 137.664646 -138.629683 
L 137.66873 -136.995247 
L 137.673107 -135.360812 
L 137.67835 -133.726376 
L 137.681091 -132.09194 
L 137.6784 -130.457504 
L 137.669681 -128.823068 
L 137.65512 -127.188632 
L 137.636484 -125.554196 
L 137.619086 -123.919761 
L 137.608836 -122.285325 
L 137.606972 -120.650889 
L 137.610702 -119.016453 
L 137.618002 -117.382017 
L 137.62759 -115.747581 
L 137.634871 -114.113146 
L 137.632268 -112.47871 
L 137.616342 -110.844274 
L 137.595407 -109.209838 
L 137.585044 -107.575402 
L 137.589886 -105.940966 
L 137.596746 -104.30653 
L 137.594326 -102.672095 
L 137.590541 -101.037659 
L 137.600293 -99.403223 
L 137.623723 -97.768787 
L 137.646413 -96.134351 
L 137.657757 -94.499915 
L 137.660745 -92.865479 
L 137.663706 -91.231044 
L 137.669271 -89.596608 
L 137.673592 -87.962172 
L 137.672963 -86.327736 
L 137.66836 -84.6933 
L 137.662616 -83.058864 
L 137.655789 -81.424429 
L 137.646883 -79.789993 
L 137.637009 -78.155557 
L 137.626512 -76.521121 
L 137.613775 -74.886685 
L 137.600981 -73.252249 
L 137.594873 -71.617813 
L 137.599284 -69.983378 
L 137.612665 -68.348942 
L 137.631434 -66.714506 
L 137.650784 -65.08007 
L 137.666047 -63.445634 
L 137.676361 -61.811198 
L 137.684089 -60.176762 
L 137.690718 -58.542327 
L 137.695709 -56.907891 
L 137.698505 -55.273455 
L 137.701495 -55.273455 
L 137.701495 -55.273455 
L 137.704291 -56.907891 
L 137.709282 -58.542327 
L 137.715911 -60.176762 
L 137.723639 -61.811198 
L 137.733953 -63.445634 
L 137.749216 -65.08007 
L 137.768566 -66.714506 
L 137.787335 -68.348942 
L 137.800716 -69.983378 
L 137.805127 -71.617813 
L 137.799019 -73.252249 
L 137.786225 -74.886685 
L 137.773488 -76.521121 
L 137.762991 -78.155557 
L 137.753117 -79.789993 
L 137.744211 -81.424429 
L 137.737384 -83.058864 
L 137.73164 -84.6933 
L 137.727037 -86.327736 
L 137.726408 -87.962172 
L 137.730729 -89.596608 
L 137.736294 -91.231044 
L 137.739255 -92.865479 
L 137.742243 -94.499915 
L 137.753587 -96.134351 
L 137.776277 -97.768787 
L 137.799707 -99.403223 
L 137.809459 -101.037659 
L 137.805674 -102.672095 
L 137.803254 -104.30653 
L 137.810114 -105.940966 
L 137.814956 -107.575402 
L 137.804593 -109.209838 
L 137.783658 -110.844274 
L 137.767732 -112.47871 
L 137.765129 -114.113146 
L 137.77241 -115.747581 
L 137.781998 -117.382017 
L 137.789298 -119.016453 
L 137.793028 -120.650889 
L 137.791164 -122.285325 
L 137.780914 -123.919761 
L 137.763516 -125.554196 
L 137.74488 -127.188632 
L 137.730319 -128.823068 
L 137.7216 -130.457504 
L 137.718909 -132.09194 
L 137.72165 -133.726376 
L 137.726893 -135.360812 
L 137.73127 -136.995247 
L 137.735354 -138.629683 
L 137.743441 -140.264119 
L 137.758223 -141.898555 
L 137.776051 -143.532991 
L 137.78844 -145.167427 
L 137.790427 -146.801862 
L 137.785819 -148.436298 
L 137.781032 -150.070734 
L 137.777835 -151.70517 
L 137.776331 -153.339606 
L 137.777718 -154.974042 
L 137.779459 -156.608478 
L 137.776626 -158.242913 
L 137.771194 -159.877349 
L 137.774798 -161.511785 
L 137.805674 -163.146221 
L 137.89026 -164.780657 
L 138.062628 -166.415093 
L 138.343453 -168.049529 
L 138.713507 -169.683964 
L 139.121435 -171.3184 
L 139.50853 -172.952836 
L 139.812795 -174.587272 
L 139.987803 -176.221708 
L 140.069091 -177.856144 
L 140.232277 -179.490579 
L 140.743912 -181.125015 
L 141.779924 -182.759451 
L 143.269267 -184.393887 
L 144.977247 -186.028323 
L 146.766235 -187.662759 
L 148.693362 -189.297195 
L 150.806443 -190.93163 
L 152.89632 -192.566066 
L 154.467223 -194.200502 
L 154.933427 -195.834938 
L 153.933029 -197.469374 
L 151.584484 -199.10381 
L 148.458112 -200.738246 
L 145.262297 -202.372681 
L 142.533481 -204.007117 
L 140.518203 -205.641553 
L 139.206445 -207.275989 
L 138.442011 -208.910425 
L 138.038833 -210.544861 
L 137.844439 -212.179296 
L 137.756907 -213.813732 
L 137.719787 -215.448168 
L 137.705678 -217.082604 
z
" id="mbe112847e2" style="stroke:#3d3d3d;stroke-width:1.5;"/>
    </defs>
    <g clip-path="url(#pa5fe5b8092)">
     <use style="fill:#e1812c;stroke:#3d3d3d;stroke-width:1.5;" x="0" xlink:href="#mbe112847e2" y="288"/>
    </g>
   </g>
   <g id="PolyCollection_3">
    <defs>
     <path d="M 193.508311 -243.556364 
L 193.491689 -243.556364 
L 193.471819 -241.965054 
L 193.428215 -240.373745 
L 193.351448 -238.782436 
L 193.220253 -237.191127 
L 192.979867 -235.599818 
L 192.546752 -234.008509 
L 191.82009 -232.417199 
L 190.669698 -230.82589 
L 188.986756 -229.234581 
L 186.80997 -227.643272 
L 184.323688 -226.051963 
L 181.694719 -224.460653 
L 179.016992 -222.869344 
L 176.487176 -221.278035 
L 174.584114 -219.686726 
L 173.947827 -218.095417 
L 174.994076 -216.504107 
L 177.618937 -214.912798 
L 181.179489 -213.321489 
L 184.769541 -211.73018 
L 187.697742 -210.138871 
L 189.758783 -208.547562 
L 191.086444 -206.956252 
L 191.894405 -205.364943 
L 192.374685 -203.773634 
L 192.691599 -202.182325 
L 192.946645 -200.591016 
L 193.155742 -198.999706 
L 193.301144 -197.408397 
L 193.384456 -195.817088 
L 193.422585 -194.225779 
L 193.432246 -192.63447 
L 193.430721 -191.043161 
L 193.433793 -189.451851 
L 193.446117 -187.860542 
L 193.459618 -186.269233 
L 193.463672 -184.677924 
L 193.454149 -183.086615 
L 193.436048 -181.495305 
L 193.420156 -179.903996 
L 193.411976 -178.312687 
L 193.406473 -176.721378 
L 193.401346 -175.130069 
L 193.405601 -173.538759 
L 193.424859 -171.94745 
L 193.449971 -170.356141 
L 193.46814 -168.764832 
L 193.475464 -167.173523 
L 193.475517 -165.582214 
L 193.474304 -163.990904 
L 193.476596 -162.399595 
L 193.481394 -160.808286 
L 193.48337 -159.216977 
L 193.479978 -157.625668 
L 193.472987 -156.034358 
L 193.464266 -154.443049 
L 193.45355 -152.85174 
L 193.439362 -151.260431 
L 193.423255 -149.669122 
L 193.413331 -148.077813 
L 193.415404 -146.486503 
L 193.422162 -144.895194 
L 193.423129 -143.303885 
L 193.419329 -141.712576 
L 193.416287 -140.121267 
L 193.410743 -138.529957 
L 193.396214 -136.938648 
L 193.378807 -135.347339 
L 193.37452 -133.75603 
L 193.386941 -132.164721 
L 193.400683 -130.573411 
L 193.402095 -128.982102 
L 193.396656 -127.390793 
L 193.401011 -125.799484 
L 193.421015 -124.208175 
L 193.444096 -122.616866 
L 193.456372 -121.025556 
L 193.459353 -119.434247 
L 193.462443 -117.842938 
L 193.467404 -116.251629 
L 193.469722 -114.66032 
L 193.467824 -113.06901 
L 193.46318 -111.477701 
L 193.456003 -109.886392 
L 193.444111 -108.295083 
L 193.425568 -106.703774 
L 193.403396 -105.112465 
L 193.386842 -103.521155 
L 193.385287 -101.929846 
L 193.398918 -100.338537 
L 193.418494 -98.747228 
L 193.435985 -97.155919 
L 193.449132 -95.564609 
L 193.457728 -93.9733 
L 193.463717 -92.381991 
L 193.471318 -90.790682 
L 193.481712 -89.199373 
L 193.491327 -87.608063 
L 193.497057 -86.016754 
L 193.502943 -86.016754 
L 193.502943 -86.016754 
L 193.508673 -87.608063 
L 193.518288 -89.199373 
L 193.528682 -90.790682 
L 193.536283 -92.381991 
L 193.542272 -93.9733 
L 193.550868 -95.564609 
L 193.564015 -97.155919 
L 193.581506 -98.747228 
L 193.601082 -100.338537 
L 193.614713 -101.929846 
L 193.613158 -103.521155 
L 193.596604 -105.112465 
L 193.574432 -106.703774 
L 193.555889 -108.295083 
L 193.543997 -109.886392 
L 193.53682 -111.477701 
L 193.532176 -113.06901 
L 193.530278 -114.66032 
L 193.532596 -116.251629 
L 193.537557 -117.842938 
L 193.540647 -119.434247 
L 193.543628 -121.025556 
L 193.555904 -122.616866 
L 193.578985 -124.208175 
L 193.598989 -125.799484 
L 193.603344 -127.390793 
L 193.597905 -128.982102 
L 193.599317 -130.573411 
L 193.613059 -132.164721 
L 193.62548 -133.75603 
L 193.621193 -135.347339 
L 193.603786 -136.938648 
L 193.589257 -138.529957 
L 193.583713 -140.121267 
L 193.580671 -141.712576 
L 193.576871 -143.303885 
L 193.577838 -144.895194 
L 193.584596 -146.486503 
L 193.586669 -148.077813 
L 193.576745 -149.669122 
L 193.560638 -151.260431 
L 193.54645 -152.85174 
L 193.535734 -154.443049 
L 193.527013 -156.034358 
L 193.520022 -157.625668 
L 193.51663 -159.216977 
L 193.518606 -160.808286 
L 193.523404 -162.399595 
L 193.525696 -163.990904 
L 193.524483 -165.582214 
L 193.524536 -167.173523 
L 193.53186 -168.764832 
L 193.550029 -170.356141 
L 193.575141 -171.94745 
L 193.594399 -173.538759 
L 193.598654 -175.130069 
L 193.593527 -176.721378 
L 193.588024 -178.312687 
L 193.579844 -179.903996 
L 193.563952 -181.495305 
L 193.545851 -183.086615 
L 193.536328 -184.677924 
L 193.540382 -186.269233 
L 193.553883 -187.860542 
L 193.566207 -189.451851 
L 193.569279 -191.043161 
L 193.567754 -192.63447 
L 193.577415 -194.225779 
L 193.615544 -195.817088 
L 193.698856 -197.408397 
L 193.844258 -198.999706 
L 194.053355 -200.591016 
L 194.308401 -202.182325 
L 194.625315 -203.773634 
L 195.105595 -205.364943 
L 195.913556 -206.956252 
L 197.241217 -208.547562 
L 199.302258 -210.138871 
L 202.230459 -211.73018 
L 205.820511 -213.321489 
L 209.381063 -214.912798 
L 212.005924 -216.504107 
L 213.052173 -218.095417 
L 212.415886 -219.686726 
L 210.512824 -221.278035 
L 207.983008 -222.869344 
L 205.305281 -224.460653 
L 202.676312 -226.051963 
L 200.19003 -227.643272 
L 198.013244 -229.234581 
L 196.330302 -230.82589 
L 195.17991 -232.417199 
L 194.453248 -234.008509 
L 194.020133 -235.599818 
L 193.779747 -237.191127 
L 193.648552 -238.782436 
L 193.571785 -240.373745 
L 193.528181 -241.965054 
L 193.508311 -243.556364 
z
" id="maaeb0e0222" style="stroke:#3d3d3d;stroke-width:1.5;"/>
    </defs>
    <g clip-path="url(#pa5fe5b8092)">
     <use style="fill:#3a923a;stroke:#3d3d3d;stroke-width:1.5;" x="0" xlink:href="#maaeb0e0222" y="288"/>
    </g>
   </g>
   <g id="PolyCollection_4">
    <defs>
     <path d="M 249.301398 -237.289084 
L 249.298602 -237.289084 
L 249.296139 -235.646468 
L 249.291998 -234.003853 
L 249.286126 -232.361237 
L 249.274575 -230.718621 
L 249.241959 -229.076005 
L 249.153374 -227.43339 
L 248.938386 -225.790774 
L 248.447674 -224.148158 
L 247.395516 -222.505542 
L 245.384427 -220.862927 
L 242.108189 -219.220311 
L 237.664129 -217.577695 
L 232.778589 -215.935079 
L 228.756184 -214.292464 
L 226.98 -212.649848 
L 228.09176 -211.007232 
L 231.542184 -209.364616 
L 236.016976 -207.722001 
L 240.276972 -206.079385 
L 243.631286 -204.436769 
L 245.899517 -202.794153 
L 247.208023 -201.151538 
L 247.83782 -199.508922 
L 248.095473 -197.866306 
L 248.196106 -196.22369 
L 248.227421 -194.581075 
L 248.198738 -192.938459 
L 248.112487 -191.295843 
L 248.005035 -189.653227 
L 247.932819 -188.010612 
L 247.932457 -186.367996 
L 248.011221 -184.72538 
L 248.160779 -183.082764 
L 248.349306 -181.440149 
L 248.519839 -179.797533 
L 248.633946 -178.154917 
L 248.708596 -176.512301 
L 248.792786 -174.869686 
L 248.912036 -173.22707 
L 249.041686 -171.584454 
L 249.137659 -169.941838 
L 249.185307 -168.299223 
L 249.205519 -166.656607 
L 249.221988 -165.013991 
L 249.239679 -163.371375 
L 249.252446 -161.72876 
L 249.257778 -160.086144 
L 249.26036 -158.443528 
L 249.265756 -156.800912 
L 249.273888 -155.158297 
L 249.279932 -153.515681 
L 249.28052 -151.873065 
L 249.276408 -150.230449 
L 249.269691 -148.587834 
L 249.260761 -146.945218 
L 249.247948 -145.302602 
L 249.23116 -143.659986 
L 249.216343 -142.017371 
L 249.211304 -140.374755 
L 249.21612 -138.732139 
L 249.223452 -137.089523 
L 249.226681 -135.446908 
L 249.222109 -133.804292 
L 249.207628 -132.161676 
L 249.187458 -130.51906 
L 249.175141 -128.876445 
L 249.180695 -127.233829 
L 249.196069 -125.591213 
L 249.204205 -123.948597 
L 249.200895 -122.305982 
L 249.199082 -120.663366 
L 249.211441 -119.02075 
L 249.234331 -117.378134 
L 249.253149 -115.735519 
L 249.260464 -114.092903 
L 249.261711 -112.450287 
L 249.264116 -110.807671 
L 249.268126 -109.165056 
L 249.270651 -107.52244 
L 249.270078 -105.879824 
L 249.266528 -104.237208 
L 249.260497 -102.594593 
L 249.252289 -100.951977 
L 249.242716 -99.309361 
L 249.233408 -97.666745 
L 249.225096 -96.02413 
L 249.216938 -94.381514 
L 249.208532 -92.738898 
L 249.202543 -91.096282 
L 249.204602 -89.453667 
L 249.217799 -87.811051 
L 249.237791 -86.168435 
L 249.256064 -84.525819 
L 249.267586 -82.883204 
L 249.274286 -81.240588 
L 249.280792 -79.597972 
L 249.288297 -77.955356 
L 249.294595 -76.312741 
L 249.298162 -74.670125 
L 249.301838 -74.670125 
L 249.301838 -74.670125 
L 249.305405 -76.312741 
L 249.311703 -77.955356 
L 249.319208 -79.597972 
L 249.325714 -81.240588 
L 249.332414 -82.883204 
L 249.343936 -84.525819 
L 249.362209 -86.168435 
L 249.382201 -87.811051 
L 249.395398 -89.453667 
L 249.397457 -91.096282 
L 249.391468 -92.738898 
L 249.383062 -94.381514 
L 249.374904 -96.02413 
L 249.366592 -97.666745 
L 249.357284 -99.309361 
L 249.347711 -100.951977 
L 249.339503 -102.594593 
L 249.333472 -104.237208 
L 249.329922 -105.879824 
L 249.329349 -107.52244 
L 249.331874 -109.165056 
L 249.335884 -110.807671 
L 249.338289 -112.450287 
L 249.339536 -114.092903 
L 249.346851 -115.735519 
L 249.365669 -117.378134 
L 249.388559 -119.02075 
L 249.400918 -120.663366 
L 249.399105 -122.305982 
L 249.395795 -123.948597 
L 249.403931 -125.591213 
L 249.419305 -127.233829 
L 249.424859 -128.876445 
L 249.412542 -130.51906 
L 249.392372 -132.161676 
L 249.377891 -133.804292 
L 249.373319 -135.446908 
L 249.376548 -137.089523 
L 249.38388 -138.732139 
L 249.388696 -140.374755 
L 249.383657 -142.017371 
L 249.36884 -143.659986 
L 249.352052 -145.302602 
L 249.339239 -146.945218 
L 249.330309 -148.587834 
L 249.323592 -150.230449 
L 249.31948 -151.873065 
L 249.320068 -153.515681 
L 249.326112 -155.158297 
L 249.334244 -156.800912 
L 249.33964 -158.443528 
L 249.342222 -160.086144 
L 249.347554 -161.72876 
L 249.360321 -163.371375 
L 249.378012 -165.013991 
L 249.394481 -166.656607 
L 249.414693 -168.299223 
L 249.462341 -169.941838 
L 249.558314 -171.584454 
L 249.687964 -173.22707 
L 249.807214 -174.869686 
L 249.891404 -176.512301 
L 249.966054 -178.154917 
L 250.080161 -179.797533 
L 250.250694 -181.440149 
L 250.439221 -183.082764 
L 250.588779 -184.72538 
L 250.667543 -186.367996 
L 250.667181 -188.010612 
L 250.594965 -189.653227 
L 250.487513 -191.295843 
L 250.401262 -192.938459 
L 250.372579 -194.581075 
L 250.403894 -196.22369 
L 250.504527 -197.866306 
L 250.76218 -199.508922 
L 251.391977 -201.151538 
L 252.700483 -202.794153 
L 254.968714 -204.436769 
L 258.323028 -206.079385 
L 262.583024 -207.722001 
L 267.057816 -209.364616 
L 270.50824 -211.007232 
L 271.62 -212.649848 
L 269.843816 -214.292464 
L 265.821411 -215.935079 
L 260.935871 -217.577695 
L 256.491811 -219.220311 
L 253.215573 -220.862927 
L 251.204484 -222.505542 
L 250.152326 -224.148158 
L 249.661614 -225.790774 
L 249.446626 -227.43339 
L 249.358041 -229.076005 
L 249.325425 -230.718621 
L 249.313874 -232.361237 
L 249.308002 -234.003853 
L 249.303861 -235.646468 
L 249.301398 -237.289084 
z
" id="meac09f4eb1" style="stroke:#3d3d3d;stroke-width:1.5;"/>
    </defs>
    <g clip-path="url(#pa5fe5b8092)">
     <use style="fill:#c03d3e;stroke:#3d3d3d;stroke-width:1.5;" x="0" xlink:href="#meac09f4eb1" y="288"/>
    </g>
   </g>
   <g id="PolyCollection_5">
    <defs>
     <path d="M 305.103403 -214.329201 
L 305.096597 -214.329201 
L 305.088105 -212.627731 
L 305.062725 -210.92626 
L 304.993129 -209.22479 
L 304.817399 -207.52332 
L 304.413336 -205.821849 
L 303.582342 -204.120379 
L 302.081461 -202.418909 
L 299.740914 -200.717438 
L 296.648088 -199.015968 
L 293.283733 -197.314497 
L 290.45102 -195.613027 
L 288.942168 -193.911557 
L 289.117514 -192.210086 
L 290.714867 -190.508616 
L 293.051128 -188.807146 
L 295.434435 -187.105675 
L 297.452138 -185.404205 
L 298.991552 -183.702735 
L 300.112039 -182.001264 
L 300.932099 -180.299794 
L 301.572713 -178.598324 
L 302.115878 -176.896853 
L 302.572163 -175.195383 
L 302.901197 -173.493913 
L 303.083013 -171.792442 
L 303.161898 -170.090972 
L 303.213979 -168.389502 
L 303.285671 -166.688031 
L 303.374291 -164.986561 
L 303.461202 -163.28509 
L 303.549539 -161.58362 
L 303.663885 -159.88215 
L 303.822949 -158.180679 
L 304.023401 -156.479209 
L 304.243928 -154.777739 
L 304.454573 -153.076268 
L 304.627429 -151.374798 
L 304.749525 -149.673328 
L 304.827301 -147.971857 
L 304.876631 -146.270387 
L 304.910235 -144.568917 
L 304.934697 -142.867446 
L 304.953688 -141.165976 
L 304.969034 -139.464506 
L 304.979795 -137.763035 
L 304.983666 -136.061565 
L 304.980544 -134.360095 
L 304.974257 -132.658624 
L 304.969971 -130.957154 
L 304.969526 -129.255683 
L 304.969849 -127.554213 
L 304.966414 -125.852743 
L 304.958065 -124.151272 
L 304.948414 -122.449802 
L 304.942657 -120.748332 
L 304.94327 -119.046861 
L 304.94915 -117.345391 
L 304.958095 -115.643921 
L 304.968244 -113.94245 
L 304.976901 -112.24098 
L 304.980101 -110.53951 
L 304.975423 -108.838039 
L 304.965126 -107.136569 
L 304.95482 -105.435099 
L 304.94862 -103.733628 
L 304.946916 -102.032158 
L 304.948902 -100.330688 
L 304.955281 -98.629217 
L 304.967386 -96.927747 
L 304.984631 -95.226277 
L 305.003809 -93.524806 
L 305.020812 -91.823336 
L 305.03309 -90.121865 
L 305.041102 -88.420395 
L 305.047389 -86.718925 
L 305.053632 -85.017454 
L 305.058873 -83.315984 
L 305.061091 -81.614514 
L 305.05984 -79.913043 
L 305.056606 -78.211573 
L 305.052982 -76.510103 
L 305.049202 -74.808632 
L 305.044445 -73.107162 
L 305.038056 -71.405692 
L 305.030101 -69.704221 
L 305.021279 -68.002751 
L 305.013414 -66.301281 
L 305.010064 -64.59981 
L 305.014883 -62.89834 
L 305.028052 -61.19687 
L 305.045123 -59.495399 
L 305.060306 -57.793929 
L 305.070674 -56.092458 
L 305.077188 -54.390988 
L 305.082395 -52.689518 
L 305.087705 -50.988047 
L 305.092719 -49.286577 
L 305.096468 -47.585107 
L 305.09862 -45.883636 
L 305.10138 -45.883636 
L 305.10138 -45.883636 
L 305.103532 -47.585107 
L 305.107281 -49.286577 
L 305.112295 -50.988047 
L 305.117605 -52.689518 
L 305.122812 -54.390988 
L 305.129326 -56.092458 
L 305.139694 -57.793929 
L 305.154877 -59.495399 
L 305.171948 -61.19687 
L 305.185117 -62.89834 
L 305.189936 -64.59981 
L 305.186586 -66.301281 
L 305.178721 -68.002751 
L 305.169899 -69.704221 
L 305.161944 -71.405692 
L 305.155555 -73.107162 
L 305.150798 -74.808632 
L 305.147018 -76.510103 
L 305.143394 -78.211573 
L 305.14016 -79.913043 
L 305.138909 -81.614514 
L 305.141127 -83.315984 
L 305.146368 -85.017454 
L 305.152611 -86.718925 
L 305.158898 -88.420395 
L 305.16691 -90.121865 
L 305.179188 -91.823336 
L 305.196191 -93.524806 
L 305.215369 -95.226277 
L 305.232614 -96.927747 
L 305.244719 -98.629217 
L 305.251098 -100.330688 
L 305.253084 -102.032158 
L 305.25138 -103.733628 
L 305.24518 -105.435099 
L 305.234874 -107.136569 
L 305.224577 -108.838039 
L 305.219899 -110.53951 
L 305.223099 -112.24098 
L 305.231756 -113.94245 
L 305.241905 -115.643921 
L 305.25085 -117.345391 
L 305.25673 -119.046861 
L 305.257343 -120.748332 
L 305.251586 -122.449802 
L 305.241935 -124.151272 
L 305.233586 -125.852743 
L 305.230151 -127.554213 
L 305.230474 -129.255683 
L 305.230029 -130.957154 
L 305.225743 -132.658624 
L 305.219456 -134.360095 
L 305.216334 -136.061565 
L 305.220205 -137.763035 
L 305.230966 -139.464506 
L 305.246312 -141.165976 
L 305.265303 -142.867446 
L 305.289765 -144.568917 
L 305.323369 -146.270387 
L 305.372699 -147.971857 
L 305.450475 -149.673328 
L 305.572571 -151.374798 
L 305.745427 -153.076268 
L 305.956072 -154.777739 
L 306.176599 -156.479209 
L 306.377051 -158.180679 
L 306.536115 -159.88215 
L 306.650461 -161.58362 
L 306.738798 -163.28509 
L 306.825709 -164.986561 
L 306.914329 -166.688031 
L 306.986021 -168.389502 
L 307.038102 -170.090972 
L 307.116987 -171.792442 
L 307.298803 -173.493913 
L 307.627837 -175.195383 
L 308.084122 -176.896853 
L 308.627287 -178.598324 
L 309.267901 -180.299794 
L 310.087961 -182.001264 
L 311.208448 -183.702735 
L 312.747862 -185.404205 
L 314.765565 -187.105675 
L 317.148872 -188.807146 
L 319.485133 -190.508616 
L 321.082486 -192.210086 
L 321.257832 -193.911557 
L 319.74898 -195.613027 
L 316.916267 -197.314497 
L 313.551912 -199.015968 
L 310.459086 -200.717438 
L 308.118539 -202.418909 
L 306.617658 -204.120379 
L 305.786664 -205.821849 
L 305.382601 -207.52332 
L 305.206871 -209.22479 
L 305.137275 -210.92626 
L 305.111895 -212.627731 
L 305.103403 -214.329201 
z
" id="m65fed51f47" style="stroke:#3d3d3d;stroke-width:1.5;"/>
    </defs>
    <g clip-path="url(#pa5fe5b8092)">
     <use style="fill:#9372b2;stroke:#3d3d3d;stroke-width:1.5;" x="0" xlink:href="#m65fed51f47" y="288"/>
    </g>
   </g>
   <g id="PolyCollection_6">
    <defs>
     <path d="M 360.909568 -233.370531 
L 360.890432 -233.370531 
L 360.864124 -231.664688 
L 360.786959 -229.958845 
L 360.590909 -228.253002 
L 360.149256 -226.547159 
L 359.269631 -224.841316 
L 357.758446 -223.135473 
L 355.581803 -221.42963 
L 352.996498 -219.723787 
L 350.454171 -218.017944 
L 348.338443 -216.312101 
L 346.856978 -214.606258 
L 346.168106 -212.900415 
L 346.427984 -211.194572 
L 347.603851 -209.488729 
L 349.349062 -207.782886 
L 351.191886 -206.077043 
L 352.83111 -204.3712 
L 354.21516 -202.665357 
L 355.416601 -200.959514 
L 356.505691 -199.253671 
L 357.495944 -197.547828 
L 358.335106 -195.841985 
L 358.945581 -194.136142 
L 359.299645 -192.430299 
L 359.453776 -190.724456 
L 359.500001 -189.018613 
L 359.499583 -187.31277 
L 359.479437 -185.606927 
L 359.467216 -183.901084 
L 359.497017 -182.195241 
L 359.586915 -180.489398 
L 359.726972 -178.783555 
L 359.888539 -177.077712 
L 360.047319 -175.371869 
L 360.200813 -173.666026 
L 360.357341 -171.960183 
L 360.510387 -170.25434 
L 360.636947 -168.548497 
L 360.721365 -166.842654 
L 360.768339 -165.136811 
L 360.792417 -163.430968 
L 360.805937 -161.725125 
L 360.817153 -160.019282 
L 360.830301 -158.313439 
L 360.844496 -156.607596 
L 360.855861 -154.901753 
L 360.862037 -153.19591 
L 360.86449 -151.490067 
L 360.866709 -149.784224 
L 360.869996 -148.078381 
L 360.871601 -146.372538 
L 360.867532 -144.666695 
L 360.856186 -142.960852 
L 360.839444 -141.255009 
L 360.822181 -139.549166 
L 360.810371 -137.843323 
L 360.807351 -136.13748 
L 360.811811 -134.431637 
L 360.82006 -132.725794 
L 360.828436 -131.019951 
L 360.8328 -129.314108 
L 360.829163 -127.608265 
L 360.81773 -125.902422 
L 360.804673 -124.196579 
L 360.796711 -122.490736 
L 360.794441 -120.784893 
L 360.794047 -119.07905 
L 360.794809 -117.373207 
L 360.800766 -115.667364 
L 360.814368 -113.961521 
L 360.832354 -112.255678 
L 360.849131 -110.549835 
L 360.861269 -108.843992 
L 360.868367 -107.138149 
L 360.87206 -105.432306 
L 360.874126 -103.726463 
L 360.874778 -102.02062 
L 360.873435 -100.314777 
L 360.870058 -98.608934 
L 360.86458 -96.903091 
L 360.857044 -95.197248 
L 360.849096 -93.491405 
L 360.842826 -91.785562 
L 360.837708 -90.079719 
L 360.831131 -88.373876 
L 360.822113 -86.668033 
L 360.812792 -84.96219 
L 360.807115 -83.256347 
L 360.809237 -81.550504 
L 360.821083 -79.844661 
L 360.839622 -78.138818 
L 360.857902 -76.432975 
L 360.870313 -74.727132 
L 360.876695 -73.021289 
L 360.880873 -71.315446 
L 360.885858 -69.609603 
L 360.891454 -67.90376 
L 360.895954 -66.197917 
L 360.898526 -64.492074 
L 360.901474 -64.492074 
L 360.901474 -64.492074 
L 360.904046 -66.197917 
L 360.908546 -67.90376 
L 360.914142 -69.609603 
L 360.919127 -71.315446 
L 360.923305 -73.021289 
L 360.929687 -74.727132 
L 360.942098 -76.432975 
L 360.960378 -78.138818 
L 360.978917 -79.844661 
L 360.990763 -81.550504 
L 360.992885 -83.256347 
L 360.987208 -84.96219 
L 360.977887 -86.668033 
L 360.968869 -88.373876 
L 360.962292 -90.079719 
L 360.957174 -91.785562 
L 360.950904 -93.491405 
L 360.942956 -95.197248 
L 360.93542 -96.903091 
L 360.929942 -98.608934 
L 360.926565 -100.314777 
L 360.925222 -102.02062 
L 360.925874 -103.726463 
L 360.92794 -105.432306 
L 360.931633 -107.138149 
L 360.938731 -108.843992 
L 360.950869 -110.549835 
L 360.967646 -112.255678 
L 360.985632 -113.961521 
L 360.999234 -115.667364 
L 361.005191 -117.373207 
L 361.005953 -119.07905 
L 361.005559 -120.784893 
L 361.003289 -122.490736 
L 360.995327 -124.196579 
L 360.98227 -125.902422 
L 360.970837 -127.608265 
L 360.9672 -129.314108 
L 360.971564 -131.019951 
L 360.97994 -132.725794 
L 360.988189 -134.431637 
L 360.992649 -136.13748 
L 360.989629 -137.843323 
L 360.977819 -139.549166 
L 360.960556 -141.255009 
L 360.943814 -142.960852 
L 360.932468 -144.666695 
L 360.928399 -146.372538 
L 360.930004 -148.078381 
L 360.933291 -149.784224 
L 360.93551 -151.490067 
L 360.937963 -153.19591 
L 360.944139 -154.901753 
L 360.955504 -156.607596 
L 360.969699 -158.313439 
L 360.982847 -160.019282 
L 360.994063 -161.725125 
L 361.007583 -163.430968 
L 361.031661 -165.136811 
L 361.078635 -166.842654 
L 361.163053 -168.548497 
L 361.289613 -170.25434 
L 361.442659 -171.960183 
L 361.599187 -173.666026 
L 361.752681 -175.371869 
L 361.911461 -177.077712 
L 362.073028 -178.783555 
L 362.213085 -180.489398 
L 362.302983 -182.195241 
L 362.332784 -183.901084 
L 362.320563 -185.606927 
L 362.300417 -187.31277 
L 362.299999 -189.018613 
L 362.346224 -190.724456 
L 362.500355 -192.430299 
L 362.854419 -194.136142 
L 363.464894 -195.841985 
L 364.304056 -197.547828 
L 365.294309 -199.253671 
L 366.383399 -200.959514 
L 367.58484 -202.665357 
L 368.96889 -204.3712 
L 370.608114 -206.077043 
L 372.450938 -207.782886 
L 374.196149 -209.488729 
L 375.372016 -211.194572 
L 375.631894 -212.900415 
L 374.943022 -214.606258 
L 373.461557 -216.312101 
L 371.345829 -218.017944 
L 368.803502 -219.723787 
L 366.218197 -221.42963 
L 364.041554 -223.135473 
L 362.530369 -224.841316 
L 361.650744 -226.547159 
L 361.209091 -228.253002 
L 361.013041 -229.958845 
L 360.935876 -231.664688 
L 360.909568 -233.370531 
z
" id="m183df219c4" style="stroke:#3d3d3d;stroke-width:1.5;"/>
    </defs>
    <g clip-path="url(#pa5fe5b8092)">
     <use style="fill:#845b53;stroke:#3d3d3d;stroke-width:1.5;" x="0" xlink:href="#m183df219c4" y="288"/>
    </g>
   </g>
   <g id="matplotlib.axis_1">
    <g id="xtick_1">
     <g id="line2d_1">
      <defs>
       <path d="M 0 0 
L 0 3.5 
" id="m6bfcd0572a" style="stroke:#000000;stroke-width:0.8;"/>
      </defs>
      <g>
       <use style="stroke:#000000;stroke-width:0.8;" x="81.9" xlink:href="#m6bfcd0572a" y="252"/>
      </g>
     </g>
     <g id="text_1">
      <!-- MigNN1* -->
      <g transform="translate(59.860156 266.598437)scale(0.1 -0.1)">
       <defs>
        <path d="M 9.8125 72.90625 
L 24.515625 72.90625 
L 43.109375 23.296875 
L 61.8125 72.90625 
L 76.515625 72.90625 
L 76.515625 0 
L 66.890625 0 
L 66.890625 64.015625 
L 48.09375 14.015625 
L 38.1875 14.015625 
L 19.390625 64.015625 
L 19.390625 0 
L 9.8125 0 
z
" id="DejaVuSans-77"/>
        <path d="M 9.421875 54.6875 
L 18.40625 54.6875 
L 18.40625 0 
L 9.421875 0 
z
M 9.421875 75.984375 
L 18.40625 75.984375 
L 18.40625 64.59375 
L 9.421875 64.59375 
z
" id="DejaVuSans-105"/>
        <path d="M 45.40625 27.984375 
Q 45.40625 37.75 41.375 43.109375 
Q 37.359375 48.484375 30.078125 48.484375 
Q 22.859375 48.484375 18.828125 43.109375 
Q 14.796875 37.75 14.796875 27.984375 
Q 14.796875 18.265625 18.828125 12.890625 
Q 22.859375 7.515625 30.078125 7.515625 
Q 37.359375 7.515625 41.375 12.890625 
Q 45.40625 18.265625 45.40625 27.984375 
z
M 54.390625 6.78125 
Q 54.390625 -7.171875 48.1875 -13.984375 
Q 42 -20.796875 29.203125 -20.796875 
Q 24.46875 -20.796875 20.265625 -20.09375 
Q 16.0625 -19.390625 12.109375 -17.921875 
L 12.109375 -9.1875 
Q 16.0625 -11.328125 19.921875 -12.34375 
Q 23.78125 -13.375 27.78125 -13.375 
Q 36.625 -13.375 41.015625 -8.765625 
Q 45.40625 -4.15625 45.40625 5.171875 
L 45.40625 9.625 
Q 42.625 4.78125 38.28125 2.390625 
Q 33.9375 0 27.875 0 
Q 17.828125 0 11.671875 7.65625 
Q 5.515625 15.328125 5.515625 27.984375 
Q 5.515625 40.671875 11.671875 48.328125 
Q 17.828125 56 27.875 56 
Q 33.9375 56 38.28125 53.609375 
Q 42.625 51.21875 45.40625 46.390625 
L 45.40625 54.6875 
L 54.390625 54.6875 
z
" id="DejaVuSans-103"/>
        <path d="M 9.8125 72.90625 
L 23.09375 72.90625 
L 55.421875 11.921875 
L 55.421875 72.90625 
L 64.984375 72.90625 
L 64.984375 0 
L 51.703125 0 
L 19.390625 60.984375 
L 19.390625 0 
L 9.8125 0 
z
" id="DejaVuSans-78"/>
        <path d="M 12.40625 8.296875 
L 28.515625 8.296875 
L 28.515625 63.921875 
L 10.984375 60.40625 
L 10.984375 69.390625 
L 28.421875 72.90625 
L 38.28125 72.90625 
L 38.28125 8.296875 
L 54.390625 8.296875 
L 54.390625 0 
L 12.40625 0 
z
" id="DejaVuSans-49"/>
        <path d="M 47.015625 60.890625 
L 29.5 51.421875 
L 47.015625 41.890625 
L 44.1875 37.109375 
L 27.78125 47.015625 
L 27.78125 28.609375 
L 22.21875 28.609375 
L 22.21875 47.015625 
L 5.8125 37.109375 
L 2.984375 41.890625 
L 20.515625 51.421875 
L 2.984375 60.890625 
L 5.8125 65.71875 
L 22.21875 55.8125 
L 22.21875 74.21875 
L 27.78125 74.21875 
L 27.78125 55.8125 
L 44.1875 65.71875 
z
" id="DejaVuSans-42"/>
       </defs>
       <use xlink:href="#DejaVuSans-77"/>
       <use x="86.279297" xlink:href="#DejaVuSans-105"/>
       <use x="114.0625" xlink:href="#DejaVuSans-103"/>
       <use x="177.539062" xlink:href="#DejaVuSans-78"/>
       <use x="252.34375" xlink:href="#DejaVuSans-78"/>
       <use x="327.148438" xlink:href="#DejaVuSans-49"/>
       <use x="390.771484" xlink:href="#DejaVuSans-42"/>
      </g>
     </g>
    </g>
    <g id="xtick_2">
     <g id="line2d_2">
      <g>
       <use style="stroke:#000000;stroke-width:0.8;" x="137.7" xlink:href="#m6bfcd0572a" y="252"/>
      </g>
     </g>
     <g id="text_2">
      <!-- MigRES1 -->
      <g transform="translate(115.833594 266.598437)scale(0.1 -0.1)">
       <defs>
        <path d="M 44.390625 34.1875 
Q 47.5625 33.109375 50.5625 29.59375 
Q 53.5625 26.078125 56.59375 19.921875 
L 66.609375 0 
L 56 0 
L 46.6875 18.703125 
Q 43.0625 26.03125 39.671875 28.421875 
Q 36.28125 30.8125 30.421875 30.8125 
L 19.671875 30.8125 
L 19.671875 0 
L 9.8125 0 
L 9.8125 72.90625 
L 32.078125 72.90625 
Q 44.578125 72.90625 50.734375 67.671875 
Q 56.890625 62.453125 56.890625 51.90625 
Q 56.890625 45.015625 53.6875 40.46875 
Q 50.484375 35.9375 44.390625 34.1875 
z
M 19.671875 64.796875 
L 19.671875 38.921875 
L 32.078125 38.921875 
Q 39.203125 38.921875 42.84375 42.21875 
Q 46.484375 45.515625 46.484375 51.90625 
Q 46.484375 58.296875 42.84375 61.546875 
Q 39.203125 64.796875 32.078125 64.796875 
z
" id="DejaVuSans-82"/>
        <path d="M 9.8125 72.90625 
L 55.90625 72.90625 
L 55.90625 64.59375 
L 19.671875 64.59375 
L 19.671875 43.015625 
L 54.390625 43.015625 
L 54.390625 34.71875 
L 19.671875 34.71875 
L 19.671875 8.296875 
L 56.78125 8.296875 
L 56.78125 0 
L 9.8125 0 
z
" id="DejaVuSans-69"/>
        <path d="M 53.515625 70.515625 
L 53.515625 60.890625 
Q 47.90625 63.578125 42.921875 64.890625 
Q 37.9375 66.21875 33.296875 66.21875 
Q 25.25 66.21875 20.875 63.09375 
Q 16.5 59.96875 16.5 54.203125 
Q 16.5 49.359375 19.40625 46.890625 
Q 22.3125 44.4375 30.421875 42.921875 
L 36.375 41.703125 
Q 47.40625 39.59375 52.65625 34.296875 
Q 57.90625 29 57.90625 20.125 
Q 57.90625 9.515625 50.796875 4.046875 
Q 43.703125 -1.421875 29.984375 -1.421875 
Q 24.8125 -1.421875 18.96875 -0.25 
Q 13.140625 0.921875 6.890625 3.21875 
L 6.890625 13.375 
Q 12.890625 10.015625 18.65625 8.296875 
Q 24.421875 6.59375 29.984375 6.59375 
Q 38.421875 6.59375 43.015625 9.90625 
Q 47.609375 13.234375 47.609375 19.390625 
Q 47.609375 24.75 44.3125 27.78125 
Q 41.015625 30.8125 33.5 32.328125 
L 27.484375 33.5 
Q 16.453125 35.6875 11.515625 40.375 
Q 6.59375 45.0625 6.59375 53.421875 
Q 6.59375 63.09375 13.40625 68.65625 
Q 20.21875 74.21875 32.171875 74.21875 
Q 37.3125 74.21875 42.625 73.28125 
Q 47.953125 72.359375 53.515625 70.515625 
z
" id="DejaVuSans-83"/>
       </defs>
       <use xlink:href="#DejaVuSans-77"/>
       <use x="86.279297" xlink:href="#DejaVuSans-105"/>
       <use x="114.0625" xlink:href="#DejaVuSans-103"/>
       <use x="177.539062" xlink:href="#DejaVuSans-82"/>
       <use x="247.021484" xlink:href="#DejaVuSans-69"/>
       <use x="310.205078" xlink:href="#DejaVuSans-83"/>
       <use x="373.681641" xlink:href="#DejaVuSans-49"/>
      </g>
     </g>
    </g>
    <g id="xtick_3">
     <g id="line2d_3">
      <g>
       <use style="stroke:#000000;stroke-width:0.8;" x="193.5" xlink:href="#m6bfcd0572a" y="252"/>
      </g>
     </g>
     <g id="text_3">
      <!-- MigRES2 -->
      <g transform="translate(171.633594 266.598437)scale(0.1 -0.1)">
       <defs>
        <path d="M 19.1875 8.296875 
L 53.609375 8.296875 
L 53.609375 0 
L 7.328125 0 
L 7.328125 8.296875 
Q 12.9375 14.109375 22.625 23.890625 
Q 32.328125 33.6875 34.8125 36.53125 
Q 39.546875 41.84375 41.421875 45.53125 
Q 43.3125 49.21875 43.3125 52.78125 
Q 43.3125 58.59375 39.234375 62.25 
Q 35.15625 65.921875 28.609375 65.921875 
Q 23.96875 65.921875 18.8125 64.3125 
Q 13.671875 62.703125 7.8125 59.421875 
L 7.8125 69.390625 
Q 13.765625 71.78125 18.9375 73 
Q 24.125 74.21875 28.421875 74.21875 
Q 39.75 74.21875 46.484375 68.546875 
Q 53.21875 62.890625 53.21875 53.421875 
Q 53.21875 48.921875 51.53125 44.890625 
Q 49.859375 40.875 45.40625 35.40625 
Q 44.1875 33.984375 37.640625 27.21875 
Q 31.109375 20.453125 19.1875 8.296875 
z
" id="DejaVuSans-50"/>
       </defs>
       <use xlink:href="#DejaVuSans-77"/>
       <use x="86.279297" xlink:href="#DejaVuSans-105"/>
       <use x="114.0625" xlink:href="#DejaVuSans-103"/>
       <use x="177.539062" xlink:href="#DejaVuSans-82"/>
       <use x="247.021484" xlink:href="#DejaVuSans-69"/>
       <use x="310.205078" xlink:href="#DejaVuSans-83"/>
       <use x="373.681641" xlink:href="#DejaVuSans-50"/>
      </g>
     </g>
    </g>
    <g id="xtick_4">
     <g id="line2d_4">
      <g>
       <use style="stroke:#000000;stroke-width:0.8;" x="249.3" xlink:href="#m6bfcd0572a" y="252"/>
      </g>
     </g>
     <g id="text_4">
      <!-- MigDAM1 -->
      <g transform="translate(225.744531 266.598437)scale(0.1 -0.1)">
       <defs>
        <path d="M 19.671875 64.796875 
L 19.671875 8.109375 
L 31.59375 8.109375 
Q 46.6875 8.109375 53.6875 14.9375 
Q 60.6875 21.78125 60.6875 36.53125 
Q 60.6875 51.171875 53.6875 57.984375 
Q 46.6875 64.796875 31.59375 64.796875 
z
M 9.8125 72.90625 
L 30.078125 72.90625 
Q 51.265625 72.90625 61.171875 64.09375 
Q 71.09375 55.28125 71.09375 36.53125 
Q 71.09375 17.671875 61.125 8.828125 
Q 51.171875 0 30.078125 0 
L 9.8125 0 
z
" id="DejaVuSans-68"/>
        <path d="M 34.1875 63.1875 
L 20.796875 26.90625 
L 47.609375 26.90625 
z
M 28.609375 72.90625 
L 39.796875 72.90625 
L 67.578125 0 
L 57.328125 0 
L 50.6875 18.703125 
L 17.828125 18.703125 
L 11.1875 0 
L 0.78125 0 
z
" id="DejaVuSans-65"/>
       </defs>
       <use xlink:href="#DejaVuSans-77"/>
       <use x="86.279297" xlink:href="#DejaVuSans-105"/>
       <use x="114.0625" xlink:href="#DejaVuSans-103"/>
       <use x="177.539062" xlink:href="#DejaVuSans-68"/>
       <use x="252.791016" xlink:href="#DejaVuSans-65"/>
       <use x="321.199219" xlink:href="#DejaVuSans-77"/>
       <use x="407.478516" xlink:href="#DejaVuSans-49"/>
      </g>
     </g>
    </g>
    <g id="xtick_5">
     <g id="line2d_5">
      <g>
       <use style="stroke:#000000;stroke-width:0.8;" x="305.1" xlink:href="#m6bfcd0572a" y="252"/>
      </g>
     </g>
     <g id="text_5">
      <!-- MigDAM2 -->
      <g transform="translate(281.544531 266.598437)scale(0.1 -0.1)">
       <use xlink:href="#DejaVuSans-77"/>
       <use x="86.279297" xlink:href="#DejaVuSans-105"/>
       <use x="114.0625" xlink:href="#DejaVuSans-103"/>
       <use x="177.539062" xlink:href="#DejaVuSans-68"/>
       <use x="252.791016" xlink:href="#DejaVuSans-65"/>
       <use x="321.199219" xlink:href="#DejaVuSans-77"/>
       <use x="407.478516" xlink:href="#DejaVuSans-50"/>
      </g>
     </g>
    </g>
    <g id="xtick_6">
     <g id="line2d_6">
      <g>
       <use style="stroke:#000000;stroke-width:0.8;" x="360.9" xlink:href="#m6bfcd0572a" y="252"/>
      </g>
     </g>
     <g id="text_6">
      <!-- MigDAM3* -->
      <g transform="translate(334.844531 266.598437)scale(0.1 -0.1)">
       <defs>
        <path d="M 40.578125 39.3125 
Q 47.65625 37.796875 51.625 33 
Q 55.609375 28.21875 55.609375 21.1875 
Q 55.609375 10.40625 48.1875 4.484375 
Q 40.765625 -1.421875 27.09375 -1.421875 
Q 22.515625 -1.421875 17.65625 -0.515625 
Q 12.796875 0.390625 7.625 2.203125 
L 7.625 11.71875 
Q 11.71875 9.328125 16.59375 8.109375 
Q 21.484375 6.890625 26.8125 6.890625 
Q 36.078125 6.890625 40.9375 10.546875 
Q 45.796875 14.203125 45.796875 21.1875 
Q 45.796875 27.640625 41.28125 31.265625 
Q 36.765625 34.90625 28.71875 34.90625 
L 20.21875 34.90625 
L 20.21875 43.015625 
L 29.109375 43.015625 
Q 36.375 43.015625 40.234375 45.921875 
Q 44.09375 48.828125 44.09375 54.296875 
Q 44.09375 59.90625 40.109375 62.90625 
Q 36.140625 65.921875 28.71875 65.921875 
Q 24.65625 65.921875 20.015625 65.03125 
Q 15.375 64.15625 9.8125 62.3125 
L 9.8125 71.09375 
Q 15.4375 72.65625 20.34375 73.4375 
Q 25.25 74.21875 29.59375 74.21875 
Q 40.828125 74.21875 47.359375 69.109375 
Q 53.90625 64.015625 53.90625 55.328125 
Q 53.90625 49.265625 50.4375 45.09375 
Q 46.96875 40.921875 40.578125 39.3125 
z
" id="DejaVuSans-51"/>
       </defs>
       <use xlink:href="#DejaVuSans-77"/>
       <use x="86.279297" xlink:href="#DejaVuSans-105"/>
       <use x="114.0625" xlink:href="#DejaVuSans-103"/>
       <use x="177.539062" xlink:href="#DejaVuSans-68"/>
       <use x="252.791016" xlink:href="#DejaVuSans-65"/>
       <use x="321.199219" xlink:href="#DejaVuSans-77"/>
       <use x="407.478516" xlink:href="#DejaVuSans-51"/>
       <use x="471.101562" xlink:href="#DejaVuSans-42"/>
      </g>
     </g>
    </g>
    <g id="text_7">
     <!-- Water logger ID -->
     <g transform="translate(182.186719 280.276563)scale(0.1 -0.1)">
      <defs>
       <path d="M 3.328125 72.90625 
L 13.28125 72.90625 
L 28.609375 11.28125 
L 43.890625 72.90625 
L 54.984375 72.90625 
L 70.3125 11.28125 
L 85.59375 72.90625 
L 95.609375 72.90625 
L 77.296875 0 
L 64.890625 0 
L 49.515625 63.28125 
L 33.984375 0 
L 21.578125 0 
z
" id="DejaVuSans-87"/>
       <path d="M 34.28125 27.484375 
Q 23.390625 27.484375 19.1875 25 
Q 14.984375 22.515625 14.984375 16.5 
Q 14.984375 11.71875 18.140625 8.90625 
Q 21.296875 6.109375 26.703125 6.109375 
Q 34.1875 6.109375 38.703125 11.40625 
Q 43.21875 16.703125 43.21875 25.484375 
L 43.21875 27.484375 
z
M 52.203125 31.203125 
L 52.203125 0 
L 43.21875 0 
L 43.21875 8.296875 
Q 40.140625 3.328125 35.546875 0.953125 
Q 30.953125 -1.421875 24.3125 -1.421875 
Q 15.921875 -1.421875 10.953125 3.296875 
Q 6 8.015625 6 15.921875 
Q 6 25.140625 12.171875 29.828125 
Q 18.359375 34.515625 30.609375 34.515625 
L 43.21875 34.515625 
L 43.21875 35.40625 
Q 43.21875 41.609375 39.140625 45 
Q 35.0625 48.390625 27.6875 48.390625 
Q 23 48.390625 18.546875 47.265625 
Q 14.109375 46.140625 10.015625 43.890625 
L 10.015625 52.203125 
Q 14.9375 54.109375 19.578125 55.046875 
Q 24.21875 56 28.609375 56 
Q 40.484375 56 46.34375 49.84375 
Q 52.203125 43.703125 52.203125 31.203125 
z
" id="DejaVuSans-97"/>
       <path d="M 18.3125 70.21875 
L 18.3125 54.6875 
L 36.8125 54.6875 
L 36.8125 47.703125 
L 18.3125 47.703125 
L 18.3125 18.015625 
Q 18.3125 11.328125 20.140625 9.421875 
Q 21.96875 7.515625 27.59375 7.515625 
L 36.8125 7.515625 
L 36.8125 0 
L 27.59375 0 
Q 17.1875 0 13.234375 3.875 
Q 9.28125 7.765625 9.28125 18.015625 
L 9.28125 47.703125 
L 2.6875 47.703125 
L 2.6875 54.6875 
L 9.28125 54.6875 
L 9.28125 70.21875 
z
" id="DejaVuSans-116"/>
       <path d="M 56.203125 29.59375 
L 56.203125 25.203125 
L 14.890625 25.203125 
Q 15.484375 15.921875 20.484375 11.0625 
Q 25.484375 6.203125 34.421875 6.203125 
Q 39.59375 6.203125 44.453125 7.46875 
Q 49.3125 8.734375 54.109375 11.28125 
L 54.109375 2.78125 
Q 49.265625 0.734375 44.1875 -0.34375 
Q 39.109375 -1.421875 33.890625 -1.421875 
Q 20.796875 -1.421875 13.15625 6.1875 
Q 5.515625 13.8125 5.515625 26.8125 
Q 5.515625 40.234375 12.765625 48.109375 
Q 20.015625 56 32.328125 56 
Q 43.359375 56 49.78125 48.890625 
Q 56.203125 41.796875 56.203125 29.59375 
z
M 47.21875 32.234375 
Q 47.125 39.59375 43.09375 43.984375 
Q 39.0625 48.390625 32.421875 48.390625 
Q 24.90625 48.390625 20.390625 44.140625 
Q 15.875 39.890625 15.1875 32.171875 
z
" id="DejaVuSans-101"/>
       <path d="M 41.109375 46.296875 
Q 39.59375 47.171875 37.8125 47.578125 
Q 36.03125 48 33.890625 48 
Q 26.265625 48 22.1875 43.046875 
Q 18.109375 38.09375 18.109375 28.8125 
L 18.109375 0 
L 9.078125 0 
L 9.078125 54.6875 
L 18.109375 54.6875 
L 18.109375 46.1875 
Q 20.953125 51.171875 25.484375 53.578125 
Q 30.03125 56 36.53125 56 
Q 37.453125 56 38.578125 55.875 
Q 39.703125 55.765625 41.0625 55.515625 
z
" id="DejaVuSans-114"/>
       <path id="DejaVuSans-32"/>
       <path d="M 9.421875 75.984375 
L 18.40625 75.984375 
L 18.40625 0 
L 9.421875 0 
z
" id="DejaVuSans-108"/>
       <path d="M 30.609375 48.390625 
Q 23.390625 48.390625 19.1875 42.75 
Q 14.984375 37.109375 14.984375 27.296875 
Q 14.984375 17.484375 19.15625 11.84375 
Q 23.34375 6.203125 30.609375 6.203125 
Q 37.796875 6.203125 41.984375 11.859375 
Q 46.1875 17.53125 46.1875 27.296875 
Q 46.1875 37.015625 41.984375 42.703125 
Q 37.796875 48.390625 30.609375 48.390625 
z
M 30.609375 56 
Q 42.328125 56 49.015625 48.375 
Q 55.71875 40.765625 55.71875 27.296875 
Q 55.71875 13.875 49.015625 6.21875 
Q 42.328125 -1.421875 30.609375 -1.421875 
Q 18.84375 -1.421875 12.171875 6.21875 
Q 5.515625 13.875 5.515625 27.296875 
Q 5.515625 40.765625 12.171875 48.375 
Q 18.84375 56 30.609375 56 
z
" id="DejaVuSans-111"/>
       <path d="M 9.8125 72.90625 
L 19.671875 72.90625 
L 19.671875 0 
L 9.8125 0 
z
" id="DejaVuSans-73"/>
      </defs>
      <use xlink:href="#DejaVuSans-87"/>
      <use x="92.501953" xlink:href="#DejaVuSans-97"/>
      <use x="153.78125" xlink:href="#DejaVuSans-116"/>
      <use x="192.990234" xlink:href="#DejaVuSans-101"/>
      <use x="254.513672" xlink:href="#DejaVuSans-114"/>
      <use x="295.626953" xlink:href="#DejaVuSans-32"/>
      <use x="327.414062" xlink:href="#DejaVuSans-108"/>
      <use x="355.197266" xlink:href="#DejaVuSans-111"/>
      <use x="416.378906" xlink:href="#DejaVuSans-103"/>
      <use x="479.855469" xlink:href="#DejaVuSans-103"/>
      <use x="543.332031" xlink:href="#DejaVuSans-101"/>
      <use x="604.855469" xlink:href="#DejaVuSans-114"/>
      <use x="645.96875" xlink:href="#DejaVuSans-32"/>
      <use x="677.755859" xlink:href="#DejaVuSans-73"/>
      <use x="707.248047" xlink:href="#DejaVuSans-68"/>
     </g>
    </g>
   </g>
   <g id="matplotlib.axis_2">
    <g id="ytick_1">
     <g id="line2d_7">
      <defs>
       <path d="M 0 0 
L -3.5 0 
" id="m545bdb4db3" style="stroke:#000000;stroke-width:0.8;"/>
      </defs>
      <g>
       <use style="stroke:#000000;stroke-width:0.8;" x="54" xlink:href="#m545bdb4db3" y="63.092794"/>
      </g>
     </g>
     <g id="text_8">
      <!-- 0 -->
      <g transform="translate(40.6375 66.892013)scale(0.1 -0.1)">
       <defs>
        <path d="M 31.78125 66.40625 
Q 24.171875 66.40625 20.328125 58.90625 
Q 16.5 51.421875 16.5 36.375 
Q 16.5 21.390625 20.328125 13.890625 
Q 24.171875 6.390625 31.78125 6.390625 
Q 39.453125 6.390625 43.28125 13.890625 
Q 47.125 21.390625 47.125 36.375 
Q 47.125 51.421875 43.28125 58.90625 
Q 39.453125 66.40625 31.78125 66.40625 
z
M 31.78125 74.21875 
Q 44.046875 74.21875 50.515625 64.515625 
Q 56.984375 54.828125 56.984375 36.375 
Q 56.984375 17.96875 50.515625 8.265625 
Q 44.046875 -1.421875 31.78125 -1.421875 
Q 19.53125 -1.421875 13.0625 8.265625 
Q 6.59375 17.96875 6.59375 36.375 
Q 6.59375 54.828125 13.0625 64.515625 
Q 19.53125 74.21875 31.78125 74.21875 
z
" id="DejaVuSans-48"/>
       </defs>
       <use xlink:href="#DejaVuSans-48"/>
      </g>
     </g>
    </g>
    <g id="ytick_2">
     <g id="line2d_8">
      <g>
       <use style="stroke:#000000;stroke-width:0.8;" x="54" xlink:href="#m545bdb4db3" y="107.853794"/>
      </g>
     </g>
     <g id="text_9">
      <!-- 200 -->
      <g transform="translate(27.9125 111.653013)scale(0.1 -0.1)">
       <use xlink:href="#DejaVuSans-50"/>
       <use x="63.623047" xlink:href="#DejaVuSans-48"/>
       <use x="127.246094" xlink:href="#DejaVuSans-48"/>
      </g>
     </g>
    </g>
    <g id="ytick_3">
     <g id="line2d_9">
      <g>
       <use style="stroke:#000000;stroke-width:0.8;" x="54" xlink:href="#m545bdb4db3" y="152.614795"/>
      </g>
     </g>
     <g id="text_10">
      <!-- 400 -->
      <g transform="translate(27.9125 156.414013)scale(0.1 -0.1)">
       <defs>
        <path d="M 37.796875 64.3125 
L 12.890625 25.390625 
L 37.796875 25.390625 
z
M 35.203125 72.90625 
L 47.609375 72.90625 
L 47.609375 25.390625 
L 58.015625 25.390625 
L 58.015625 17.1875 
L 47.609375 17.1875 
L 47.609375 0 
L 37.796875 0 
L 37.796875 17.1875 
L 4.890625 17.1875 
L 4.890625 26.703125 
z
" id="DejaVuSans-52"/>
       </defs>
       <use xlink:href="#DejaVuSans-52"/>
       <use x="63.623047" xlink:href="#DejaVuSans-48"/>
       <use x="127.246094" xlink:href="#DejaVuSans-48"/>
      </g>
     </g>
    </g>
    <g id="ytick_4">
     <g id="line2d_10">
      <g>
       <use style="stroke:#000000;stroke-width:0.8;" x="54" xlink:href="#m545bdb4db3" y="197.375795"/>
      </g>
     </g>
     <g id="text_11">
      <!-- 600 -->
      <g transform="translate(27.9125 201.175014)scale(0.1 -0.1)">
       <defs>
        <path d="M 33.015625 40.375 
Q 26.375 40.375 22.484375 35.828125 
Q 18.609375 31.296875 18.609375 23.390625 
Q 18.609375 15.53125 22.484375 10.953125 
Q 26.375 6.390625 33.015625 6.390625 
Q 39.65625 6.390625 43.53125 10.953125 
Q 47.40625 15.53125 47.40625 23.390625 
Q 47.40625 31.296875 43.53125 35.828125 
Q 39.65625 40.375 33.015625 40.375 
z
M 52.59375 71.296875 
L 52.59375 62.3125 
Q 48.875 64.0625 45.09375 64.984375 
Q 41.3125 65.921875 37.59375 65.921875 
Q 27.828125 65.921875 22.671875 59.328125 
Q 17.53125 52.734375 16.796875 39.40625 
Q 19.671875 43.65625 24.015625 45.921875 
Q 28.375 48.1875 33.59375 48.1875 
Q 44.578125 48.1875 50.953125 41.515625 
Q 57.328125 34.859375 57.328125 23.390625 
Q 57.328125 12.15625 50.6875 5.359375 
Q 44.046875 -1.421875 33.015625 -1.421875 
Q 20.359375 -1.421875 13.671875 8.265625 
Q 6.984375 17.96875 6.984375 36.375 
Q 6.984375 53.65625 15.1875 63.9375 
Q 23.390625 74.21875 37.203125 74.21875 
Q 40.921875 74.21875 44.703125 73.484375 
Q 48.484375 72.75 52.59375 71.296875 
z
" id="DejaVuSans-54"/>
       </defs>
       <use xlink:href="#DejaVuSans-54"/>
       <use x="63.623047" xlink:href="#DejaVuSans-48"/>
       <use x="127.246094" xlink:href="#DejaVuSans-48"/>
      </g>
     </g>
    </g>
    <g id="ytick_5">
     <g id="line2d_11">
      <g>
       <use style="stroke:#000000;stroke-width:0.8;" x="54" xlink:href="#m545bdb4db3" y="242.136795"/>
      </g>
     </g>
     <g id="text_12">
      <!-- 800 -->
      <g transform="translate(27.9125 245.936014)scale(0.1 -0.1)">
       <defs>
        <path d="M 31.78125 34.625 
Q 24.75 34.625 20.71875 30.859375 
Q 16.703125 27.09375 16.703125 20.515625 
Q 16.703125 13.921875 20.71875 10.15625 
Q 24.75 6.390625 31.78125 6.390625 
Q 38.8125 6.390625 42.859375 10.171875 
Q 46.921875 13.96875 46.921875 20.515625 
Q 46.921875 27.09375 42.890625 30.859375 
Q 38.875 34.625 31.78125 34.625 
z
M 21.921875 38.8125 
Q 15.578125 40.375 12.03125 44.71875 
Q 8.5 49.078125 8.5 55.328125 
Q 8.5 64.0625 14.71875 69.140625 
Q 20.953125 74.21875 31.78125 74.21875 
Q 42.671875 74.21875 48.875 69.140625 
Q 55.078125 64.0625 55.078125 55.328125 
Q 55.078125 49.078125 51.53125 44.71875 
Q 48 40.375 41.703125 38.8125 
Q 48.828125 37.15625 52.796875 32.3125 
Q 56.78125 27.484375 56.78125 20.515625 
Q 56.78125 9.90625 50.3125 4.234375 
Q 43.84375 -1.421875 31.78125 -1.421875 
Q 19.734375 -1.421875 13.25 4.234375 
Q 6.78125 9.90625 6.78125 20.515625 
Q 6.78125 27.484375 10.78125 32.3125 
Q 14.796875 37.15625 21.921875 38.8125 
z
M 18.3125 54.390625 
Q 18.3125 48.734375 21.84375 45.5625 
Q 25.390625 42.390625 31.78125 42.390625 
Q 38.140625 42.390625 41.71875 45.5625 
Q 45.3125 48.734375 45.3125 54.390625 
Q 45.3125 60.0625 41.71875 63.234375 
Q 38.140625 66.40625 31.78125 66.40625 
Q 25.390625 66.40625 21.84375 63.234375 
Q 18.3125 60.0625 18.3125 54.390625 
z
" id="DejaVuSans-56"/>
       </defs>
       <use xlink:href="#DejaVuSans-56"/>
       <use x="63.623047" xlink:href="#DejaVuSans-48"/>
       <use x="127.246094" xlink:href="#DejaVuSans-48"/>
      </g>
     </g>
    </g>
    <g id="text_13">
     <!-- WTD(mm) -->
     <g transform="translate(21.832812 168.769844)rotate(-90)scale(0.1 -0.1)">
      <defs>
       <path d="M -0.296875 72.90625 
L 61.375 72.90625 
L 61.375 64.59375 
L 35.5 64.59375 
L 35.5 0 
L 25.59375 0 
L 25.59375 64.59375 
L -0.296875 64.59375 
z
" id="DejaVuSans-84"/>
       <path d="M 31 75.875 
Q 24.46875 64.65625 21.28125 53.65625 
Q 18.109375 42.671875 18.109375 31.390625 
Q 18.109375 20.125 21.3125 9.0625 
Q 24.515625 -2 31 -13.1875 
L 23.1875 -13.1875 
Q 15.875 -1.703125 12.234375 9.375 
Q 8.59375 20.453125 8.59375 31.390625 
Q 8.59375 42.28125 12.203125 53.3125 
Q 15.828125 64.359375 23.1875 75.875 
z
" id="DejaVuSans-40"/>
       <path d="M 52 44.1875 
Q 55.375 50.25 60.0625 53.125 
Q 64.75 56 71.09375 56 
Q 79.640625 56 84.28125 50.015625 
Q 88.921875 44.046875 88.921875 33.015625 
L 88.921875 0 
L 79.890625 0 
L 79.890625 32.71875 
Q 79.890625 40.578125 77.09375 44.375 
Q 74.3125 48.1875 68.609375 48.1875 
Q 61.625 48.1875 57.5625 43.546875 
Q 53.515625 38.921875 53.515625 30.90625 
L 53.515625 0 
L 44.484375 0 
L 44.484375 32.71875 
Q 44.484375 40.625 41.703125 44.40625 
Q 38.921875 48.1875 33.109375 48.1875 
Q 26.21875 48.1875 22.15625 43.53125 
Q 18.109375 38.875 18.109375 30.90625 
L 18.109375 0 
L 9.078125 0 
L 9.078125 54.6875 
L 18.109375 54.6875 
L 18.109375 46.1875 
Q 21.1875 51.21875 25.484375 53.609375 
Q 29.78125 56 35.6875 56 
Q 41.65625 56 45.828125 52.96875 
Q 50 49.953125 52 44.1875 
z
" id="DejaVuSans-109"/>
       <path d="M 8.015625 75.875 
L 15.828125 75.875 
Q 23.140625 64.359375 26.78125 53.3125 
Q 30.421875 42.28125 30.421875 31.390625 
Q 30.421875 20.453125 26.78125 9.375 
Q 23.140625 -1.703125 15.828125 -13.1875 
L 8.015625 -13.1875 
Q 14.5 -2 17.703125 9.0625 
Q 20.90625 20.125 20.90625 31.390625 
Q 20.90625 42.671875 17.703125 53.65625 
Q 14.5 64.65625 8.015625 75.875 
z
" id="DejaVuSans-41"/>
      </defs>
      <use xlink:href="#DejaVuSans-87"/>
      <use x="98.876953" xlink:href="#DejaVuSans-84"/>
      <use x="159.960938" xlink:href="#DejaVuSans-68"/>
      <use x="236.962891" xlink:href="#DejaVuSans-40"/>
      <use x="275.976562" xlink:href="#DejaVuSans-109"/>
      <use x="373.388672" xlink:href="#DejaVuSans-109"/>
      <use x="470.800781" xlink:href="#DejaVuSans-41"/>
     </g>
    </g>
   </g>
   <g id="line2d_12">
    <path clip-path="url(#pa5fe5b8092)" d="M 81.9 60.417681 
L 81.9 94.410182 
" style="fill:none;stroke:#3d3d3d;stroke-linecap:square;stroke-width:1.5;"/>
   </g>
   <g id="line2d_13">
    <path clip-path="url(#pa5fe5b8092)" d="M 81.9 73.117708 
L 81.9 81.637131 
" style="fill:none;stroke:#3d3d3d;stroke-linecap:square;stroke-width:4.5;"/>
   </g>
   <g id="line2d_14">
    <path clip-path="url(#pa5fe5b8092)" d="M 137.7 76.552861 
L 137.7 113.578885 
" style="fill:none;stroke:#3d3d3d;stroke-linecap:square;stroke-width:1.5;"/>
   </g>
   <g id="line2d_15">
    <path clip-path="url(#pa5fe5b8092)" d="M 137.7 90.365738 
L 137.7 99.65267 
" style="fill:none;stroke:#3d3d3d;stroke-linecap:square;stroke-width:4.5;"/>
   </g>
   <g id="line2d_16">
    <path clip-path="url(#pa5fe5b8092)" d="M 193.5 54.569705 
L 193.5 83.961717 
" style="fill:none;stroke:#3d3d3d;stroke-linecap:square;stroke-width:1.5;"/>
   </g>
   <g id="line2d_17">
    <path clip-path="url(#pa5fe5b8092)" d="M 193.5 65.613769 
L 193.5 72.983831 
" style="fill:none;stroke:#3d3d3d;stroke-linecap:square;stroke-width:4.5;"/>
   </g>
   <g id="line2d_18">
    <path clip-path="url(#pa5fe5b8092)" d="M 249.3 64.61654 
L 249.3 88.772149 
" style="fill:none;stroke:#3d3d3d;stroke-linecap:square;stroke-width:1.5;"/>
   </g>
   <g id="line2d_19">
    <path clip-path="url(#pa5fe5b8092)" d="M 249.3 73.633437 
L 249.3 79.70733 
" style="fill:none;stroke:#3d3d3d;stroke-linecap:square;stroke-width:4.5;"/>
   </g>
   <g id="line2d_20">
    <path clip-path="url(#pa5fe5b8092)" d="M 305.1 80.54482 
L 305.1 122.81029 
" style="fill:none;stroke:#3d3d3d;stroke-linecap:square;stroke-width:1.5;"/>
   </g>
   <g id="line2d_21">
    <path clip-path="url(#pa5fe5b8092)" d="M 305.1 93.384808 
L 305.1 105.17204 
" style="fill:none;stroke:#3d3d3d;stroke-linecap:square;stroke-width:4.5;"/>
   </g>
   <g id="line2d_22">
    <path clip-path="url(#pa5fe5b8092)" d="M 360.9 60.931889 
L 360.9 101.332214 
" style="fill:none;stroke:#3d3d3d;stroke-linecap:square;stroke-width:1.5;"/>
   </g>
   <g id="line2d_23">
    <path clip-path="url(#pa5fe5b8092)" d="M 360.9 72.938191 
L 360.9 84.304015 
" style="fill:none;stroke:#3d3d3d;stroke-linecap:square;stroke-width:4.5;"/>
   </g>
   <g id="line2d_24">
    <path clip-path="url(#pa5fe5b8092)" d="M 54 63.092794 
L 388.8 63.092794 
" style="fill:none;stroke:#000000;stroke-dasharray:1.85,0.8;stroke-dashoffset:0;stroke-width:0.5;"/>
   </g>
   <g id="patch_3">
    <path d="M 54 252 
L 54 34.56 
" style="fill:none;stroke:#000000;stroke-linecap:square;stroke-linejoin:miter;stroke-width:0.8;"/>
   </g>
   <g id="patch_4">
    <path d="M 388.8 252 
L 388.8 34.56 
" style="fill:none;stroke:#000000;stroke-linecap:square;stroke-linejoin:miter;stroke-width:0.8;"/>
   </g>
   <g id="patch_5">
    <path d="M 54 252 
L 388.8 252 
" style="fill:none;stroke:#000000;stroke-linecap:square;stroke-linejoin:miter;stroke-width:0.8;"/>
   </g>
   <g id="patch_6">
    <path d="M 54 34.56 
L 388.8 34.56 
" style="fill:none;stroke:#000000;stroke-linecap:square;stroke-linejoin:miter;stroke-width:0.8;"/>
   </g>
   <g id="PathCollection_1">
    <defs>
     <path d="M 0 1.5 
C 0.397805 1.5 0.77937 1.341951 1.06066 1.06066 
C 1.341951 0.77937 1.5 0.397805 1.5 0 
C 1.5 -0.397805 1.341951 -0.77937 1.06066 -1.06066 
C 0.77937 -1.341951 0.397805 -1.5 0 -1.5 
C -0.397805 -1.5 -0.77937 -1.341951 -1.06066 -1.06066 
C -1.341951 -0.77937 -1.5 -0.397805 -1.5 0 
C -1.5 0.397805 -1.341951 0.77937 -1.06066 1.06066 
C -0.77937 1.341951 -0.397805 1.5 0 1.5 
z
" id="m0cd673e16d" style="stroke:#3d3d3d;"/>
    </defs>
    <g clip-path="url(#pa5fe5b8092)">
     <use style="fill:#ffffff;stroke:#3d3d3d;" x="81.9" xlink:href="#m0cd673e16d" y="76.765847"/>
    </g>
   </g>
   <g id="PathCollection_2">
    <g clip-path="url(#pa5fe5b8092)">
     <use style="fill:#ffffff;stroke:#3d3d3d;" x="137.7" xlink:href="#m0cd673e16d" y="94.051149"/>
    </g>
   </g>
   <g id="PathCollection_3">
    <g clip-path="url(#pa5fe5b8092)">
     <use style="fill:#ffffff;stroke:#3d3d3d;" x="193.5" xlink:href="#m0cd673e16d" y="69.433057"/>
    </g>
   </g>
   <g id="PathCollection_4">
    <g clip-path="url(#pa5fe5b8092)">
     <use style="fill:#ffffff;stroke:#3d3d3d;" x="249.3" xlink:href="#m0cd673e16d" y="76.256202"/>
    </g>
   </g>
   <g id="PathCollection_5">
    <g clip-path="url(#pa5fe5b8092)">
     <use style="fill:#ffffff;stroke:#3d3d3d;" x="305.1" xlink:href="#m0cd673e16d" y="96.844303"/>
    </g>
   </g>
   <g id="PathCollection_6">
    <g clip-path="url(#pa5fe5b8092)">
     <use style="fill:#ffffff;stroke:#3d3d3d;" x="360.9" xlink:href="#m0cd673e16d" y="77.409367"/>
    </g>
   </g>
  </g>
 </g>
 <defs>
  <clipPath id="pa5fe5b8092">
   <rect height="217.44" width="334.8" x="54" y="34.56"/>
  </clipPath>
 </defs>
</svg>
