<?xml version="1.0" encoding="utf-8" standalone="no"?>
<!DOCTYPE svg PUBLIC "-//W3C//DTD SVG 1.1//EN"
  "http://www.w3.org/Graphics/SVG/1.1/DTD/svg11.dtd">
<!-- Created with matplotlib (https://matplotlib.org/) -->
<svg height="288pt" version="1.1" viewBox="0 0 432 288" width="432pt" xmlns="http://www.w3.org/2000/svg" xmlns:xlink="http://www.w3.org/1999/xlink">
 <metadata>
  <rdf:RDF xmlns:cc="http://creativecommons.org/ns#" xmlns:dc="http://purl.org/dc/elements/1.1/" xmlns:rdf="http://www.w3.org/1999/02/22-rdf-syntax-ns#">
   <cc:Work>
    <dc:type rdf:resource="http://purl.org/dc/dcmitype/StillImage"/>
    <dc:date>2023-08-15T14:42:10.691960</dc:date>
    <dc:format>image/svg+xml</dc:format>
    <dc:creator>
     <cc:Agent>
      <dc:title>Matplotlib v3.3.3, https://matplotlib.org/</dc:title>
     </cc:Agent>
    </dc:creator>
   </cc:Work>
  </rdf:RDF>
 </metadata>
 <defs>
  <style type="text/css">*{stroke-linecap:butt;stroke-linejoin:round;}</style>
 </defs>
 <g id="figure_1">
  <g id="patch_1">
   <path d="M 0 288 
L 432 288 
L 432 0 
L 0 0 
z
" style="fill:none;"/>
  </g>
  <g id="axes_1">
   <g id="patch_2">
    <path d="M 54 252 
L 388.8 252 
L 388.8 34.56 
L 54 34.56 
z
" style="fill:#ffffff;"/>
   </g>
   <g id="PolyCollection_1">
    <defs>
     <path d="M 81.905143 -235.771907 
L 81.894857 -235.771907 
L 81.887093 -234.013917 
L 81.870403 -232.255928 
L 81.836408 -230.497939 
L 81.768238 -228.739949 
L 81.630642 -226.98196 
L 81.353419 -225.22397 
L 80.812265 -223.465981 
L 79.82081 -221.707992 
L 78.157006 -219.950002 
L 75.645823 -218.192013 
L 72.29551 -216.434023 
L 68.433838 -214.676034 
L 64.741294 -212.918045 
L 62.089266 -211.160055 
L 61.202045 -209.402066 
L 62.314452 -207.644077 
L 65.04926 -205.886087 
L 68.60569 -204.128098 
L 72.130672 -202.370108 
L 75.036043 -200.612119 
L 77.108683 -198.85413 
L 78.428337 -197.09614 
L 79.207299 -195.338151 
L 79.655366 -193.580161 
L 79.912595 -191.822172 
L 80.044493 -190.064183 
L 80.074915 -188.306193 
L 80.028798 -186.548204 
L 79.959587 -184.790215 
L 79.945001 -183.032225 
L 80.053211 -181.274236 
L 80.303523 -179.516246 
L 80.652994 -177.758257 
L 81.020937 -176.000268 
L 81.3324 -174.242278 
L 81.549291 -172.484289 
L 81.673496 -170.726299 
L 81.730042 -168.96831 
L 81.747753 -167.210321 
L 81.748172 -165.452331 
L 81.743237 -163.694342 
L 81.737319 -161.936352 
L 81.730051 -160.178363 
L 81.718872 -158.420374 
L 81.701482 -156.662384 
L 81.677938 -154.904395 
L 81.651337 -153.146406 
L 81.626483 -151.388416 
L 81.607397 -149.630427 
L 81.595515 -147.872437 
L 81.589652 -146.114448 
L 81.587381 -144.356459 
L 81.586696 -142.598469 
L 81.586972 -140.84048 
L 81.588827 -139.08249 
L 81.593098 -137.324501 
L 81.599765 -135.566512 
L 81.607714 -133.808522 
L 81.615524 -132.050533 
L 81.622485 -130.292544 
L 81.62872 -128.534554 
L 81.634121 -126.776565 
L 81.637142 -125.018575 
L 81.63511 -123.260586 
L 81.626549 -121.502597 
L 81.613826 -119.744607 
L 81.603407 -117.986618 
L 81.602598 -116.228628 
L 81.614774 -114.470639 
L 81.636618 -112.71265 
L 81.659478 -110.95466 
L 81.673869 -109.196671 
L 81.674175 -107.438681 
L 81.660846 -105.680692 
L 81.639225 -103.922703 
L 81.616168 -102.164713 
L 81.596643 -100.406724 
L 81.582067 -98.648735 
L 81.570716 -96.890745 
L 81.55942 -95.132756 
L 81.545501 -93.374766 
L 81.528292 -91.616777 
L 81.509936 -89.858788 
L 81.495216 -88.100798 
L 81.490342 -86.342809 
L 81.500935 -84.584819 
L 81.529906 -82.82683 
L 81.57605 -81.068841 
L 81.63405 -79.310851 
L 81.695964 -77.552862 
L 81.753703 -75.794873 
L 81.801444 -74.036883 
L 81.836919 -72.278894 
L 81.861087 -70.520904 
L 81.876644 -68.762915 
L 81.886418 -67.004926 
L 81.892493 -65.246936 
L 81.896159 -63.488947 
L 81.898223 -61.730957 
L 81.901777 -61.730957 
L 81.901777 -61.730957 
L 81.903841 -63.488947 
L 81.907507 -65.246936 
L 81.913582 -67.004926 
L 81.923356 -68.762915 
L 81.938913 -70.520904 
L 81.963081 -72.278894 
L 81.998556 -74.036883 
L 82.046297 -75.794873 
L 82.104036 -77.552862 
L 82.16595 -79.310851 
L 82.22395 -81.068841 
L 82.270094 -82.82683 
L 82.299065 -84.584819 
L 82.309658 -86.342809 
L 82.304784 -88.100798 
L 82.290064 -89.858788 
L 82.271708 -91.616777 
L 82.254499 -93.374766 
L 82.24058 -95.132756 
L 82.229284 -96.890745 
L 82.217933 -98.648735 
L 82.203357 -100.406724 
L 82.183832 -102.164713 
L 82.160775 -103.922703 
L 82.139154 -105.680692 
L 82.125825 -107.438681 
L 82.126131 -109.196671 
L 82.140522 -110.95466 
L 82.163382 -112.71265 
L 82.185226 -114.470639 
L 82.197402 -116.228628 
L 82.196593 -117.986618 
L 82.186174 -119.744607 
L 82.173451 -121.502597 
L 82.16489 -123.260586 
L 82.162858 -125.018575 
L 82.165879 -126.776565 
L 82.17128 -128.534554 
L 82.177515 -130.292544 
L 82.184476 -132.050533 
L 82.192286 -133.808522 
L 82.200235 -135.566512 
L 82.206902 -137.324501 
L 82.211173 -139.08249 
L 82.213028 -140.84048 
L 82.213304 -142.598469 
L 82.212619 -144.356459 
L 82.210348 -146.114448 
L 82.204485 -147.872437 
L 82.192603 -149.630427 
L 82.173517 -151.388416 
L 82.148663 -153.146406 
L 82.122062 -154.904395 
L 82.098518 -156.662384 
L 82.081128 -158.420374 
L 82.069949 -160.178363 
L 82.062681 -161.936352 
L 82.056763 -163.694342 
L 82.051828 -165.452331 
L 82.052247 -167.210321 
L 82.069958 -168.96831 
L 82.126504 -170.726299 
L 82.250709 -172.484289 
L 82.4676 -174.242278 
L 82.779063 -176.000268 
L 83.147006 -177.758257 
L 83.496477 -179.516246 
L 83.746789 -181.274236 
L 83.854999 -183.032225 
L 83.840413 -184.790215 
L 83.771202 -186.548204 
L 83.725085 -188.306193 
L 83.755507 -190.064183 
L 83.887405 -191.822172 
L 84.144634 -193.580161 
L 84.592701 -195.338151 
L 85.371663 -197.09614 
L 86.691317 -198.85413 
L 88.763957 -200.612119 
L 91.669328 -202.370108 
L 95.19431 -204.128098 
L 98.75074 -205.886087 
L 101.485548 -207.644077 
L 102.597955 -209.402066 
L 101.710734 -211.160055 
L 99.058706 -212.918045 
L 95.366162 -214.676034 
L 91.50449 -216.434023 
L 88.154177 -218.192013 
L 85.642994 -219.950002 
L 83.97919 -221.707992 
L 82.987735 -223.465981 
L 82.446581 -225.22397 
L 82.169358 -226.98196 
L 82.031762 -228.739949 
L 81.963592 -230.497939 
L 81.929597 -232.255928 
L 81.912907 -234.013917 
L 81.905143 -235.771907 
z
" id="m2d1ec0dee3" style="stroke:#3d3d3d;stroke-width:1.5;"/>
    </defs>
    <g clip-path="url(#p1ab6a98bf9)">
     <use style="fill:#3274a1;stroke:#3d3d3d;stroke-width:1.5;" x="0" xlink:href="#m2d1ec0dee3" y="288"/>
    </g>
   </g>
   <g id="PolyCollection_2">
    <defs>
     <path d="M 137.709462 -232.176072 
L 137.690538 -232.176072 
L 137.6748 -230.425494 
L 137.637244 -228.674917 
L 137.552776 -226.924339 
L 137.373565 -225.173761 
L 137.016688 -223.423184 
L 136.355598 -221.672606 
L 135.228304 -219.922029 
L 133.477748 -218.171451 
L 131.030065 -216.420874 
L 127.991196 -214.670296 
L 124.711758 -212.919719 
L 121.758876 -211.169141 
L 119.765581 -209.418563 
L 119.200726 -207.667986 
L 120.171406 -205.917408 
L 122.374181 -204.166831 
L 125.229732 -202.416253 
L 128.121661 -200.665676 
L 130.603595 -198.915098 
L 132.480358 -197.16452 
L 133.763926 -195.413943 
L 134.573281 -193.663365 
L 135.04958 -191.912788 
L 135.315744 -190.16221 
L 135.468506 -188.411633 
L 135.578824 -186.661055 
L 135.6896 -184.910477 
L 135.8158 -183.1599 
L 135.954084 -181.409322 
L 136.098293 -179.658745 
L 136.249053 -177.908167 
L 136.41071 -176.15759 
L 136.581362 -174.407012 
L 136.747783 -172.656435 
L 136.890893 -170.905857 
L 136.996773 -169.155279 
L 137.063981 -167.404702 
L 137.102564 -165.654124 
L 137.127319 -163.903547 
L 137.15082 -162.152969 
L 137.179721 -160.402392 
L 137.214393 -158.651814 
L 137.250447 -156.901236 
L 137.281075 -155.150659 
L 137.299926 -153.400081 
L 137.304021 -151.649504 
L 137.295484 -149.898926 
L 137.280852 -148.148349 
L 137.268069 -146.397771 
L 137.262872 -144.647193 
L 137.266658 -142.896616 
L 137.276858 -141.146038 
L 137.289165 -139.395461 
L 137.300006 -137.644883 
L 137.307897 -135.894306 
L 137.313366 -134.143728 
L 137.318004 -132.39315 
L 137.323491 -130.642573 
L 137.33103 -128.891995 
L 137.341116 -127.141418 
L 137.353343 -125.39084 
L 137.36622 -123.640263 
L 137.377389 -121.889685 
L 137.384677 -120.139108 
L 137.387701 -118.38853 
L 137.388844 -116.637952 
L 137.392465 -114.887375 
L 137.40244 -113.136797 
L 137.419531 -111.38622 
L 137.440301 -109.635642 
L 137.458369 -107.885065 
L 137.467364 -106.134487 
L 137.46402 -104.383909 
L 137.449689 -102.633332 
L 137.429417 -100.882754 
L 137.409135 -99.132177 
L 137.392692 -97.381599 
L 137.380478 -95.631022 
L 137.37024 -93.880444 
L 137.359266 -92.129866 
L 137.346472 -90.379289 
L 137.333191 -88.628711 
L 137.3224 -86.878134 
L 137.317139 -85.127556 
L 137.319415 -83.376979 
L 137.330369 -81.626401 
L 137.351172 -79.875824 
L 137.38314 -78.125246 
L 137.426379 -76.374668 
L 137.478088 -74.624091 
L 137.532425 -72.873513 
L 137.582543 -71.122936 
L 137.623357 -69.372358 
L 137.653075 -67.621781 
L 137.67279 -65.871203 
L 137.684973 -64.120625 
L 137.692118 -62.370048 
L 137.696116 -60.61947 
L 137.69823 -58.868893 
L 137.70177 -58.868893 
L 137.70177 -58.868893 
L 137.703884 -60.61947 
L 137.707882 -62.370048 
L 137.715027 -64.120625 
L 137.72721 -65.871203 
L 137.746925 -67.621781 
L 137.776643 -69.372358 
L 137.817457 -71.122936 
L 137.867575 -72.873513 
L 137.921912 -74.624091 
L 137.973621 -76.374668 
L 138.01686 -78.125246 
L 138.048828 -79.875824 
L 138.069631 -81.626401 
L 138.080585 -83.376979 
L 138.082861 -85.127556 
L 138.0776 -86.878134 
L 138.066809 -88.628711 
L 138.053528 -90.379289 
L 138.040734 -92.129866 
L 138.02976 -93.880444 
L 138.019522 -95.631022 
L 138.007308 -97.381599 
L 137.990865 -99.132177 
L 137.970583 -100.882754 
L 137.950311 -102.633332 
L 137.93598 -104.383909 
L 137.932636 -106.134487 
L 137.941631 -107.885065 
L 137.959699 -109.635642 
L 137.980469 -111.38622 
L 137.99756 -113.136797 
L 138.007535 -114.887375 
L 138.011156 -116.637952 
L 138.012299 -118.38853 
L 138.015323 -120.139108 
L 138.022611 -121.889685 
L 138.03378 -123.640263 
L 138.046657 -125.39084 
L 138.058884 -127.141418 
L 138.06897 -128.891995 
L 138.076509 -130.642573 
L 138.081996 -132.39315 
L 138.086634 -134.143728 
L 138.092103 -135.894306 
L 138.099994 -137.644883 
L 138.110835 -139.395461 
L 138.123142 -141.146038 
L 138.133342 -142.896616 
L 138.137128 -144.647193 
L 138.131931 -146.397771 
L 138.119148 -148.148349 
L 138.104516 -149.898926 
L 138.095979 -151.649504 
L 138.100074 -153.400081 
L 138.118925 -155.150659 
L 138.149553 -156.901236 
L 138.185607 -158.651814 
L 138.220279 -160.402392 
L 138.24918 -162.152969 
L 138.272681 -163.903547 
L 138.297436 -165.654124 
L 138.336019 -167.404702 
L 138.403227 -169.155279 
L 138.509107 -170.905857 
L 138.652217 -172.656435 
L 138.818638 -174.407012 
L 138.98929 -176.15759 
L 139.150947 -177.908167 
L 139.301707 -179.658745 
L 139.445916 -181.409322 
L 139.5842 -183.1599 
L 139.7104 -184.910477 
L 139.821176 -186.661055 
L 139.931494 -188.411633 
L 140.084256 -190.16221 
L 140.35042 -191.912788 
L 140.826719 -193.663365 
L 141.636074 -195.413943 
L 142.919642 -197.16452 
L 144.796405 -198.915098 
L 147.278339 -200.665676 
L 150.170268 -202.416253 
L 153.025819 -204.166831 
L 155.228594 -205.917408 
L 156.199274 -207.667986 
L 155.634419 -209.418563 
L 153.641124 -211.169141 
L 150.688242 -212.919719 
L 147.408804 -214.670296 
L 144.369935 -216.420874 
L 141.922252 -218.171451 
L 140.171696 -219.922029 
L 139.044402 -221.672606 
L 138.383312 -223.423184 
L 138.026435 -225.173761 
L 137.847224 -226.924339 
L 137.762756 -228.674917 
L 137.7252 -230.425494 
L 137.709462 -232.176072 
z
" id="mf140784447" style="stroke:#3d3d3d;stroke-width:1.5;"/>
    </defs>
    <g clip-path="url(#p1ab6a98bf9)">
     <use style="fill:#e1812c;stroke:#3d3d3d;stroke-width:1.5;" x="0" xlink:href="#mf140784447" y="288"/>
    </g>
   </g>
   <g id="PolyCollection_3">
    <defs>
     <path d="M 193.504844 -240.257699 
L 193.495156 -240.257699 
L 193.488393 -238.512381 
L 193.47529 -236.767063 
L 193.45249 -235.021745 
L 193.414875 -233.276427 
L 193.350371 -231.53111 
L 193.226056 -229.785792 
L 192.962429 -228.040474 
L 192.400522 -226.295156 
L 191.283593 -224.549838 
L 189.295873 -222.80452 
L 186.201376 -221.059202 
L 182.071138 -219.313885 
L 177.478236 -217.568567 
L 173.465438 -215.823249 
L 171.18 -214.077931 
L 171.326174 -212.332613 
L 173.792184 -210.587295 
L 177.724224 -208.841977 
L 181.98501 -207.09666 
L 185.664087 -205.351342 
L 188.338445 -203.606024 
L 190.027125 -201.860706 
L 190.984437 -200.115388 
L 191.500721 -198.37007 
L 191.791755 -196.624752 
L 191.974126 -194.879434 
L 192.090926 -193.134117 
L 192.15274 -191.388799 
L 192.16968 -189.643481 
L 192.163622 -187.898163 
L 192.16325 -186.152845 
L 192.192694 -184.407527 
L 192.263758 -182.662209 
L 192.374953 -180.916892 
L 192.51472 -179.171574 
L 192.665695 -177.426256 
L 192.809319 -175.680938 
L 192.93082 -173.93562 
L 193.023082 -172.190302 
L 193.087423 -170.444984 
L 193.131064 -168.699667 
L 193.162918 -166.954349 
L 193.189656 -165.209031 
L 193.213565 -163.463713 
L 193.232834 -161.718395 
L 193.24385 -159.973077 
L 193.244092 -158.227759 
L 193.234065 -156.482441 
L 193.217424 -154.737124 
L 193.199462 -152.991806 
L 193.184897 -151.246488 
L 193.176123 -149.50117 
L 193.172761 -147.755852 
L 193.172584 -146.010534 
L 193.173189 -144.265216 
L 193.173387 -142.519899 
L 193.173601 -140.774581 
L 193.175244 -139.029263 
L 193.179589 -137.283945 
L 193.186841 -135.538627 
L 193.195815 -133.793309 
L 193.20424 -132.047991 
L 193.20954 -130.302674 
L 193.209961 -128.557356 
L 193.20578 -126.812038 
L 193.199924 -125.06672 
L 193.197229 -123.321402 
L 193.202223 -121.576084 
L 193.216402 -119.830766 
L 193.236675 -118.085448 
L 193.256231 -116.340131 
L 193.267683 -114.594813 
L 193.266685 -112.849495 
L 193.253804 -111.104177 
L 193.233571 -109.358859 
L 193.211684 -107.613541 
L 193.192318 -105.868223 
L 193.176998 -104.122906 
L 193.165074 -102.377588 
L 193.154946 -100.63227 
L 193.145154 -98.886952 
L 193.134999 -97.141634 
L 193.124827 -95.396316 
L 193.116253 -93.650998 
L 193.112351 -91.905681 
L 193.117516 -90.160363 
L 193.13641 -88.415045 
L 193.171827 -86.669727 
L 193.222407 -84.924409 
L 193.281982 -83.179091 
L 193.341585 -81.433773 
L 193.393116 -79.688456 
L 193.432266 -77.943138 
L 193.459015 -76.19782 
L 193.475999 -74.452502 
L 193.486392 -72.707184 
L 193.492649 -70.961866 
L 193.496311 -69.216548 
L 193.498321 -67.47123 
L 193.501679 -67.47123 
L 193.501679 -67.47123 
L 193.503689 -69.216548 
L 193.507351 -70.961866 
L 193.513608 -72.707184 
L 193.524001 -74.452502 
L 193.540985 -76.19782 
L 193.567734 -77.943138 
L 193.606884 -79.688456 
L 193.658415 -81.433773 
L 193.718018 -83.179091 
L 193.777593 -84.924409 
L 193.828173 -86.669727 
L 193.86359 -88.415045 
L 193.882484 -90.160363 
L 193.887649 -91.905681 
L 193.883747 -93.650998 
L 193.875173 -95.396316 
L 193.865001 -97.141634 
L 193.854846 -98.886952 
L 193.845054 -100.63227 
L 193.834926 -102.377588 
L 193.823002 -104.122906 
L 193.807682 -105.868223 
L 193.788316 -107.613541 
L 193.766429 -109.358859 
L 193.746196 -111.104177 
L 193.733315 -112.849495 
L 193.732317 -114.594813 
L 193.743769 -116.340131 
L 193.763325 -118.085448 
L 193.783598 -119.830766 
L 193.797777 -121.576084 
L 193.802771 -123.321402 
L 193.800076 -125.06672 
L 193.79422 -126.812038 
L 193.790039 -128.557356 
L 193.79046 -130.302674 
L 193.79576 -132.047991 
L 193.804185 -133.793309 
L 193.813159 -135.538627 
L 193.820411 -137.283945 
L 193.824756 -139.029263 
L 193.826399 -140.774581 
L 193.826613 -142.519899 
L 193.826811 -144.265216 
L 193.827416 -146.010534 
L 193.827239 -147.755852 
L 193.823877 -149.50117 
L 193.815103 -151.246488 
L 193.800538 -152.991806 
L 193.782576 -154.737124 
L 193.765935 -156.482441 
L 193.755908 -158.227759 
L 193.75615 -159.973077 
L 193.767166 -161.718395 
L 193.786435 -163.463713 
L 193.810344 -165.209031 
L 193.837082 -166.954349 
L 193.868936 -168.699667 
L 193.912577 -170.444984 
L 193.976918 -172.190302 
L 194.06918 -173.93562 
L 194.190681 -175.680938 
L 194.334305 -177.426256 
L 194.48528 -179.171574 
L 194.625047 -180.916892 
L 194.736242 -182.662209 
L 194.807306 -184.407527 
L 194.83675 -186.152845 
L 194.836378 -187.898163 
L 194.83032 -189.643481 
L 194.84726 -191.388799 
L 194.909074 -193.134117 
L 195.025874 -194.879434 
L 195.208245 -196.624752 
L 195.499279 -198.37007 
L 196.015563 -200.115388 
L 196.972875 -201.860706 
L 198.661555 -203.606024 
L 201.335913 -205.351342 
L 205.01499 -207.09666 
L 209.275776 -208.841977 
L 213.207816 -210.587295 
L 215.673826 -212.332613 
L 215.82 -214.077931 
L 213.534562 -215.823249 
L 209.521764 -217.568567 
L 204.928862 -219.313885 
L 200.798624 -221.059202 
L 197.704127 -222.80452 
L 195.716407 -224.549838 
L 194.599478 -226.295156 
L 194.037571 -228.040474 
L 193.773944 -229.785792 
L 193.649629 -231.53111 
L 193.585125 -233.276427 
L 193.54751 -235.021745 
L 193.52471 -236.767063 
L 193.511607 -238.512381 
L 193.504844 -240.257699 
z
" id="mea5a62c255" style="stroke:#3d3d3d;stroke-width:1.5;"/>
    </defs>
    <g clip-path="url(#p1ab6a98bf9)">
     <use style="fill:#3a923a;stroke:#3d3d3d;stroke-width:1.5;" x="0" xlink:href="#mea5a62c255" y="288"/>
    </g>
   </g>
   <g id="PolyCollection_4">
    <defs>
     <path d="M 249.305472 -233.864599 
L 249.294528 -233.864599 
L 249.284557 -232.097723 
L 249.258872 -230.330848 
L 249.196092 -228.563972 
L 249.051285 -226.797097 
L 248.739798 -225.030221 
L 248.123543 -223.263346 
L 247.016803 -221.49647 
L 245.233841 -219.729594 
L 242.687409 -217.962719 
L 239.509587 -216.195843 
L 236.122928 -214.428968 
L 233.182646 -212.662092 
L 231.370009 -210.895217 
L 231.119043 -209.128341 
L 232.425962 -207.361465 
L 234.857058 -205.59459 
L 237.749958 -203.827714 
L 240.485989 -202.060839 
L 242.684804 -200.293963 
L 244.244663 -198.527088 
L 245.25567 -196.760212 
L 245.873748 -194.993336 
L 246.233667 -193.226461 
L 246.426619 -191.459585 
L 246.518388 -189.69271 
L 246.568998 -187.925834 
L 246.633128 -186.158959 
L 246.747688 -184.392083 
L 246.924088 -182.625207 
L 247.153367 -180.858332 
L 247.417756 -179.091456 
L 247.698481 -177.324581 
L 247.977114 -175.557705 
L 248.235143 -173.79083 
L 248.456094 -172.023954 
L 248.629619 -170.257079 
L 248.754184 -168.490203 
L 248.836406 -166.723327 
L 248.887896 -164.956452 
L 248.921492 -163.189576 
L 248.947954 -161.422701 
L 248.973449 -159.655825 
L 248.998487 -157.88895 
L 249.019186 -156.122074 
L 249.030625 -154.355198 
L 249.030433 -152.588323 
L 249.020406 -150.821447 
L 249.005465 -149.054572 
L 248.991149 -147.287696 
L 248.981468 -145.520821 
L 248.978062 -143.753945 
L 248.980486 -141.987069 
L 248.986988 -140.220194 
L 248.995335 -138.453318 
L 249.003479 -136.686443 
L 249.009997 -134.919567 
L 249.014349 -133.152692 
L 249.017055 -131.385816 
L 249.019626 -129.61894 
L 249.023874 -127.852065 
L 249.030592 -126.085189 
L 249.038437 -124.318314 
L 249.044247 -122.551438 
L 249.045049 -120.784563 
L 249.040428 -119.017687 
L 249.03331 -117.250811 
L 249.028385 -115.483936 
L 249.029302 -113.71706 
L 249.036541 -111.950185 
L 249.047062 -110.183309 
L 249.055683 -108.416434 
L 249.057473 -106.649558 
L 249.05019 -104.882682 
L 249.035525 -103.115807 
L 249.018177 -101.348931 
L 249.003056 -99.582056 
L 248.992385 -97.81518 
L 248.984728 -96.048305 
L 248.976617 -94.281429 
L 248.965561 -92.514553 
L 248.952257 -90.747678 
L 248.940404 -88.980802 
L 248.934252 -87.213927 
L 248.935768 -85.447051 
L 248.943738 -83.680176 
L 248.955725 -81.9133 
L 248.97122 -80.146424 
L 248.992989 -78.379549 
L 249.024966 -76.612673 
L 249.068333 -74.845798 
L 249.119266 -73.078922 
L 249.170355 -71.312047 
L 249.214407 -69.545171 
L 249.247566 -67.778296 
L 249.269832 -66.01142 
L 249.283533 -64.244544 
L 249.29146 -62.477669 
L 249.295834 -60.710793 
L 249.29812 -58.943918 
L 249.30188 -58.943918 
L 249.30188 -58.943918 
L 249.304166 -60.710793 
L 249.30854 -62.477669 
L 249.316467 -64.244544 
L 249.330168 -66.01142 
L 249.352434 -67.778296 
L 249.385593 -69.545171 
L 249.429645 -71.312047 
L 249.480734 -73.078922 
L 249.531667 -74.845798 
L 249.575034 -76.612673 
L 249.607011 -78.379549 
L 249.62878 -80.146424 
L 249.644275 -81.9133 
L 249.656262 -83.680176 
L 249.664232 -85.447051 
L 249.665748 -87.213927 
L 249.659596 -88.980802 
L 249.647743 -90.747678 
L 249.634439 -92.514553 
L 249.623383 -94.281429 
L 249.615272 -96.048305 
L 249.607615 -97.81518 
L 249.596944 -99.582056 
L 249.581823 -101.348931 
L 249.564475 -103.115807 
L 249.54981 -104.882682 
L 249.542527 -106.649558 
L 249.544317 -108.416434 
L 249.552938 -110.183309 
L 249.563459 -111.950185 
L 249.570698 -113.71706 
L 249.571615 -115.483936 
L 249.56669 -117.250811 
L 249.559572 -119.017687 
L 249.554951 -120.784563 
L 249.555753 -122.551438 
L 249.561563 -124.318314 
L 249.569408 -126.085189 
L 249.576126 -127.852065 
L 249.580374 -129.61894 
L 249.582945 -131.385816 
L 249.585651 -133.152692 
L 249.590003 -134.919567 
L 249.596521 -136.686443 
L 249.604665 -138.453318 
L 249.613012 -140.220194 
L 249.619514 -141.987069 
L 249.621938 -143.753945 
L 249.618532 -145.520821 
L 249.608851 -147.287696 
L 249.594535 -149.054572 
L 249.579594 -150.821447 
L 249.569567 -152.588323 
L 249.569375 -154.355198 
L 249.580814 -156.122074 
L 249.601513 -157.88895 
L 249.626551 -159.655825 
L 249.652046 -161.422701 
L 249.678508 -163.189576 
L 249.712104 -164.956452 
L 249.763594 -166.723327 
L 249.845816 -168.490203 
L 249.970381 -170.257079 
L 250.143906 -172.023954 
L 250.364857 -173.79083 
L 250.622886 -175.557705 
L 250.901519 -177.324581 
L 251.182244 -179.091456 
L 251.446633 -180.858332 
L 251.675912 -182.625207 
L 251.852312 -184.392083 
L 251.966872 -186.158959 
L 252.031002 -187.925834 
L 252.081612 -189.69271 
L 252.173381 -191.459585 
L 252.366333 -193.226461 
L 252.726252 -194.993336 
L 253.34433 -196.760212 
L 254.355337 -198.527088 
L 255.915196 -200.293963 
L 258.114011 -202.060839 
L 260.850042 -203.827714 
L 263.742942 -205.59459 
L 266.174038 -207.361465 
L 267.480957 -209.128341 
L 267.229991 -210.895217 
L 265.417354 -212.662092 
L 262.477072 -214.428968 
L 259.090413 -216.195843 
L 255.912591 -217.962719 
L 253.366159 -219.729594 
L 251.583197 -221.49647 
L 250.476457 -223.263346 
L 249.860202 -225.030221 
L 249.548715 -226.797097 
L 249.403908 -228.563972 
L 249.341128 -230.330848 
L 249.315443 -232.097723 
L 249.305472 -233.864599 
z
" id="ma4b3f2d374" style="stroke:#3d3d3d;stroke-width:1.5;"/>
    </defs>
    <g clip-path="url(#p1ab6a98bf9)">
     <use style="fill:#c03d3e;stroke:#3d3d3d;stroke-width:1.5;" x="0" xlink:href="#ma4b3f2d374" y="288"/>
    </g>
   </g>
   <g id="PolyCollection_5">
    <defs>
     <path d="M 305.108713 -243.556364 
L 305.091287 -243.556364 
L 305.07926 -241.781812 
L 305.052862 -240.007261 
L 304.996612 -238.23271 
L 304.880207 -236.458159 
L 304.648396 -234.683608 
L 304.210495 -232.909056 
L 303.437354 -231.134505 
L 302.177937 -229.359954 
L 300.306069 -227.585403 
L 297.795128 -225.810852 
L 294.79594 -224.0363 
L 291.672963 -222.261749 
L 288.955346 -220.487198 
L 287.194304 -218.712647 
L 286.774167 -216.938095 
L 287.765192 -215.163544 
L 289.896172 -213.388993 
L 292.662566 -211.614442 
L 295.51163 -209.839891 
L 298.011636 -208.065339 
L 299.936985 -206.290788 
L 301.25888 -204.516237 
L 302.078218 -202.741686 
L 302.548831 -200.967135 
L 302.821655 -199.192583 
L 303.016183 -197.418032 
L 303.211139 -195.643481 
L 303.444756 -193.86893 
L 303.720119 -192.094378 
L 304.015226 -190.319827 
L 304.297101 -188.545276 
L 304.536298 -186.770725 
L 304.716549 -184.996174 
L 304.836617 -183.221622 
L 304.90581 -181.447071 
L 304.937443 -179.67252 
L 304.943992 -177.897969 
L 304.935136 -176.123418 
L 304.917768 -174.348866 
L 304.896539 -172.574315 
L 304.874209 -170.799764 
L 304.851815 -169.025213 
L 304.829045 -167.250661 
L 304.80498 -165.47611 
L 304.779049 -163.701559 
L 304.751745 -161.927008 
L 304.724695 -160.152457 
L 304.700005 -158.377905 
L 304.679217 -156.603354 
L 304.66249 -154.828803 
L 304.648491 -153.054252 
L 304.635141 -151.279701 
L 304.620833 -149.505149 
L 304.605441 -147.730598 
L 304.590473 -145.956047 
L 304.578269 -144.181496 
L 304.570753 -142.406944 
L 304.568552 -140.632393 
L 304.570941 -138.857842 
L 304.576427 -137.083291 
L 304.583388 -135.30874 
L 304.590415 -133.534188 
L 304.596465 -131.759637 
L 304.601234 -129.985086 
L 304.605752 -128.210535 
L 304.612627 -126.435984 
L 304.625165 -124.661432 
L 304.645379 -122.886881 
L 304.671988 -121.11233 
L 304.69996 -119.337779 
L 304.722312 -117.563227 
L 304.73335 -115.788676 
L 304.731436 -114.014125 
L 304.719605 -112.239574 
L 304.703697 -110.465023 
L 304.68921 -108.690471 
L 304.678775 -106.91592 
L 304.671601 -105.141369 
L 304.664893 -103.366818 
L 304.656126 -101.592267 
L 304.64481 -99.817715 
L 304.632978 -98.043164 
L 304.624486 -96.268613 
L 304.623797 -94.494062 
L 304.634832 -92.719511 
L 304.660133 -90.944959 
L 304.700232 -89.170408 
L 304.753181 -87.395857 
L 304.814529 -85.621306 
L 304.878101 -83.846754 
L 304.937535 -82.072203 
L 304.987973 -80.297652 
L 305.027083 -78.523101 
L 305.055031 -76.74855 
L 305.073628 -74.973998 
L 305.085273 -73.199447 
L 305.092188 -71.424896 
L 305.09609 -69.650345 
L 305.09817 -67.875794 
L 305.10183 -67.875794 
L 305.10183 -67.875794 
L 305.10391 -69.650345 
L 305.107812 -71.424896 
L 305.114727 -73.199447 
L 305.126372 -74.973998 
L 305.144969 -76.74855 
L 305.172917 -78.523101 
L 305.212027 -80.297652 
L 305.262465 -82.072203 
L 305.321899 -83.846754 
L 305.385471 -85.621306 
L 305.446819 -87.395857 
L 305.499768 -89.170408 
L 305.539867 -90.944959 
L 305.565168 -92.719511 
L 305.576203 -94.494062 
L 305.575514 -96.268613 
L 305.567022 -98.043164 
L 305.55519 -99.817715 
L 305.543874 -101.592267 
L 305.535107 -103.366818 
L 305.528399 -105.141369 
L 305.521225 -106.91592 
L 305.51079 -108.690471 
L 305.496303 -110.465023 
L 305.480395 -112.239574 
L 305.468564 -114.014125 
L 305.46665 -115.788676 
L 305.477688 -117.563227 
L 305.50004 -119.337779 
L 305.528012 -121.11233 
L 305.554621 -122.886881 
L 305.574835 -124.661432 
L 305.587373 -126.435984 
L 305.594248 -128.210535 
L 305.598766 -129.985086 
L 305.603535 -131.759637 
L 305.609585 -133.534188 
L 305.616612 -135.30874 
L 305.623573 -137.083291 
L 305.629059 -138.857842 
L 305.631448 -140.632393 
L 305.629247 -142.406944 
L 305.621731 -144.181496 
L 305.609527 -145.956047 
L 305.594559 -147.730598 
L 305.579167 -149.505149 
L 305.564859 -151.279701 
L 305.551509 -153.054252 
L 305.53751 -154.828803 
L 305.520783 -156.603354 
L 305.499995 -158.377905 
L 305.475305 -160.152457 
L 305.448255 -161.927008 
L 305.420951 -163.701559 
L 305.39502 -165.47611 
L 305.370955 -167.250661 
L 305.348185 -169.025213 
L 305.325791 -170.799764 
L 305.303461 -172.574315 
L 305.282232 -174.348866 
L 305.264864 -176.123418 
L 305.256008 -177.897969 
L 305.262557 -179.67252 
L 305.29419 -181.447071 
L 305.363383 -183.221622 
L 305.483451 -184.996174 
L 305.663702 -186.770725 
L 305.902899 -188.545276 
L 306.184774 -190.319827 
L 306.479881 -192.094378 
L 306.755244 -193.86893 
L 306.988861 -195.643481 
L 307.183817 -197.418032 
L 307.378345 -199.192583 
L 307.651169 -200.967135 
L 308.121782 -202.741686 
L 308.94112 -204.516237 
L 310.263015 -206.290788 
L 312.188364 -208.065339 
L 314.68837 -209.839891 
L 317.537434 -211.614442 
L 320.303828 -213.388993 
L 322.434808 -215.163544 
L 323.425833 -216.938095 
L 323.005696 -218.712647 
L 321.244654 -220.487198 
L 318.527037 -222.261749 
L 315.40406 -224.0363 
L 312.404872 -225.810852 
L 309.893931 -227.585403 
L 308.022063 -229.359954 
L 306.762646 -231.134505 
L 305.989505 -232.909056 
L 305.551604 -234.683608 
L 305.319793 -236.458159 
L 305.203388 -238.23271 
L 305.147138 -240.007261 
L 305.12074 -241.781812 
L 305.108713 -243.556364 
z
" id="m48d1c599e2" style="stroke:#3d3d3d;stroke-width:1.5;"/>
    </defs>
    <g clip-path="url(#p1ab6a98bf9)">
     <use style="fill:#9372b2;stroke:#3d3d3d;stroke-width:1.5;" x="0" xlink:href="#m48d1c599e2" y="288"/>
    </g>
   </g>
   <g id="PolyCollection_6">
    <defs>
     <path d="M 360.909248 -220.43711 
L 360.890752 -220.43711 
L 360.873749 -218.673943 
L 360.831478 -216.910777 
L 360.734819 -215.14761 
L 360.531221 -213.384444 
L 360.136368 -211.621278 
L 359.432889 -209.858111 
L 358.285604 -208.094945 
L 356.580948 -206.331778 
L 354.288465 -204.568612 
L 351.526184 -202.805446 
L 348.597148 -201.042279 
L 345.961914 -199.279113 
L 344.130318 -197.515946 
L 343.495824 -195.75278 
L 344.181131 -193.989614 
L 345.979797 -192.226447 
L 348.437493 -190.463281 
L 351.03378 -188.700115 
L 353.362897 -186.936948 
L 355.222633 -185.173782 
L 356.592435 -183.410615 
L 357.551069 -181.647449 
L 358.19981 -179.884283 
L 358.624483 -178.121116 
L 358.889833 -176.35795 
L 359.04365 -174.594783 
L 359.116665 -172.831617 
L 359.120417 -171.068451 
L 359.053632 -169.305284 
L 358.922065 -167.542118 
L 358.76164 -165.778951 
L 358.643809 -164.015785 
L 358.649907 -162.252619 
L 358.826818 -160.489452 
L 359.156445 -158.726286 
L 359.563636 -156.963119 
L 359.956463 -155.199953 
L 360.268732 -153.436787 
L 360.478532 -151.67362 
L 360.599665 -149.910454 
L 360.660801 -148.147287 
L 360.688126 -146.384121 
L 360.697882 -144.620955 
L 360.696957 -142.857788 
L 360.687116 -141.094622 
L 360.669295 -139.331455 
L 360.645985 -137.568289 
L 360.621316 -135.805123 
L 360.599719 -134.041956 
L 360.584464 -132.27879 
L 360.576916 -130.515623 
L 360.576554 -128.752457 
L 360.581463 -126.989291 
L 360.589085 -125.226124 
L 360.597018 -123.462958 
L 360.60361 -121.699791 
L 360.608211 -119.936625 
L 360.611172 -118.173459 
L 360.613723 -116.410292 
L 360.617486 -114.647126 
L 360.623404 -112.883959 
L 360.630564 -111.120793 
L 360.636118 -109.357627 
L 360.637004 -107.59446 
L 360.632481 -105.831294 
L 360.625396 -104.068127 
L 360.620906 -102.304961 
L 360.623409 -100.541795 
L 360.633804 -98.778628 
L 360.6487 -97.015462 
L 360.661886 -95.252295 
L 360.667217 -93.489129 
L 360.661551 -91.725963 
L 360.646225 -89.962796 
L 360.626177 -88.19963 
L 360.607115 -86.436463 
L 360.592455 -84.673297 
L 360.581949 -82.910131 
L 360.572732 -81.146964 
L 360.561945 -79.383798 
L 360.549118 -77.620632 
L 360.536715 -75.857465 
L 360.528484 -74.094299 
L 360.526932 -72.331132 
L 360.532107 -70.567966 
L 360.542892 -68.8048 
L 360.559542 -67.041633 
L 360.584655 -65.278467 
L 360.621094 -63.5153 
L 360.668547 -61.752134 
L 360.722032 -59.988968 
L 360.773852 -58.225801 
L 360.817344 -56.462635 
L 360.849467 -54.699468 
L 360.870823 -52.936302 
L 360.883953 -51.173136 
L 360.891602 -49.409969 
L 360.895867 -47.646803 
L 360.898121 -45.883636 
L 360.901879 -45.883636 
L 360.901879 -45.883636 
L 360.904133 -47.646803 
L 360.908398 -49.409969 
L 360.916047 -51.173136 
L 360.929177 -52.936302 
L 360.950533 -54.699468 
L 360.982656 -56.462635 
L 361.026148 -58.225801 
L 361.077968 -59.988968 
L 361.131453 -61.752134 
L 361.178906 -63.5153 
L 361.215345 -65.278467 
L 361.240458 -67.041633 
L 361.257108 -68.8048 
L 361.267893 -70.567966 
L 361.273068 -72.331132 
L 361.271516 -74.094299 
L 361.263285 -75.857465 
L 361.250882 -77.620632 
L 361.238055 -79.383798 
L 361.227268 -81.146964 
L 361.218051 -82.910131 
L 361.207545 -84.673297 
L 361.192885 -86.436463 
L 361.173823 -88.19963 
L 361.153775 -89.962796 
L 361.138449 -91.725963 
L 361.132783 -93.489129 
L 361.138114 -95.252295 
L 361.1513 -97.015462 
L 361.166196 -98.778628 
L 361.176591 -100.541795 
L 361.179094 -102.304961 
L 361.174604 -104.068127 
L 361.167519 -105.831294 
L 361.162996 -107.59446 
L 361.163882 -109.357627 
L 361.169436 -111.120793 
L 361.176596 -112.883959 
L 361.182514 -114.647126 
L 361.186277 -116.410292 
L 361.188828 -118.173459 
L 361.191789 -119.936625 
L 361.19639 -121.699791 
L 361.202982 -123.462958 
L 361.210915 -125.226124 
L 361.218537 -126.989291 
L 361.223446 -128.752457 
L 361.223084 -130.515623 
L 361.215536 -132.27879 
L 361.200281 -134.041956 
L 361.178684 -135.805123 
L 361.154015 -137.568289 
L 361.130705 -139.331455 
L 361.112884 -141.094622 
L 361.103043 -142.857788 
L 361.102118 -144.620955 
L 361.111874 -146.384121 
L 361.139199 -148.147287 
L 361.200335 -149.910454 
L 361.321468 -151.67362 
L 361.531268 -153.436787 
L 361.843537 -155.199953 
L 362.236364 -156.963119 
L 362.643555 -158.726286 
L 362.973182 -160.489452 
L 363.150093 -162.252619 
L 363.156191 -164.015785 
L 363.03836 -165.778951 
L 362.877935 -167.542118 
L 362.746368 -169.305284 
L 362.679583 -171.068451 
L 362.683335 -172.831617 
L 362.75635 -174.594783 
L 362.910167 -176.35795 
L 363.175517 -178.121116 
L 363.60019 -179.884283 
L 364.248931 -181.647449 
L 365.207565 -183.410615 
L 366.577367 -185.173782 
L 368.437103 -186.936948 
L 370.76622 -188.700115 
L 373.362507 -190.463281 
L 375.820203 -192.226447 
L 377.618869 -193.989614 
L 378.304176 -195.75278 
L 377.669682 -197.515946 
L 375.838086 -199.279113 
L 373.202852 -201.042279 
L 370.273816 -202.805446 
L 367.511535 -204.568612 
L 365.219052 -206.331778 
L 363.514396 -208.094945 
L 362.367111 -209.858111 
L 361.663632 -211.621278 
L 361.268779 -213.384444 
L 361.065181 -215.14761 
L 360.968522 -216.910777 
L 360.926251 -218.673943 
L 360.909248 -220.43711 
z
" id="m5a6dda9389" style="stroke:#3d3d3d;stroke-width:1.5;"/>
    </defs>
    <g clip-path="url(#p1ab6a98bf9)">
     <use style="fill:#845b53;stroke:#3d3d3d;stroke-width:1.5;" x="0" xlink:href="#m5a6dda9389" y="288"/>
    </g>
   </g>
   <g id="matplotlib.axis_1">
    <g id="xtick_1">
     <g id="line2d_1">
      <defs>
       <path d="M 0 0 
L 0 3.5 
" id="m362c4379e7" style="stroke:#000000;stroke-width:0.8;"/>
      </defs>
      <g>
       <use style="stroke:#000000;stroke-width:0.8;" x="81.9" xlink:href="#m362c4379e7" y="252"/>
      </g>
     </g>
     <g id="text_1">
      <!-- MHNN1 -->
      <g transform="translate(63.163281 266.598437)scale(0.1 -0.1)">
       <defs>
        <path d="M 9.8125 72.90625 
L 24.515625 72.90625 
L 43.109375 23.296875 
L 61.8125 72.90625 
L 76.515625 72.90625 
L 76.515625 0 
L 66.890625 0 
L 66.890625 64.015625 
L 48.09375 14.015625 
L 38.1875 14.015625 
L 19.390625 64.015625 
L 19.390625 0 
L 9.8125 0 
z
" id="DejaVuSans-77"/>
        <path d="M 9.8125 72.90625 
L 19.671875 72.90625 
L 19.671875 43.015625 
L 55.515625 43.015625 
L 55.515625 72.90625 
L 65.375 72.90625 
L 65.375 0 
L 55.515625 0 
L 55.515625 34.71875 
L 19.671875 34.71875 
L 19.671875 0 
L 9.8125 0 
z
" id="DejaVuSans-72"/>
        <path d="M 9.8125 72.90625 
L 23.09375 72.90625 
L 55.421875 11.921875 
L 55.421875 72.90625 
L 64.984375 72.90625 
L 64.984375 0 
L 51.703125 0 
L 19.390625 60.984375 
L 19.390625 0 
L 9.8125 0 
z
" id="DejaVuSans-78"/>
        <path d="M 12.40625 8.296875 
L 28.515625 8.296875 
L 28.515625 63.921875 
L 10.984375 60.40625 
L 10.984375 69.390625 
L 28.421875 72.90625 
L 38.28125 72.90625 
L 38.28125 8.296875 
L 54.390625 8.296875 
L 54.390625 0 
L 12.40625 0 
z
" id="DejaVuSans-49"/>
       </defs>
       <use xlink:href="#DejaVuSans-77"/>
       <use x="86.279297" xlink:href="#DejaVuSans-72"/>
       <use x="161.474609" xlink:href="#DejaVuSans-78"/>
       <use x="236.279297" xlink:href="#DejaVuSans-78"/>
       <use x="311.083984" xlink:href="#DejaVuSans-49"/>
      </g>
     </g>
    </g>
    <g id="xtick_2">
     <g id="line2d_2">
      <g>
       <use style="stroke:#000000;stroke-width:0.8;" x="137.7" xlink:href="#m362c4379e7" y="252"/>
      </g>
     </g>
     <g id="text_2">
      <!-- MHNN2* -->
      <g transform="translate(116.463281 266.598437)scale(0.1 -0.1)">
       <defs>
        <path d="M 19.1875 8.296875 
L 53.609375 8.296875 
L 53.609375 0 
L 7.328125 0 
L 7.328125 8.296875 
Q 12.9375 14.109375 22.625 23.890625 
Q 32.328125 33.6875 34.8125 36.53125 
Q 39.546875 41.84375 41.421875 45.53125 
Q 43.3125 49.21875 43.3125 52.78125 
Q 43.3125 58.59375 39.234375 62.25 
Q 35.15625 65.921875 28.609375 65.921875 
Q 23.96875 65.921875 18.8125 64.3125 
Q 13.671875 62.703125 7.8125 59.421875 
L 7.8125 69.390625 
Q 13.765625 71.78125 18.9375 73 
Q 24.125 74.21875 28.421875 74.21875 
Q 39.75 74.21875 46.484375 68.546875 
Q 53.21875 62.890625 53.21875 53.421875 
Q 53.21875 48.921875 51.53125 44.890625 
Q 49.859375 40.875 45.40625 35.40625 
Q 44.1875 33.984375 37.640625 27.21875 
Q 31.109375 20.453125 19.1875 8.296875 
z
" id="DejaVuSans-50"/>
        <path d="M 47.015625 60.890625 
L 29.5 51.421875 
L 47.015625 41.890625 
L 44.1875 37.109375 
L 27.78125 47.015625 
L 27.78125 28.609375 
L 22.21875 28.609375 
L 22.21875 47.015625 
L 5.8125 37.109375 
L 2.984375 41.890625 
L 20.515625 51.421875 
L 2.984375 60.890625 
L 5.8125 65.71875 
L 22.21875 55.8125 
L 22.21875 74.21875 
L 27.78125 74.21875 
L 27.78125 55.8125 
L 44.1875 65.71875 
z
" id="DejaVuSans-42"/>
       </defs>
       <use xlink:href="#DejaVuSans-77"/>
       <use x="86.279297" xlink:href="#DejaVuSans-72"/>
       <use x="161.474609" xlink:href="#DejaVuSans-78"/>
       <use x="236.279297" xlink:href="#DejaVuSans-78"/>
       <use x="311.083984" xlink:href="#DejaVuSans-50"/>
       <use x="374.707031" xlink:href="#DejaVuSans-42"/>
      </g>
     </g>
    </g>
    <g id="xtick_3">
     <g id="line2d_3">
      <g>
       <use style="stroke:#000000;stroke-width:0.8;" x="193.5" xlink:href="#m362c4379e7" y="252"/>
      </g>
     </g>
     <g id="text_3">
      <!-- MHRES1 -->
      <g transform="translate(172.436719 266.598437)scale(0.1 -0.1)">
       <defs>
        <path d="M 44.390625 34.1875 
Q 47.5625 33.109375 50.5625 29.59375 
Q 53.5625 26.078125 56.59375 19.921875 
L 66.609375 0 
L 56 0 
L 46.6875 18.703125 
Q 43.0625 26.03125 39.671875 28.421875 
Q 36.28125 30.8125 30.421875 30.8125 
L 19.671875 30.8125 
L 19.671875 0 
L 9.8125 0 
L 9.8125 72.90625 
L 32.078125 72.90625 
Q 44.578125 72.90625 50.734375 67.671875 
Q 56.890625 62.453125 56.890625 51.90625 
Q 56.890625 45.015625 53.6875 40.46875 
Q 50.484375 35.9375 44.390625 34.1875 
z
M 19.671875 64.796875 
L 19.671875 38.921875 
L 32.078125 38.921875 
Q 39.203125 38.921875 42.84375 42.21875 
Q 46.484375 45.515625 46.484375 51.90625 
Q 46.484375 58.296875 42.84375 61.546875 
Q 39.203125 64.796875 32.078125 64.796875 
z
" id="DejaVuSans-82"/>
        <path d="M 9.8125 72.90625 
L 55.90625 72.90625 
L 55.90625 64.59375 
L 19.671875 64.59375 
L 19.671875 43.015625 
L 54.390625 43.015625 
L 54.390625 34.71875 
L 19.671875 34.71875 
L 19.671875 8.296875 
L 56.78125 8.296875 
L 56.78125 0 
L 9.8125 0 
z
" id="DejaVuSans-69"/>
        <path d="M 53.515625 70.515625 
L 53.515625 60.890625 
Q 47.90625 63.578125 42.921875 64.890625 
Q 37.9375 66.21875 33.296875 66.21875 
Q 25.25 66.21875 20.875 63.09375 
Q 16.5 59.96875 16.5 54.203125 
Q 16.5 49.359375 19.40625 46.890625 
Q 22.3125 44.4375 30.421875 42.921875 
L 36.375 41.703125 
Q 47.40625 39.59375 52.65625 34.296875 
Q 57.90625 29 57.90625 20.125 
Q 57.90625 9.515625 50.796875 4.046875 
Q 43.703125 -1.421875 29.984375 -1.421875 
Q 24.8125 -1.421875 18.96875 -0.25 
Q 13.140625 0.921875 6.890625 3.21875 
L 6.890625 13.375 
Q 12.890625 10.015625 18.65625 8.296875 
Q 24.421875 6.59375 29.984375 6.59375 
Q 38.421875 6.59375 43.015625 9.90625 
Q 47.609375 13.234375 47.609375 19.390625 
Q 47.609375 24.75 44.3125 27.78125 
Q 41.015625 30.8125 33.5 32.328125 
L 27.484375 33.5 
Q 16.453125 35.6875 11.515625 40.375 
Q 6.59375 45.0625 6.59375 53.421875 
Q 6.59375 63.09375 13.40625 68.65625 
Q 20.21875 74.21875 32.171875 74.21875 
Q 37.3125 74.21875 42.625 73.28125 
Q 47.953125 72.359375 53.515625 70.515625 
z
" id="DejaVuSans-83"/>
       </defs>
       <use xlink:href="#DejaVuSans-77"/>
       <use x="86.279297" xlink:href="#DejaVuSans-72"/>
       <use x="161.474609" xlink:href="#DejaVuSans-82"/>
       <use x="230.957031" xlink:href="#DejaVuSans-69"/>
       <use x="294.140625" xlink:href="#DejaVuSans-83"/>
       <use x="357.617188" xlink:href="#DejaVuSans-49"/>
      </g>
     </g>
    </g>
    <g id="xtick_4">
     <g id="line2d_4">
      <g>
       <use style="stroke:#000000;stroke-width:0.8;" x="249.3" xlink:href="#m362c4379e7" y="252"/>
      </g>
     </g>
     <g id="text_4">
      <!-- MHRES2* -->
      <g transform="translate(225.736719 266.598437)scale(0.1 -0.1)">
       <use xlink:href="#DejaVuSans-77"/>
       <use x="86.279297" xlink:href="#DejaVuSans-72"/>
       <use x="161.474609" xlink:href="#DejaVuSans-82"/>
       <use x="230.957031" xlink:href="#DejaVuSans-69"/>
       <use x="294.140625" xlink:href="#DejaVuSans-83"/>
       <use x="357.617188" xlink:href="#DejaVuSans-50"/>
       <use x="421.240234" xlink:href="#DejaVuSans-42"/>
      </g>
     </g>
    </g>
    <g id="xtick_5">
     <g id="line2d_5">
      <g>
       <use style="stroke:#000000;stroke-width:0.8;" x="305.1" xlink:href="#m362c4379e7" y="252"/>
      </g>
     </g>
     <g id="text_5">
      <!-- MHDAM1 -->
      <g transform="translate(282.347656 266.598437)scale(0.1 -0.1)">
       <defs>
        <path d="M 19.671875 64.796875 
L 19.671875 8.109375 
L 31.59375 8.109375 
Q 46.6875 8.109375 53.6875 14.9375 
Q 60.6875 21.78125 60.6875 36.53125 
Q 60.6875 51.171875 53.6875 57.984375 
Q 46.6875 64.796875 31.59375 64.796875 
z
M 9.8125 72.90625 
L 30.078125 72.90625 
Q 51.265625 72.90625 61.171875 64.09375 
Q 71.09375 55.28125 71.09375 36.53125 
Q 71.09375 17.671875 61.125 8.828125 
Q 51.171875 0 30.078125 0 
L 9.8125 0 
z
" id="DejaVuSans-68"/>
        <path d="M 34.1875 63.1875 
L 20.796875 26.90625 
L 47.609375 26.90625 
z
M 28.609375 72.90625 
L 39.796875 72.90625 
L 67.578125 0 
L 57.328125 0 
L 50.6875 18.703125 
L 17.828125 18.703125 
L 11.1875 0 
L 0.78125 0 
z
" id="DejaVuSans-65"/>
       </defs>
       <use xlink:href="#DejaVuSans-77"/>
       <use x="86.279297" xlink:href="#DejaVuSans-72"/>
       <use x="161.474609" xlink:href="#DejaVuSans-68"/>
       <use x="236.726562" xlink:href="#DejaVuSans-65"/>
       <use x="305.134766" xlink:href="#DejaVuSans-77"/>
       <use x="391.414062" xlink:href="#DejaVuSans-49"/>
      </g>
     </g>
    </g>
    <g id="xtick_6">
     <g id="line2d_6">
      <g>
       <use style="stroke:#000000;stroke-width:0.8;" x="360.9" xlink:href="#m362c4379e7" y="252"/>
      </g>
     </g>
     <g id="text_6">
      <!-- MHDAM2* -->
      <g transform="translate(335.647656 266.598437)scale(0.1 -0.1)">
       <use xlink:href="#DejaVuSans-77"/>
       <use x="86.279297" xlink:href="#DejaVuSans-72"/>
       <use x="161.474609" xlink:href="#DejaVuSans-68"/>
       <use x="236.726562" xlink:href="#DejaVuSans-65"/>
       <use x="305.134766" xlink:href="#DejaVuSans-77"/>
       <use x="391.414062" xlink:href="#DejaVuSans-50"/>
       <use x="455.037109" xlink:href="#DejaVuSans-42"/>
      </g>
     </g>
    </g>
    <g id="text_7">
     <!-- Water logger ID -->
     <g transform="translate(182.186719 280.276563)scale(0.1 -0.1)">
      <defs>
       <path d="M 3.328125 72.90625 
L 13.28125 72.90625 
L 28.609375 11.28125 
L 43.890625 72.90625 
L 54.984375 72.90625 
L 70.3125 11.28125 
L 85.59375 72.90625 
L 95.609375 72.90625 
L 77.296875 0 
L 64.890625 0 
L 49.515625 63.28125 
L 33.984375 0 
L 21.578125 0 
z
" id="DejaVuSans-87"/>
       <path d="M 34.28125 27.484375 
Q 23.390625 27.484375 19.1875 25 
Q 14.984375 22.515625 14.984375 16.5 
Q 14.984375 11.71875 18.140625 8.90625 
Q 21.296875 6.109375 26.703125 6.109375 
Q 34.1875 6.109375 38.703125 11.40625 
Q 43.21875 16.703125 43.21875 25.484375 
L 43.21875 27.484375 
z
M 52.203125 31.203125 
L 52.203125 0 
L 43.21875 0 
L 43.21875 8.296875 
Q 40.140625 3.328125 35.546875 0.953125 
Q 30.953125 -1.421875 24.3125 -1.421875 
Q 15.921875 -1.421875 10.953125 3.296875 
Q 6 8.015625 6 15.921875 
Q 6 25.140625 12.171875 29.828125 
Q 18.359375 34.515625 30.609375 34.515625 
L 43.21875 34.515625 
L 43.21875 35.40625 
Q 43.21875 41.609375 39.140625 45 
Q 35.0625 48.390625 27.6875 48.390625 
Q 23 48.390625 18.546875 47.265625 
Q 14.109375 46.140625 10.015625 43.890625 
L 10.015625 52.203125 
Q 14.9375 54.109375 19.578125 55.046875 
Q 24.21875 56 28.609375 56 
Q 40.484375 56 46.34375 49.84375 
Q 52.203125 43.703125 52.203125 31.203125 
z
" id="DejaVuSans-97"/>
       <path d="M 18.3125 70.21875 
L 18.3125 54.6875 
L 36.8125 54.6875 
L 36.8125 47.703125 
L 18.3125 47.703125 
L 18.3125 18.015625 
Q 18.3125 11.328125 20.140625 9.421875 
Q 21.96875 7.515625 27.59375 7.515625 
L 36.8125 7.515625 
L 36.8125 0 
L 27.59375 0 
Q 17.1875 0 13.234375 3.875 
Q 9.28125 7.765625 9.28125 18.015625 
L 9.28125 47.703125 
L 2.6875 47.703125 
L 2.6875 54.6875 
L 9.28125 54.6875 
L 9.28125 70.21875 
z
" id="DejaVuSans-116"/>
       <path d="M 56.203125 29.59375 
L 56.203125 25.203125 
L 14.890625 25.203125 
Q 15.484375 15.921875 20.484375 11.0625 
Q 25.484375 6.203125 34.421875 6.203125 
Q 39.59375 6.203125 44.453125 7.46875 
Q 49.3125 8.734375 54.109375 11.28125 
L 54.109375 2.78125 
Q 49.265625 0.734375 44.1875 -0.34375 
Q 39.109375 -1.421875 33.890625 -1.421875 
Q 20.796875 -1.421875 13.15625 6.1875 
Q 5.515625 13.8125 5.515625 26.8125 
Q 5.515625 40.234375 12.765625 48.109375 
Q 20.015625 56 32.328125 56 
Q 43.359375 56 49.78125 48.890625 
Q 56.203125 41.796875 56.203125 29.59375 
z
M 47.21875 32.234375 
Q 47.125 39.59375 43.09375 43.984375 
Q 39.0625 48.390625 32.421875 48.390625 
Q 24.90625 48.390625 20.390625 44.140625 
Q 15.875 39.890625 15.1875 32.171875 
z
" id="DejaVuSans-101"/>
       <path d="M 41.109375 46.296875 
Q 39.59375 47.171875 37.8125 47.578125 
Q 36.03125 48 33.890625 48 
Q 26.265625 48 22.1875 43.046875 
Q 18.109375 38.09375 18.109375 28.8125 
L 18.109375 0 
L 9.078125 0 
L 9.078125 54.6875 
L 18.109375 54.6875 
L 18.109375 46.1875 
Q 20.953125 51.171875 25.484375 53.578125 
Q 30.03125 56 36.53125 56 
Q 37.453125 56 38.578125 55.875 
Q 39.703125 55.765625 41.0625 55.515625 
z
" id="DejaVuSans-114"/>
       <path id="DejaVuSans-32"/>
       <path d="M 9.421875 75.984375 
L 18.40625 75.984375 
L 18.40625 0 
L 9.421875 0 
z
" id="DejaVuSans-108"/>
       <path d="M 30.609375 48.390625 
Q 23.390625 48.390625 19.1875 42.75 
Q 14.984375 37.109375 14.984375 27.296875 
Q 14.984375 17.484375 19.15625 11.84375 
Q 23.34375 6.203125 30.609375 6.203125 
Q 37.796875 6.203125 41.984375 11.859375 
Q 46.1875 17.53125 46.1875 27.296875 
Q 46.1875 37.015625 41.984375 42.703125 
Q 37.796875 48.390625 30.609375 48.390625 
z
M 30.609375 56 
Q 42.328125 56 49.015625 48.375 
Q 55.71875 40.765625 55.71875 27.296875 
Q 55.71875 13.875 49.015625 6.21875 
Q 42.328125 -1.421875 30.609375 -1.421875 
Q 18.84375 -1.421875 12.171875 6.21875 
Q 5.515625 13.875 5.515625 27.296875 
Q 5.515625 40.765625 12.171875 48.375 
Q 18.84375 56 30.609375 56 
z
" id="DejaVuSans-111"/>
       <path d="M 45.40625 27.984375 
Q 45.40625 37.75 41.375 43.109375 
Q 37.359375 48.484375 30.078125 48.484375 
Q 22.859375 48.484375 18.828125 43.109375 
Q 14.796875 37.75 14.796875 27.984375 
Q 14.796875 18.265625 18.828125 12.890625 
Q 22.859375 7.515625 30.078125 7.515625 
Q 37.359375 7.515625 41.375 12.890625 
Q 45.40625 18.265625 45.40625 27.984375 
z
M 54.390625 6.78125 
Q 54.390625 -7.171875 48.1875 -13.984375 
Q 42 -20.796875 29.203125 -20.796875 
Q 24.46875 -20.796875 20.265625 -20.09375 
Q 16.0625 -19.390625 12.109375 -17.921875 
L 12.109375 -9.1875 
Q 16.0625 -11.328125 19.921875 -12.34375 
Q 23.78125 -13.375 27.78125 -13.375 
Q 36.625 -13.375 41.015625 -8.765625 
Q 45.40625 -4.15625 45.40625 5.171875 
L 45.40625 9.625 
Q 42.625 4.78125 38.28125 2.390625 
Q 33.9375 0 27.875 0 
Q 17.828125 0 11.671875 7.65625 
Q 5.515625 15.328125 5.515625 27.984375 
Q 5.515625 40.671875 11.671875 48.328125 
Q 17.828125 56 27.875 56 
Q 33.9375 56 38.28125 53.609375 
Q 42.625 51.21875 45.40625 46.390625 
L 45.40625 54.6875 
L 54.390625 54.6875 
z
" id="DejaVuSans-103"/>
       <path d="M 9.8125 72.90625 
L 19.671875 72.90625 
L 19.671875 0 
L 9.8125 0 
z
" id="DejaVuSans-73"/>
      </defs>
      <use xlink:href="#DejaVuSans-87"/>
      <use x="92.501953" xlink:href="#DejaVuSans-97"/>
      <use x="153.78125" xlink:href="#DejaVuSans-116"/>
      <use x="192.990234" xlink:href="#DejaVuSans-101"/>
      <use x="254.513672" xlink:href="#DejaVuSans-114"/>
      <use x="295.626953" xlink:href="#DejaVuSans-32"/>
      <use x="327.414062" xlink:href="#DejaVuSans-108"/>
      <use x="355.197266" xlink:href="#DejaVuSans-111"/>
      <use x="416.378906" xlink:href="#DejaVuSans-103"/>
      <use x="479.855469" xlink:href="#DejaVuSans-103"/>
      <use x="543.332031" xlink:href="#DejaVuSans-101"/>
      <use x="604.855469" xlink:href="#DejaVuSans-114"/>
      <use x="645.96875" xlink:href="#DejaVuSans-32"/>
      <use x="677.755859" xlink:href="#DejaVuSans-73"/>
      <use x="707.248047" xlink:href="#DejaVuSans-68"/>
     </g>
    </g>
   </g>
   <g id="matplotlib.axis_2">
    <g id="ytick_1">
     <g id="line2d_7">
      <defs>
       <path d="M 0 0 
L -3.5 0 
" id="m4a5aada895" style="stroke:#000000;stroke-width:0.8;"/>
      </defs>
      <g>
       <use style="stroke:#000000;stroke-width:0.8;" x="54" xlink:href="#m4a5aada895" y="67.119967"/>
      </g>
     </g>
     <g id="text_8">
      <!-- 0 -->
      <g transform="translate(40.6375 70.919185)scale(0.1 -0.1)">
       <defs>
        <path d="M 31.78125 66.40625 
Q 24.171875 66.40625 20.328125 58.90625 
Q 16.5 51.421875 16.5 36.375 
Q 16.5 21.390625 20.328125 13.890625 
Q 24.171875 6.390625 31.78125 6.390625 
Q 39.453125 6.390625 43.28125 13.890625 
Q 47.125 21.390625 47.125 36.375 
Q 47.125 51.421875 43.28125 58.90625 
Q 39.453125 66.40625 31.78125 66.40625 
z
M 31.78125 74.21875 
Q 44.046875 74.21875 50.515625 64.515625 
Q 56.984375 54.828125 56.984375 36.375 
Q 56.984375 17.96875 50.515625 8.265625 
Q 44.046875 -1.421875 31.78125 -1.421875 
Q 19.53125 -1.421875 13.0625 8.265625 
Q 6.59375 17.96875 6.59375 36.375 
Q 6.59375 54.828125 13.0625 64.515625 
Q 19.53125 74.21875 31.78125 74.21875 
z
" id="DejaVuSans-48"/>
       </defs>
       <use xlink:href="#DejaVuSans-48"/>
      </g>
     </g>
    </g>
    <g id="ytick_2">
     <g id="line2d_8">
      <g>
       <use style="stroke:#000000;stroke-width:0.8;" x="54" xlink:href="#m4a5aada895" y="104.449374"/>
      </g>
     </g>
     <g id="text_9">
      <!-- 200 -->
      <g transform="translate(27.9125 108.248593)scale(0.1 -0.1)">
       <use xlink:href="#DejaVuSans-50"/>
       <use x="63.623047" xlink:href="#DejaVuSans-48"/>
       <use x="127.246094" xlink:href="#DejaVuSans-48"/>
      </g>
     </g>
    </g>
    <g id="ytick_3">
     <g id="line2d_9">
      <g>
       <use style="stroke:#000000;stroke-width:0.8;" x="54" xlink:href="#m4a5aada895" y="141.778782"/>
      </g>
     </g>
     <g id="text_10">
      <!-- 400 -->
      <g transform="translate(27.9125 145.578001)scale(0.1 -0.1)">
       <defs>
        <path d="M 37.796875 64.3125 
L 12.890625 25.390625 
L 37.796875 25.390625 
z
M 35.203125 72.90625 
L 47.609375 72.90625 
L 47.609375 25.390625 
L 58.015625 25.390625 
L 58.015625 17.1875 
L 47.609375 17.1875 
L 47.609375 0 
L 37.796875 0 
L 37.796875 17.1875 
L 4.890625 17.1875 
L 4.890625 26.703125 
z
" id="DejaVuSans-52"/>
       </defs>
       <use xlink:href="#DejaVuSans-52"/>
       <use x="63.623047" xlink:href="#DejaVuSans-48"/>
       <use x="127.246094" xlink:href="#DejaVuSans-48"/>
      </g>
     </g>
    </g>
    <g id="ytick_4">
     <g id="line2d_10">
      <g>
       <use style="stroke:#000000;stroke-width:0.8;" x="54" xlink:href="#m4a5aada895" y="179.10819"/>
      </g>
     </g>
     <g id="text_11">
      <!-- 600 -->
      <g transform="translate(27.9125 182.907409)scale(0.1 -0.1)">
       <defs>
        <path d="M 33.015625 40.375 
Q 26.375 40.375 22.484375 35.828125 
Q 18.609375 31.296875 18.609375 23.390625 
Q 18.609375 15.53125 22.484375 10.953125 
Q 26.375 6.390625 33.015625 6.390625 
Q 39.65625 6.390625 43.53125 10.953125 
Q 47.40625 15.53125 47.40625 23.390625 
Q 47.40625 31.296875 43.53125 35.828125 
Q 39.65625 40.375 33.015625 40.375 
z
M 52.59375 71.296875 
L 52.59375 62.3125 
Q 48.875 64.0625 45.09375 64.984375 
Q 41.3125 65.921875 37.59375 65.921875 
Q 27.828125 65.921875 22.671875 59.328125 
Q 17.53125 52.734375 16.796875 39.40625 
Q 19.671875 43.65625 24.015625 45.921875 
Q 28.375 48.1875 33.59375 48.1875 
Q 44.578125 48.1875 50.953125 41.515625 
Q 57.328125 34.859375 57.328125 23.390625 
Q 57.328125 12.15625 50.6875 5.359375 
Q 44.046875 -1.421875 33.015625 -1.421875 
Q 20.359375 -1.421875 13.671875 8.265625 
Q 6.984375 17.96875 6.984375 36.375 
Q 6.984375 53.65625 15.1875 63.9375 
Q 23.390625 74.21875 37.203125 74.21875 
Q 40.921875 74.21875 44.703125 73.484375 
Q 48.484375 72.75 52.59375 71.296875 
z
" id="DejaVuSans-54"/>
       </defs>
       <use xlink:href="#DejaVuSans-54"/>
       <use x="63.623047" xlink:href="#DejaVuSans-48"/>
       <use x="127.246094" xlink:href="#DejaVuSans-48"/>
      </g>
     </g>
    </g>
    <g id="ytick_5">
     <g id="line2d_11">
      <g>
       <use style="stroke:#000000;stroke-width:0.8;" x="54" xlink:href="#m4a5aada895" y="216.437598"/>
      </g>
     </g>
     <g id="text_12">
      <!-- 800 -->
      <g transform="translate(27.9125 220.236816)scale(0.1 -0.1)">
       <defs>
        <path d="M 31.78125 34.625 
Q 24.75 34.625 20.71875 30.859375 
Q 16.703125 27.09375 16.703125 20.515625 
Q 16.703125 13.921875 20.71875 10.15625 
Q 24.75 6.390625 31.78125 6.390625 
Q 38.8125 6.390625 42.859375 10.171875 
Q 46.921875 13.96875 46.921875 20.515625 
Q 46.921875 27.09375 42.890625 30.859375 
Q 38.875 34.625 31.78125 34.625 
z
M 21.921875 38.8125 
Q 15.578125 40.375 12.03125 44.71875 
Q 8.5 49.078125 8.5 55.328125 
Q 8.5 64.0625 14.71875 69.140625 
Q 20.953125 74.21875 31.78125 74.21875 
Q 42.671875 74.21875 48.875 69.140625 
Q 55.078125 64.0625 55.078125 55.328125 
Q 55.078125 49.078125 51.53125 44.71875 
Q 48 40.375 41.703125 38.8125 
Q 48.828125 37.15625 52.796875 32.3125 
Q 56.78125 27.484375 56.78125 20.515625 
Q 56.78125 9.90625 50.3125 4.234375 
Q 43.84375 -1.421875 31.78125 -1.421875 
Q 19.734375 -1.421875 13.25 4.234375 
Q 6.78125 9.90625 6.78125 20.515625 
Q 6.78125 27.484375 10.78125 32.3125 
Q 14.796875 37.15625 21.921875 38.8125 
z
M 18.3125 54.390625 
Q 18.3125 48.734375 21.84375 45.5625 
Q 25.390625 42.390625 31.78125 42.390625 
Q 38.140625 42.390625 41.71875 45.5625 
Q 45.3125 48.734375 45.3125 54.390625 
Q 45.3125 60.0625 41.71875 63.234375 
Q 38.140625 66.40625 31.78125 66.40625 
Q 25.390625 66.40625 21.84375 63.234375 
Q 18.3125 60.0625 18.3125 54.390625 
z
" id="DejaVuSans-56"/>
       </defs>
       <use xlink:href="#DejaVuSans-56"/>
       <use x="63.623047" xlink:href="#DejaVuSans-48"/>
       <use x="127.246094" xlink:href="#DejaVuSans-48"/>
      </g>
     </g>
    </g>
    <g id="text_13">
     <!-- WTD(mm) -->
     <g transform="translate(21.832812 168.769844)rotate(-90)scale(0.1 -0.1)">
      <defs>
       <path d="M -0.296875 72.90625 
L 61.375 72.90625 
L 61.375 64.59375 
L 35.5 64.59375 
L 35.5 0 
L 25.59375 0 
L 25.59375 64.59375 
L -0.296875 64.59375 
z
" id="DejaVuSans-84"/>
       <path d="M 31 75.875 
Q 24.46875 64.65625 21.28125 53.65625 
Q 18.109375 42.671875 18.109375 31.390625 
Q 18.109375 20.125 21.3125 9.0625 
Q 24.515625 -2 31 -13.1875 
L 23.1875 -13.1875 
Q 15.875 -1.703125 12.234375 9.375 
Q 8.59375 20.453125 8.59375 31.390625 
Q 8.59375 42.28125 12.203125 53.3125 
Q 15.828125 64.359375 23.1875 75.875 
z
" id="DejaVuSans-40"/>
       <path d="M 52 44.1875 
Q 55.375 50.25 60.0625 53.125 
Q 64.75 56 71.09375 56 
Q 79.640625 56 84.28125 50.015625 
Q 88.921875 44.046875 88.921875 33.015625 
L 88.921875 0 
L 79.890625 0 
L 79.890625 32.71875 
Q 79.890625 40.578125 77.09375 44.375 
Q 74.3125 48.1875 68.609375 48.1875 
Q 61.625 48.1875 57.5625 43.546875 
Q 53.515625 38.921875 53.515625 30.90625 
L 53.515625 0 
L 44.484375 0 
L 44.484375 32.71875 
Q 44.484375 40.625 41.703125 44.40625 
Q 38.921875 48.1875 33.109375 48.1875 
Q 26.21875 48.1875 22.15625 43.53125 
Q 18.109375 38.875 18.109375 30.90625 
L 18.109375 0 
L 9.078125 0 
L 9.078125 54.6875 
L 18.109375 54.6875 
L 18.109375 46.1875 
Q 21.1875 51.21875 25.484375 53.609375 
Q 29.78125 56 35.6875 56 
Q 41.65625 56 45.828125 52.96875 
Q 50 49.953125 52 44.1875 
z
" id="DejaVuSans-109"/>
       <path d="M 8.015625 75.875 
L 15.828125 75.875 
Q 23.140625 64.359375 26.78125 53.3125 
Q 30.421875 42.28125 30.421875 31.390625 
Q 30.421875 20.453125 26.78125 9.375 
Q 23.140625 -1.703125 15.828125 -13.1875 
L 8.015625 -13.1875 
Q 14.5 -2 17.703125 9.0625 
Q 20.90625 20.125 20.90625 31.390625 
Q 20.90625 42.671875 17.703125 53.65625 
Q 14.5 64.65625 8.015625 75.875 
z
" id="DejaVuSans-41"/>
      </defs>
      <use xlink:href="#DejaVuSans-87"/>
      <use x="98.876953" xlink:href="#DejaVuSans-84"/>
      <use x="159.960938" xlink:href="#DejaVuSans-68"/>
      <use x="236.962891" xlink:href="#DejaVuSans-40"/>
      <use x="275.976562" xlink:href="#DejaVuSans-109"/>
      <use x="373.388672" xlink:href="#DejaVuSans-109"/>
      <use x="470.800781" xlink:href="#DejaVuSans-41"/>
     </g>
    </g>
   </g>
   <g id="line2d_12">
    <path clip-path="url(#p1ab6a98bf9)" d="M 81.9 67.002559 
L 81.9 94.442924 
" style="fill:none;stroke:#3d3d3d;stroke-linecap:square;stroke-width:1.5;"/>
   </g>
   <g id="line2d_13">
    <path clip-path="url(#p1ab6a98bf9)" d="M 81.9 77.06686 
L 81.9 84.035428 
" style="fill:none;stroke:#3d3d3d;stroke-linecap:square;stroke-width:4.5;"/>
   </g>
   <g id="line2d_14">
    <path clip-path="url(#p1ab6a98bf9)" d="M 137.7 65.444543 
L 137.7 105.39471 
" style="fill:none;stroke:#3d3d3d;stroke-linecap:square;stroke-width:1.5;"/>
   </g>
   <g id="line2d_15">
    <path clip-path="url(#p1ab6a98bf9)" d="M 137.7 78.635026 
L 137.7 89.352094 
" style="fill:none;stroke:#3d3d3d;stroke-linecap:square;stroke-width:4.5;"/>
   </g>
   <g id="line2d_16">
    <path clip-path="url(#p1ab6a98bf9)" d="M 193.5 65.888603 
L 193.5 86.61732 
" style="fill:none;stroke:#3d3d3d;stroke-linecap:square;stroke-width:1.5;"/>
   </g>
   <g id="line2d_17">
    <path clip-path="url(#p1ab6a98bf9)" d="M 193.5 73.638717 
L 193.5 78.843099 
" style="fill:none;stroke:#3d3d3d;stroke-linecap:square;stroke-width:4.5;"/>
   </g>
   <g id="line2d_18">
    <path clip-path="url(#p1ab6a98bf9)" d="M 249.3 63.587104 
L 249.3 110.654916 
" style="fill:none;stroke:#3d3d3d;stroke-linecap:square;stroke-width:1.5;"/>
   </g>
   <g id="line2d_19">
    <path clip-path="url(#p1ab6a98bf9)" d="M 249.3 76.898751 
L 249.3 90.408322 
" style="fill:none;stroke:#3d3d3d;stroke-linecap:square;stroke-width:4.5;"/>
   </g>
   <g id="line2d_20">
    <path clip-path="url(#p1ab6a98bf9)" d="M 305.1 58.006656 
L 305.1 88.13168 
" style="fill:none;stroke:#3d3d3d;stroke-linecap:square;stroke-width:1.5;"/>
   </g>
   <g id="line2d_21">
    <path clip-path="url(#p1ab6a98bf9)" d="M 305.1 69.088488 
L 305.1 76.733931 
" style="fill:none;stroke:#3d3d3d;stroke-linecap:square;stroke-width:4.5;"/>
   </g>
   <g id="line2d_22">
    <path clip-path="url(#p1ab6a98bf9)" d="M 360.9 77.060632 
L 360.9 120.027868 
" style="fill:none;stroke:#3d3d3d;stroke-linecap:square;stroke-width:1.5;"/>
   </g>
   <g id="line2d_23">
    <path clip-path="url(#p1ab6a98bf9)" d="M 360.9 90.509303 
L 360.9 102.369509 
" style="fill:none;stroke:#3d3d3d;stroke-linecap:square;stroke-width:4.5;"/>
   </g>
   <g id="line2d_24">
    <path clip-path="url(#p1ab6a98bf9)" d="M 54 67.119967 
L 388.8 67.119967 
" style="fill:none;stroke:#000000;stroke-dasharray:1.85,0.8;stroke-dashoffset:0;stroke-width:0.5;"/>
   </g>
   <g id="patch_3">
    <path d="M 54 252 
L 54 34.56 
" style="fill:none;stroke:#000000;stroke-linecap:square;stroke-linejoin:miter;stroke-width:0.8;"/>
   </g>
   <g id="patch_4">
    <path d="M 388.8 252 
L 388.8 34.56 
" style="fill:none;stroke:#000000;stroke-linecap:square;stroke-linejoin:miter;stroke-width:0.8;"/>
   </g>
   <g id="patch_5">
    <path d="M 54 252 
L 388.8 252 
" style="fill:none;stroke:#000000;stroke-linecap:square;stroke-linejoin:miter;stroke-width:0.8;"/>
   </g>
   <g id="patch_6">
    <path d="M 54 34.56 
L 388.8 34.56 
" style="fill:none;stroke:#000000;stroke-linecap:square;stroke-linejoin:miter;stroke-width:0.8;"/>
   </g>
   <g id="PathCollection_1">
    <defs>
     <path d="M 0 1.5 
C 0.397805 1.5 0.77937 1.341951 1.06066 1.06066 
C 1.341951 0.77937 1.5 0.397805 1.5 0 
C 1.5 -0.397805 1.341951 -0.77937 1.06066 -1.06066 
C 0.77937 -1.341951 0.397805 -1.5 0 -1.5 
C -0.397805 -1.5 -0.77937 -1.341951 -1.06066 -1.06066 
C -1.341951 -0.77937 -1.5 -0.397805 -1.5 0 
C -1.5 0.397805 -1.341951 0.77937 -1.06066 1.06066 
C -0.77937 1.341951 -0.397805 1.5 0 1.5 
z
" id="mfe665c90ee" style="stroke:#3d3d3d;"/>
    </defs>
    <g clip-path="url(#p1ab6a98bf9)">
     <use style="fill:#ffffff;stroke:#3d3d3d;" x="81.9" xlink:href="#mfe665c90ee" y="79.367724"/>
    </g>
   </g>
   <g id="PathCollection_2">
    <g clip-path="url(#p1ab6a98bf9)">
     <use style="fill:#ffffff;stroke:#3d3d3d;" x="137.7" xlink:href="#mfe665c90ee" y="81.352038"/>
    </g>
   </g>
   <g id="PathCollection_3">
    <g clip-path="url(#p1ab6a98bf9)">
     <use style="fill:#ffffff;stroke:#3d3d3d;" x="193.5" xlink:href="#mfe665c90ee" y="75.158037"/>
    </g>
   </g>
   <g id="PathCollection_4">
    <g clip-path="url(#p1ab6a98bf9)">
     <use style="fill:#ffffff;stroke:#3d3d3d;" x="249.3" xlink:href="#mfe665c90ee" y="79.839697"/>
    </g>
   </g>
   <g id="PathCollection_5">
    <g clip-path="url(#p1ab6a98bf9)">
     <use style="fill:#ffffff;stroke:#3d3d3d;" x="305.1" xlink:href="#mfe665c90ee" y="71.714151"/>
    </g>
   </g>
   <g id="PathCollection_6">
    <g clip-path="url(#p1ab6a98bf9)">
     <use style="fill:#ffffff;stroke:#3d3d3d;" x="360.9" xlink:href="#mfe665c90ee" y="93.950133"/>
    </g>
   </g>
  </g>
 </g>
 <defs>
  <clipPath id="p1ab6a98bf9">
   <rect height="217.44" width="334.8" x="54" y="34.56"/>
  </clipPath>
 </defs>
</svg>
